<?xml version="1.0" standalone="no"?>
<!DOCTYPE svg PUBLIC "-//W3C//DTD SVG 1.1//EN" "http://www.w3.org/Graphics/SVG/1.1/DTD/svg11.dtd" >
<svg xmlns="http://www.w3.org/2000/svg" xmlns:xlink="http://www.w3.org/1999/xlink" version="1.1">
<metadata></metadata>
<defs>
<font id="niveau_groteskblack_italic" horiz-adv-x="1064" >
<font-face units-per-em="2048" ascent="1536" descent="-512" />
<missing-glyph horiz-adv-x="425" />
<glyph unicode="&#xfb01;" horiz-adv-x="1212" d="M72 696l51 285h131l10 63q32 194 145.5 292t299.5 98q74 0 120 -11l-59 -331q-32 16 -78 16q-81 0 -98 -86l-8 -41h166l-50 -285h-165l-123 -696h-334l123 696h-131zM670 0l180 1032h334l-180 -1032h-334zM874 1292q0 88 68.5 153.5t159.5 65.5q71 0 114.5 -46t43.5 -115 q0 -91 -67 -155.5t-159 -64.5q-71 0 -115.5 45.5t-44.5 116.5z" />
<glyph unicode="&#xfb02;" horiz-adv-x="1212" d="M72 696l51 285h131l10 63q32 194 145.5 292t299.5 98q74 0 120 -11l-59 -331q-32 16 -78 16q-81 0 -98 -86l-8 -41h166l-50 -285h-165l-123 -696h-334l123 696h-131zM668 0l250 1413h333l-250 -1413h-333z" />
<glyph horiz-adv-x="0" />
<glyph horiz-adv-x="682" />
<glyph unicode=" "  horiz-adv-x="425" />
<glyph unicode="&#x09;" horiz-adv-x="425" />
<glyph unicode="&#xa0;" horiz-adv-x="425" />
<glyph unicode="!" horiz-adv-x="587" d="M0 164q0 107 77 181.5t185 74.5q83 0 133.5 -52.5t50.5 -134.5q0 -106 -77.5 -179.5t-184.5 -73.5q-83 0 -133.5 51t-50.5 133zM166 504l74 889h389l-238 -889h-225z" />
<glyph unicode="&#x22;" horiz-adv-x="978" d="M158 889l67 504h348l-108 -504h-307zM612 889l68 504h348l-108 -504h-308z" />
<glyph unicode="#" horiz-adv-x="1345" d="M14 0l166 356h-151l32 185h205l133 288h-227l33 185h280l177 379h233l-176 -379h244l176 379h235l-176 -379h148l-33 -185h-201l-135 -288h225l-31 -185h-280l-166 -356h-233l165 356h-243l-166 -356h-234zM500 541h243l134 288h-244z" />
<glyph unicode="$" horiz-adv-x="1026" d="M47 43l66 363q44 -43 130.5 -74t162.5 -31q143 0 143 102q0 61 -62 105l-139 100q-103 74 -154 162.5t-51 206.5q0 192 126 307t345 129l33 180h111l-33 -180q164 -10 281 -55l-56 -359q-48 36 -126 64.5t-146 28.5q-73 0 -106 -32t-33 -77q0 -51 59 -92l131 -90 q201 -138 201 -352q0 -81 -28 -157t-82.5 -141t-144 -109.5t-202.5 -57.5l-39 -224h-110l36 217q-179 6 -313 66z" />
<glyph unicode="%" horiz-adv-x="1828" d="M109 852l43 238q26 144 130 234.5t248 90.5q146 0 229.5 -92t59.5 -233l-41 -238q-25 -143 -131 -235.5t-250 -92.5q-145 0 -229.5 93.5t-58.5 234.5zM346 858q-8 -47 13 -75.5t67 -28.5q47 0 79 29t40 75l39 225q8 47 -14 75t-68 28q-47 0 -78 -28.5t-39 -74.5zM387 0 l846 1393h258l-848 -1393h-256zM1047 305l43 238q26 144 130 234.5t248 90.5q146 0 229.5 -92t59.5 -233l-41 -238q-25 -143 -131 -235.5t-250 -92.5q-145 0 -229.5 93.5t-58.5 234.5zM1284 311q-8 -47 13 -75.5t67 -28.5q47 0 79 29t40 75l39 226q8 47 -13.5 74.5 t-68.5 27.5t-78 -28t-39 -74z" />
<glyph unicode="&#x26;" horiz-adv-x="1431" d="M20 385q0 77 24 143.5t61.5 114t93.5 89.5t110 69.5t121 54.5l-2 4q-45 79 -45 166q0 163 119.5 275t306.5 112q149 0 243.5 -88t94.5 -223q0 -75 -22 -135.5t-63.5 -104t-87.5 -74t-108 -57.5l90 -141l410 377l-59 -447l-191 -176l221 -344h-393l-74 123 q-189 -146 -415 -146q-89 0 -166.5 26t-138 75.5t-95.5 128.5t-35 178zM403 422q0 -53 31.5 -90t85.5 -37q86 0 197 82l-146 241q-81 -36 -124.5 -81.5t-43.5 -114.5zM698 1030q0 -36 19 -67q102 48 102 100q0 53 -45 53q-31 0 -53.5 -24.5t-22.5 -61.5z" />
<glyph unicode="'" horiz-adv-x="524" d="M158 889l67 504h348l-108 -504h-307z" />
<glyph unicode="(" horiz-adv-x="573" d="M18 254q0 229 67 452t170 395t237 314l182 -127q-216 -257 -310 -505t-94 -541q0 -328 111 -549l-203 -115q-72 123 -116 308t-44 368z" />
<glyph unicode=")" horiz-adv-x="571" d="M-133 -295q215 256 308 504.5t93 542.5q0 329 -110 548l202 115q72 -123 116 -308t44 -368q0 -173 -38 -343t-105 -316.5t-150.5 -271.5t-183.5 -230z" />
<glyph unicode="*" horiz-adv-x="724" d="M150 1001l200 109l-162 111l62 79l166 -110l41 223h94l-39 -221l205 111l33 -89l-207 -112l168 -109l-64 -80l-166 109l-37 -217h-96l39 217l-205 -109z" />
<glyph unicode="+" d="M53 455l45 256h316l59 342h277l-62 -342h320l-45 -256h-320l-59 -342h-277l62 342h-316z" />
<glyph unicode="," horiz-adv-x="567" d="M-76 -221l160 608h369l-222 -608h-307z" />
<glyph unicode="-" horiz-adv-x="751" d="M70 426l55 315h553l-55 -315h-553z" />
<glyph unicode="." horiz-adv-x="565" d="M-6 164q0 107 77 181.5t185 74.5q83 0 133.5 -52.5t50.5 -134.5q0 -106 -77.5 -179.5t-184.5 -73.5q-84 0 -134 51t-50 133z" />
<glyph unicode="/" horiz-adv-x="958" d="M-53 0l846 1393h256l-848 -1393h-254z" />
<glyph unicode="0" horiz-adv-x="1196" d="M72 498l69 399q40 228 201 373t381 145q222 0 349.5 -147.5t88.5 -370.5l-69 -399q-40 -228 -202 -374.5t-380 -146.5q-222 0 -349.5 148.5t-88.5 372.5zM422 506q-15 -85 18.5 -137t108.5 -52q77 0 128.5 52t65.5 137l68 381q15 86 -18.5 137t-108.5 51 q-77 0 -128.5 -51t-66.5 -137z" />
<glyph unicode="1" horiz-adv-x="983" d="M-39 0l59 336h289l127 721h-227l59 336h576l-187 -1057h250l-59 -336h-887z" />
<glyph unicode="2" horiz-adv-x="958" d="M-23 0l52 295l426 450q118 124 118 216q0 106 -114 106q-140 0 -289 -121l68 387q62 37 147 59.5t166 22.5q104 0 181.5 -29.5t123.5 -83t68 -121t22 -149.5q0 -123 -42 -223.5t-132 -198.5l-252 -274h293l-59 -336h-777z" />
<glyph unicode="3" horiz-adv-x="944" d="M-6 51l69 385q105 -110 263 -110q66 0 112.5 37t46.5 94q0 43 -30.5 65.5t-85.5 22.5h-185l60 336h180q50 0 84.5 28t34.5 76q0 38 -27.5 60t-81.5 22q-59 0 -128 -21t-128 -59l70 387q98 41 264 41q184 0 293.5 -97.5t109.5 -250.5q0 -121 -56 -214.5t-154 -147.5 q135 -82 135 -265q0 -127 -70.5 -233.5t-192.5 -168t-268 -61.5q-77 0 -166 22t-149 52z" />
<glyph unicode="4" horiz-adv-x="1159" d="M-20 252l51 295l700 846h348l-141 -805h141l-59 -336h-141l-45 -252h-349l45 252h-550zM408 588h182l59 313z" />
<glyph unicode="5" horiz-adv-x="999" d="M0 68l74 395q114 -137 278 -137q83 0 134 49.5t51 120.5q0 29 -11.5 49.5t-29 32t-47 17.5t-55.5 7.5t-64 1.5h-185l201 789h678l-59 -336h-365l-37 -133q161 -17 249.5 -118t88.5 -261q0 -137 -45 -245.5t-124.5 -178.5t-186.5 -107t-234 -37q-76 0 -160.5 27.5 t-150.5 63.5z" />
<glyph unicode="6" horiz-adv-x="1116" d="M37 426q0 192 147 383l449 584h434l-348 -435q143 -31 233 -136.5t90 -266.5q0 -154 -76 -286.5t-208.5 -212t-290.5 -79.5q-192 0 -311 130t-119 319zM395 461q0 -59 29.5 -97t83.5 -38q71 0 123.5 55.5t52.5 130.5q0 57 -33 94t-88 37q-69 0 -118.5 -54t-49.5 -128z " />
<glyph unicode="7" horiz-adv-x="923" d="M-31 0l594 1057h-416l60 336h809l-53 -295l-588 -1098h-406z" />
<glyph unicode="8" horiz-adv-x="1062" d="M37 377q0 126 60.5 226.5t164.5 162.5q-72 72 -72 207q0 127 65.5 229.5t170.5 157.5t225 55q164 0 267.5 -102.5t103.5 -257.5q0 -101 -46 -184.5t-122 -139.5q113 -80 113 -258q0 -142 -74 -257t-193 -177t-254 -62q-184 0 -296.5 113t-112.5 287zM371 406 q0 -53 28 -87t78 -34q63 0 110.5 51.5t47.5 120.5q0 54 -29.5 88.5t-79.5 34.5q-62 0 -108.5 -52t-46.5 -122zM520 995q0 -36 18 -59t52 -23q41 0 70.5 35t29.5 82q0 34 -17.5 56t-51.5 22q-41 0 -71 -33t-30 -80z" />
<glyph unicode="9" horiz-adv-x="1116" d="M86 0l348 434q-142 29 -232.5 135.5t-90.5 268.5q0 154 76 286.5t208.5 211.5t290.5 79q192 0 311 -129.5t119 -318.5q0 -192 -147 -383l-449 -584h-434zM469 881q0 -57 33 -94t88 -37q69 0 118.5 54t49.5 128q0 59 -29.5 97t-83.5 38q-71 0 -123.5 -55.5t-52.5 -130.5z " />
<glyph unicode=":" horiz-adv-x="573" d="M12 143q0 98 69.5 165t166.5 67q74 0 120 -46.5t46 -119.5q0 -97 -69 -163t-167 -66q-75 0 -120.5 45.5t-45.5 117.5zM121 760q0 98 69 164.5t166 66.5q74 0 120 -46.5t46 -119.5q0 -97 -68.5 -163t-166.5 -66q-75 0 -120.5 46t-45.5 118z" />
<glyph unicode=";" horiz-adv-x="573" d="M-68 -213l146 547h332l-201 -547h-277zM135 760q0 98 68.5 164.5t165.5 66.5q74 0 120 -46.5t46 -119.5q0 -97 -69 -163t-167 -66q-74 0 -119 45.5t-45 118.5z" />
<glyph unicode="&#x3c;" d="M33 455l45 256l973 354l-47 -270l-621 -220l543 -217l-45 -256z" />
<glyph unicode="=" d="M12 225l45 256h910l-45 -256h-910zM94 686l45 256h910l-45 -256h-910z" />
<glyph unicode="&#x3e;" d="M12 102l47 269l619 217l-543 219l47 258l846 -354l-45 -256z" />
<glyph unicode="?" horiz-adv-x="880" d="M84 164q0 106 77.5 181t182.5 75q85 0 135.5 -52t50.5 -135q0 -106 -78 -179.5t-184 -73.5q-84 0 -134 50t-50 134zM147 985l66 371q75 30 133 43.5t129 13.5q106 0 187.5 -30t130 -82.5t72.5 -117t24 -139.5q0 -65 -17 -121t-49.5 -99t-57 -68t-60.5 -54l-111 -92 q-36 -30 -46.5 -46.5t-17.5 -59.5h-337q11 62 19 93t24 69t41 65.5t65 56.5l98 72q78 57 78 117q0 88 -110 88q-60 0 -136 -21.5t-125 -58.5z" />
<glyph unicode="@" horiz-adv-x="1605" d="M68 453q0 230 115 425.5t310.5 308.5t424.5 113q284 0 459 -170.5t175 -441.5q0 -116 -34.5 -213.5t-90.5 -159t-125 -95.5t-141 -34q-133 0 -180 103q-105 -115 -262 -115q-145 0 -228 94.5t-83 239.5q0 178 118 303t287 125q143 0 219 -98l15 77h161l-78 -448 q-10 -53 4.5 -87t55.5 -34q70 0 127 93.5t57 234.5q0 206 -127.5 335.5t-337.5 129.5q-175 0 -328 -92t-244 -249t-91 -339q0 -216 125.5 -354t333.5 -138q104 0 206 37t185 102l75 -133q-110 -86 -227 -127t-258 -41q-275 0 -446.5 181t-171.5 467zM586 516 q0 -79 43 -130.5t121 -51.5q98 0 166.5 78.5t68.5 181.5q0 78 -43 129t-121 51q-97 0 -166 -76.5t-69 -181.5z" />
<glyph unicode="A" horiz-adv-x="1347" d="M-117 0l742 1393h389l250 -1393h-375l-35 252h-444l-123 -252h-404zM584 588h217l-47 350z" />
<glyph unicode="B" horiz-adv-x="1193" d="M37 0l246 1393h510q168 0 270 -97t102 -243q0 -120 -53.5 -213t-148.5 -146q127 -81 127 -258q0 -129 -71 -229t-192.5 -153.5t-271.5 -53.5h-518zM444 336h170q55 0 88 33.5t33 93.5q0 40 -22 61t-62 21h-170zM541 881h151q44 0 72.5 29t28.5 79q0 32 -19 50t-49 18 h-154z" />
<glyph unicode="C" horiz-adv-x="1130" d="M72 602q0 162 65.5 312t175 260t259.5 175.5t313 65.5q150 0 270 -57l-49 -400q-92 109 -260 109q-107 0 -201.5 -59t-151.5 -159t-57 -212q0 -133 77 -222t202 -89q85 0 163.5 29t133.5 75l-49 -395q-141 -58 -289 -58q-181 0 -319.5 85t-210.5 226t-72 314z" />
<glyph unicode="D" horiz-adv-x="1400" d="M37 0l246 1393h495q268 0 425 -160.5t157 -429.5q0 -166 -56.5 -313t-157 -255.5t-249 -171.5t-324.5 -63h-536zM444 336h164q92 0 166.5 35t122.5 95.5t74 139t26 166.5q0 127 -67 206t-195 79h-164z" />
<glyph unicode="E" horiz-adv-x="1044" d="M37 0l246 1393h794l-59 -336h-447l-32 -187h407l-59 -335h-408l-35 -199h447l-60 -336h-794z" />
<glyph unicode="F" horiz-adv-x="1024" d="M37 0l246 1393h794l-59 -336h-447l-43 -248h406l-60 -336h-405l-84 -473h-348z" />
<glyph unicode="G" horiz-adv-x="1443" d="M72 596q0 164 64 315t172 261.5t259.5 176.5t317.5 66q225 0 354 -55l-45 -377q-141 84 -350 84q-165 0 -286.5 -126t-121.5 -308q0 -134 75.5 -220.5t207.5 -86.5q103 0 194 66t109 173h-279l56 316h631q0 -3 1 -27t1 -31q0 -132 -31.5 -255.5t-95 -230.5t-153 -187.5 t-212.5 -126.5t-266 -46q-271 0 -436.5 172.5t-165.5 446.5z" />
<glyph unicode="H" horiz-adv-x="1507" d="M37 0l246 1393h348l-92 -523h526l92 523h348l-245 -1393h-349l95 535h-527l-94 -535h-348z" />
<glyph unicode="I" horiz-adv-x="632" d="M37 0l246 1393h348l-246 -1393h-348z" />
<glyph unicode="J" horiz-adv-x="901" d="M-33 55l53 375q87 -104 220 -104q68 0 103.5 41t51.5 127l158 899h358l-159 -910q-44 -255 -160.5 -380.5t-335.5 -125.5q-79 0 -163.5 23t-125.5 55z" />
<glyph unicode="K" horiz-adv-x="1179" d="M37 0l246 1393h348l-88 -504l334 504h421l-444 -582l209 -811h-385l-109 543l-114 -150l-70 -393h-348z" />
<glyph unicode="L" horiz-adv-x="970" d="M37 0l246 1393h348l-187 -1057h447l-60 -336h-794z" />
<glyph unicode="M" horiz-adv-x="1767" d="M37 0l246 1393h413l146 -949l479 949h444l-245 -1393h-349l138 774l-381 -774h-299l-109 772l-135 -772h-348z" />
<glyph unicode="N" horiz-adv-x="1439" d="M45 0l213 1210l-65 160l4 23h389l364 -787l140 787h348l-246 -1393h-328l-346 709l-125 -709h-348z" />
<glyph unicode="O" horiz-adv-x="1523" d="M72 600q0 162 66 313t175 260.5t257.5 175.5t306.5 66q269 0 439.5 -175t170.5 -447q0 -162 -65.5 -313t-174.5 -261t-257.5 -176t-307.5 -66q-177 0 -316.5 80t-216.5 222t-77 321zM436 635q0 -132 77.5 -220.5t203.5 -88.5q103 0 196.5 58.5t151 158.5t57.5 213 q0 133 -77.5 222t-204.5 89q-77 0 -151 -35.5t-129.5 -93.5t-89.5 -138t-34 -165z" />
<glyph unicode="P" horiz-adv-x="1159" d="M37 0l246 1393h477q183 0 296 -105t113 -287q0 -228 -147 -371t-381 -143h-170l-86 -487h-348zM530 823h146q56 0 92.5 38t36.5 104q0 44 -24 68t-64 24h-146z" />
<glyph unicode="Q" horiz-adv-x="1533" d="M72 600q0 162 66 313t175 260.5t257.5 175.5t306.5 66q269 0 439.5 -175t170.5 -447q0 -149 -54.5 -287t-150.5 -248l90 -115l-260 -211l-96 121q-158 -76 -334 -76q-177 0 -316.5 80t-216.5 222t-77 321zM436 635q0 -132 77.5 -220.5t203.5 -88.5q26 0 76 8l-121 153 l262 213l127 -163q61 103 61 219q0 133 -77.5 222t-204.5 89q-77 0 -151 -35.5t-129.5 -93.5t-89.5 -138t-34 -165z" />
<glyph unicode="R" horiz-adv-x="1218" d="M37 0l246 1393h487q185 0 300.5 -97t115.5 -266q0 -158 -85 -265t-210 -147q173 -105 173 -446q0 -80 -9 -172h-363q9 78 9 144q0 126 -33 212q-51 132 -170 131h-27l-86 -487h-348zM530 823h158q55 0 91 38.5t36 103.5q0 44 -22.5 68t-61.5 24h-160z" />
<glyph unicode="S" horiz-adv-x="1019" d="M45 43l66 363q45 -43 130.5 -74t161.5 -31q72 0 108 27t36 75q0 61 -62 105l-139 100q-103 74 -154 162.5t-51 206.5q0 204 143 321t386 117q84 0 178 -16t156 -41l-56 -359q-48 36 -126 64.5t-146 28.5q-73 0 -106 -32t-33 -77q0 -51 59 -92l131 -90q201 -138 201 -352 q0 -89 -33.5 -171t-98 -150.5t-172 -109.5t-243.5 -41q-186 0 -336 66z" />
<glyph unicode="T" horiz-adv-x="1058" d="M129 1057l59 336h967l-59 -336h-310l-186 -1057h-348l186 1057h-309z" />
<glyph unicode="U" horiz-adv-x="1316" d="M117 537l151 856h346l-155 -885q-4 -24 -4 -45q0 -57 28 -95q39 -54 123 -53q85 0 143.5 53.5t73.5 139.5l156 885h350l-151 -856q-47 -266 -206.5 -413t-402.5 -147q-251 0 -375 149q-90 108 -90 276q0 63 13 135z" />
<glyph unicode="V" horiz-adv-x="1347" d="M121 1393h373l127 -992l475 992h405l-741 -1393h-389z" />
<glyph unicode="W" horiz-adv-x="1906" d="M145 1393h377l10 -959l365 778l-14 181h348l57 -959l346 959h402l-592 -1393h-389l-60 739l-362 -739h-389z" />
<glyph unicode="X" horiz-adv-x="1249" d="M-100 0l512 713l-246 680h393l119 -422l266 422h424l-485 -680l260 -713h-393l-136 453l-292 -453h-422z" />
<glyph unicode="Y" horiz-adv-x="1161" d="M117 1393h375l131 -455l292 455h404l-569 -803l-105 -590h-348l104 594z" />
<glyph unicode="Z" horiz-adv-x="1042" d="M-25 0l52 295l559 762h-404l60 336h854l-54 -295l-573 -762h440l-59 -336h-875z" />
<glyph unicode="[" horiz-adv-x="604" d="M-47 -420l323 1833h439l-35 -194h-223l-256 -1444h225l-35 -195h-438z" />
<glyph unicode="\" horiz-adv-x="903" d="M174 1393h236l354 -1393h-234z" />
<glyph unicode="]" horiz-adv-x="602" d="M-145 -420l34 195h224l254 1444h-224l35 194h438l-323 -1833h-438z" />
<glyph unicode="^" horiz-adv-x="901" d="M154 1133l444 317l334 -317l-174 -191l-197 186l-262 -188z" />
<glyph unicode="_" horiz-adv-x="991" d="M-53 -266l37 205h794l-37 -205h-794z" />
<glyph unicode="`" horiz-adv-x="1189" d="M647 1425h260l88 -301h-227z" />
<glyph unicode="a" horiz-adv-x="1204" d="M35 444q0 153 68 293t189.5 228t264.5 88q176 0 268 -131l19 110h332l-181 -1032h-333l16 88q-114 -111 -256 -111q-115 0 -204.5 65t-136 170.5t-46.5 231.5zM381 479q0 -76 42 -126t112 -50q88 0 154.5 76t66.5 174q0 74 -42 124t-112 50q-88 0 -154.5 -75t-66.5 -173z " />
<glyph unicode="b" horiz-adv-x="1228" d="M2 0l250 1413h334l-86 -469q122 109 268 109q179 0 289 -127.5t110 -331.5q0 -163 -69.5 -304t-196 -227t-280.5 -86q-82 0 -155 36t-114 93l-16 -106h-334zM424 483q0 -75 43.5 -126.5t116.5 -51.5q93 0 162 74t69 170q0 74 -44 125t-114 51q-96 0 -164.5 -73 t-68.5 -169z" />
<glyph unicode="c" horiz-adv-x="868" d="M33 446q0 163 76.5 301t219 222t320.5 84q47 0 115.5 -10.5t99.5 -26.5l-61 -350q-77 61 -191 61q-96 0 -165.5 -74t-69.5 -172q0 -76 43.5 -127t116.5 -51q115 0 213 62l-62 -355q-70 -33 -188 -33q-210 0 -338.5 131t-128.5 338z" />
<glyph unicode="d" horiz-adv-x="1230" d="M35 446q0 117 41 227.5t110.5 194t169 134.5t209.5 51q95 0 169 -37t114 -94l86 491h334l-248 -1413h-336l16 88q-117 -111 -280 -111q-113 0 -202 65.5t-136 171.5t-47 232zM387 483q0 -74 44.5 -126t115.5 -52q94 0 163.5 74.5t69.5 169.5q0 74 -43.5 125t-115.5 51 q-93 0 -163.5 -73t-70.5 -169z" />
<glyph unicode="e" horiz-adv-x="1071" d="M35 442q0 172 74.5 311.5t209 219.5t302.5 80q186 0 295.5 -110t109.5 -279q0 -147 -33 -248h-637q7 -66 60 -103t139 -37q184 0 342 82l-55 -313q-151 -68 -340 -68q-204 0 -335.5 131.5t-131.5 333.5zM397 664h320v10q0 45 -34.5 74.5t-90.5 29.5q-65 0 -121 -32 t-74 -82z" />
<glyph unicode="f" horiz-adv-x="720" d="M76 696l51 285h131l10 63q32 194 145.5 292t299.5 98q75 0 121 -11l-60 -331q-32 16 -78 16q-81 0 -98 -86l-8 -41h166l-49 -285h-166l-123 -696h-334l123 696h-131z" />
<glyph unicode="g" horiz-adv-x="1245" d="M37 455q0 157 70 294.5t195 220.5t276 83q89 0 164 -37t118 -96l19 112h331l-147 -897q-50 -295 -218.5 -435t-451.5 -140q-96 0 -192 24.5t-142 53.5l62 335q61 -44 145.5 -73t163.5 -29q111 0 188.5 58t94.5 165l4 27q-63 -56 -129 -84.5t-152 -28.5q-177 0 -288 124 t-111 323zM401 500q0 -71 41.5 -118.5t108.5 -47.5q90 0 155.5 68t65.5 159q0 71 -41 118.5t-110 47.5q-88 0 -154 -68t-66 -159z" />
<glyph unicode="h" horiz-adv-x="1118" d="M2 0l250 1413h334l-84 -475q52 58 111 86.5t141 28.5q153 1 232 -107q58 -79 58 -187q0 -40 -8 -83l-118 -676h-334l102 578q4 22 4 41q0 41 -18 68q-26 40 -82 40q-55 0 -96 -36t-54 -101l-104 -590h-334z" />
<glyph unicode="i" horiz-adv-x="544" d="M2 0l180 1032h334l-180 -1032h-334zM207 1292q0 88 68 153.5t159 65.5q71 0 114.5 -46t43.5 -115q0 -91 -66.5 -155.5t-158.5 -64.5q-71 0 -115.5 45.5t-44.5 116.5z" />
<glyph unicode="j" horiz-adv-x="546" d="M-205 -430l60 334q26 -17 55 -17q72 0 86 78l188 1067h334l-188 -1069q-35 -199 -145 -301t-281 -102q-79 0 -109 10zM211 1292q0 88 68.5 153.5t160.5 65.5q71 0 114.5 -46t43.5 -115q0 -90 -67 -155t-158 -65q-73 0 -117.5 45.5t-44.5 116.5z" />
<glyph unicode="k" horiz-adv-x="1032" d="M2 0l250 1413h334l-127 -715l252 334h395l-358 -432l172 -600h-371l-78 373l-86 -97l-49 -276h-334z" />
<glyph unicode="l" horiz-adv-x="546" d="M2 0l250 1413h334l-250 -1413h-334z" />
<glyph unicode="m" horiz-adv-x="1708" d="M2 0l182 1032h334l-16 -104q54 62 112.5 93.5t139.5 31.5q104 0 177.5 -41t100.5 -119q116 160 309 160q145 0 229 -109q63 -81 64 -190q0 -37 -8 -78l-119 -676h-333l102 575q4 22 4 42q0 41 -18 69q-26 40 -84 40.5t-101 -40.5t-55 -111l-102 -575h-334l102 575 q4 23 4 42q0 41 -17 69q-25 41 -81 41q-57 0 -99 -36.5t-55 -100.5l-104 -590h-334z" />
<glyph unicode="n" horiz-adv-x="1118" d="M2 0l182 1032h334l-16 -94q51 60 109.5 87.5t142.5 27.5q153 1 232 -107q58 -79 58 -187q0 -40 -8 -83l-118 -676h-334l102 578q4 22 4 40q0 41 -18 69q-26 40 -84 40q-54 0 -94.5 -36t-53.5 -101l-104 -590h-334z" />
<glyph unicode="o" horiz-adv-x="1148" d="M31 449q0 120 48 231.5t128.5 193t191 130.5t228.5 49q203 0 334 -132t131 -337q0 -120 -48 -232t-128.5 -194t-191 -131.5t-228.5 -49.5q-202 0 -333.5 133t-131.5 339zM373 481q0 -75 42 -126.5t113 -51.5q88 0 155 76t67 174q0 74 -42 124t-112 50q-88 0 -155.5 -74.5 t-67.5 -171.5z" />
<glyph unicode="p" horiz-adv-x="1230" d="M-72 -420l256 1452h336l-16 -88q117 111 280 111q113 0 202 -65.5t136 -171.5t47 -232q0 -117 -41 -227.5t-110.5 -194t-169 -134t-209.5 -50.5q-95 0 -169 37t-114 94l-94 -531h-334zM424 483q0 -74 44 -125t116 -51q93 0 163 73t70 169q0 74 -44.5 126t-115.5 52 q-94 0 -163.5 -74.5t-69.5 -169.5z" />
<glyph unicode="q" horiz-adv-x="1228" d="M35 438q0 121 41.5 233.5t112.5 197.5t174 135.5t219 50.5q81 0 154 -36t114 -93l16 106h334l-256 -1452h-334l92 508q-121 -108 -268 -108q-179 0 -289 127.5t-110 330.5zM387 483q0 -74 44 -125t114 -51q96 0 164.5 73t68.5 169q0 75 -43.5 126.5t-116.5 51.5 q-93 0 -162 -74t-69 -170z" />
<glyph unicode="r" horiz-adv-x="770" d="M2 0l182 1032h334l-12 -80q47 53 99.5 77t127.5 24q53 0 88 -6l-63 -353q-72 33 -156 33q-56 0 -101.5 -36.5t-60.5 -100.5l-104 -590h-334z" />
<glyph unicode="s" horiz-adv-x="802" d="M-4 23l57 313q44 -30 108.5 -53t110.5 -23q74 0 74 62q0 38 -35 61l-118 84q-107 74 -107 225q0 155 116.5 258t315.5 103q140 0 246 -29l-57 -322q-42 27 -100.5 45.5t-102.5 18.5q-72 0 -72 -53q0 -35 37 -60l106 -75q119 -84 119 -236q0 -71 -27 -135.5t-78 -116.5 t-134 -82.5t-187 -30.5q-68 0 -144.5 12.5t-127.5 33.5z" />
<glyph unicode="t" horiz-adv-x="704" d="M82 0l133 748h-133l51 284h152l37 211l325 68l-49 -279h154l-52 -284h-151l-133 -748h-334z" />
<glyph unicode="u" horiz-adv-x="1120" d="M59 354l119 678h334l-102 -577q-4 -23 -4 -42q0 -41 18 -69q26 -40 82 -41q53 0 92.5 36.5t54.5 100.5l105 592h334l-183 -1032h-334l19 90q-48 -59 -107.5 -86t-146.5 -27q-152 -1 -231 107q-58 79 -58 187q0 39 8 83z" />
<glyph unicode="v" horiz-adv-x="1075" d="M72 1032h338l79 -616l304 616h362l-551 -1032h-348z" />
<glyph unicode="w" horiz-adv-x="1599" d="M84 1032h332l33 -626l227 479l-25 147h330l76 -626l248 626h360l-473 -1032h-348l-64 502l-239 -502h-348z" />
<glyph unicode="x" horiz-adv-x="1050" d="M-106 0l415 516l-233 516h373l92 -268l186 268h401l-413 -516l231 -516h-373l-92 270l-186 -270h-401z" />
<glyph unicode="y" horiz-adv-x="1083" d="M-57 -420l319 498l-190 954h360l72 -532l278 532h389l-843 -1452h-385z" />
<glyph unicode="z" horiz-adv-x="860" d="M-35 0l47 264l385 484h-278l51 284h690l-45 -264l-399 -483h313l-51 -285h-713z" />
<glyph unicode="{" horiz-adv-x="657" d="M-37 399l35 195h59q163 0 195 190l55 312q17 98 42 159.5t66 96.5t93 48t131 13h123l-35 -194h-53q-70 0 -106.5 -31.5t-49.5 -110.5l-61 -354q-17 -96 -68 -155.5t-127 -80.5q69 -21 98.5 -80t12.5 -155l-60 -332q-15 -82 10.5 -113.5t96.5 -31.5h53l-35 -195h-86 q-54 0 -93.5 5.5t-74.5 19.5t-54.5 37.5t-33.5 60t-11.5 86.5t11.5 117l54 301q32 192 -127 192h-60z" />
<glyph unicode="|" horiz-adv-x="477" d="M-47 -420l323 1833h213l-321 -1833h-215z" />
<glyph unicode="}" horiz-adv-x="655" d="M-139 -420l35 195h53q70 0 106 31t49 110l62 354q17 96 67.5 155.5t126.5 80.5q-144 43 -110 235l59 332q15 83 -10 114.5t-96 31.5h-53l34 194h86q54 0 93.5 -5.5t74.5 -19.5t54.5 -37.5t33.5 -60t11.5 -86.5t-11.5 -117l-53 -301q-32 -192 127 -192h59l-34 -195h-60 q-162 0 -194 -190l-56 -311q-17 -98 -42 -159.5t-66 -97t-92.5 -48.5t-130.5 -13h-123z" />
<glyph unicode="~" d="M49 440l45 262q134 72 240 72q63 0 123.5 -20t102 -43.5t103.5 -43.5t128 -20q86 0 219 78l-45 -264q-58 -37 -106 -53.5t-118 -16.5q-68 0 -131.5 20t-105.5 43.5t-102.5 43.5t-122.5 20q-20 0 -42 -4t-37 -7.5t-40 -14t-35 -15t-39.5 -19.5t-36.5 -18z" />
<glyph unicode="&#xa1;" horiz-adv-x="561" d="M-84 -360l240 888h223l-74 -888h-389zM100 799q0 106 77.5 180t184.5 74q83 0 133 -51.5t50 -133.5q0 -107 -77 -181.5t-183 -74.5q-84 0 -134.5 52t-50.5 135z" />
<glyph unicode="&#xa2;" d="M158 641q0 227 145 397.5t377 202.5l31 172h215l-33 -178q60 -9 96 -25l-61 -350q-48 34 -92 47l-70 -395q59 16 108 47l-61 -354q-43 -19 -106 -29l-31 -176h-213l33 186q-157 37 -247.5 159.5t-90.5 295.5zM502 676q0 -90 55 -139l61 348q-53 -33 -84.5 -89t-31.5 -120 z" />
<glyph unicode="&#xa3;" d="M45 0l51 295q59 16 104.5 78.5t45.5 171.5v12h-160l39 223h111v74q0 120 34.5 221t101 177.5t172 119.5t238.5 43q96 0 177 -17t122 -44l-67 -381q-34 34 -104 66t-136 32q-86 0 -132 -50.5t-46 -127.5q0 -45 10 -113h293l-39 -223h-225v-25q0 -67 -26 -117.5t-64 -78.5 h354l-59 -336h-795z" />
<glyph unicode="&#xa4;" horiz-adv-x="1116" d="M16 260l136 123q-21 61 -21 141q0 121 78 252l-90 123l203 176l90 -119q90 41 190 41q111 0 195 -49l139 121l160 -180l-135 -123q18 -55 18 -131q0 -128 -88 -258l102 -133l-200 -176l-111 135q-84 -37 -188 -37q-100 0 -170 39l-146 -125zM403 555q0 -50 31.5 -89.5 t91.5 -39.5q73 0 122.5 57t49.5 123q0 51 -31.5 91t-91.5 40q-71 0 -121.5 -58t-50.5 -124z" />
<glyph unicode="&#xa5;" d="M55 256l39 223h246l14 78h-243l39 223h157l-172 613h373l70 -455l233 455h403l-387 -613h140l-39 -223h-228l-14 -78h227l-39 -223h-227l-45 -256h-348l45 256h-244z" />
<glyph unicode="&#xa6;" horiz-adv-x="491" d="M-39 -420l113 641h215l-113 -641h-215zM178 807l107 606h213l-107 -606h-213z" />
<glyph unicode="&#xa7;" horiz-adv-x="1034" d="M-4 -184l63 358q71 -48 167.5 -77t168.5 -29q54 0 78.5 10t24.5 37q0 25 -54 53l-196 102q-88 46 -128 111.5t-40 130.5q0 101 36.5 168.5t108.5 122.5q-59 67 -59 194q0 65 16 123.5t54.5 112.5t97 93t148.5 62t204 23q182 0 326 -70l-62 -348q-54 32 -140.5 61 t-160.5 29q-52 0 -78 -14t-26 -37q0 -26 55 -53l191 -100q170 -87 170 -250q0 -158 -152 -277q65 -68 65 -196q0 -85 -31 -159t-90.5 -132t-156 -91.5t-219.5 -33.5q-110 0 -210.5 22t-170.5 54zM440 588q0 -16 19 -30.5t68 -42.5q8 -5 12 -7l18 -10q45 28 45 55 q0 21 -19.5 36.5t-78.5 47.5l-25 14q-22 -19 -30.5 -31.5t-8.5 -31.5z" />
<glyph unicode="&#xa8;" horiz-adv-x="1150" d="M414 1294q0 80 61 139.5t143 59.5q63 0 102.5 -42t39.5 -103q0 -83 -59.5 -141t-143.5 -58q-64 0 -103.5 40.5t-39.5 104.5zM858 1294q0 79 60.5 139t140.5 60q64 0 103.5 -41.5t39.5 -103.5q0 -83 -59.5 -141t-143.5 -58q-64 0 -102.5 40.5t-38.5 104.5z" />
<glyph unicode="&#xa9;" horiz-adv-x="1662" d="M80 596q0 175 70 335t188 276t281.5 184.5t343.5 68.5q143 0 264.5 -48.5t207.5 -134.5t134.5 -209.5t48.5 -268.5q0 -175 -69.5 -335t-187 -276.5t-281.5 -186t-345 -69.5q-190 0 -339.5 84t-232.5 235.5t-83 344.5zM281 596q0 -214 126 -343.5t341 -129.5 q139 0 262.5 51t213 139.5t141.5 214.5t52 271q0 214 -126 342.5t-341 128.5q-139 0 -262.5 -50.5t-213 -138.5t-141.5 -214t-52 -271zM444 643q0 127 67.5 238t183.5 177t251 66q111 0 184 -28l-47 -260q-69 53 -159 53q-94 0 -165 -68t-71 -157q0 -71 46.5 -119.5 t119.5 -48.5q116 0 182 53l-47 -254q-75 -35 -172 -35q-158 0 -265.5 107t-107.5 276z" />
<glyph unicode="&#xaa;" horiz-adv-x="737" d="M70 287l39 223h493l-39 -223h-493zM82 784q0 106 74 171t194 65q69 0 137 -29l2 13q9 51 -15.5 73.5t-84.5 22.5q-74 0 -188 -56l39 226q113 41 215 41q157 0 230 -79t46 -233l-69 -395h-242l6 41q-54 -57 -143 -57q-93 0 -147 59t-54 137zM334 801q0 -49 43 -49 q30 0 48.5 20t18.5 49q0 20 -12.5 32.5t-34.5 12.5q-28 0 -45.5 -19t-17.5 -46z" />
<glyph unicode="&#xab;" horiz-adv-x="1060" d="M57 582l414 481l147 -141l-241 -363l117 -360l-193 -99zM481 582l414 481l147 -141l-241 -363l117 -360l-193 -99z" />
<glyph unicode="&#xac;" d="M76 709l45 256h909l-108 -619h-265l64 363h-645z" />
<glyph unicode="&#xad;" horiz-adv-x="751" d="M70 426l55 315h553l-55 -315h-553z" />
<glyph unicode="&#xae;" horiz-adv-x="1226" d="M156 963q0 123 49 236t131 195t196 130.5t238 48.5q202 0 330.5 -128.5t128.5 -334.5q0 -163 -83 -302.5t-225.5 -220.5t-310.5 -81q-200 0 -327 127t-127 330zM291 967q0 -150 88.5 -241t238.5 -91q200 0 337 135t137 340q0 151 -89 241.5t-241 90.5q-130 0 -237.5 -60 t-170.5 -169t-63 -246zM426 754l102 583h222q81 0 132.5 -41.5t51.5 -109.5q0 -69 -40.5 -112.5t-94.5 -57.5q50 -31 69.5 -101t10.5 -161h-164q16 196 -84 196h-10l-35 -196h-160zM649 1106h68q20 0 33.5 12t13.5 33q0 15 -9.5 24t-23.5 9h-69z" />
<glyph unicode="&#xaf;" horiz-adv-x="1153" d="M477 1169l39 215h608l-39 -215h-608z" />
<glyph unicode="&#xb0;" horiz-adv-x="792" d="M129 1022q0 69 27 137.5t74.5 125.5t122.5 92.5t163 35.5q145 0 228 -87t83 -210q0 -94 -48 -182.5t-140.5 -148.5t-206.5 -60q-141 0 -222 87t-81 210zM319 1042q0 -53 33.5 -95t98.5 -42q77 0 128.5 60.5t51.5 128.5q0 54 -33.5 96.5t-95.5 42.5q-76 0 -129.5 -61 t-53.5 -130z" />
<glyph unicode="&#xb1;" d="M-10 76l45 256h909l-45 -256h-909zM106 739l46 256h315l59 342h277l-60 -342h318l-45 -256h-318l-47 -264h-276l47 264h-316z" />
<glyph unicode="&#xb2;" horiz-adv-x="636" d="M94 797l35 198l270 269q70 70 70 120q0 54 -70 54q-41 0 -93 -20.5t-95 -51.5l45 260q86 47 205 47q89 0 150 -36t86.5 -89t25.5 -118q0 -135 -121 -256l-147 -150h176l-39 -227h-498z" />
<glyph unicode="&#xb3;" horiz-adv-x="620" d="M102 825l50 262q59 -69 161 -69q50 0 77.5 17.5t27.5 45.5q0 41 -76 41h-119l39 228h119q29 0 49.5 13t20.5 36q0 39 -68 39q-89 0 -166 -47l45 256q65 26 162 26q127 0 201.5 -63t74.5 -164q0 -70 -36 -126.5t-95 -88.5q86 -57 86 -164q0 -119 -98.5 -202t-245.5 -83 q-55 0 -113.5 12t-95.5 31z" />
<glyph unicode="&#xb4;" horiz-adv-x="1153" d="M561 1124l197 301h276l-225 -301h-248z" />
<glyph unicode="&#xb5;" horiz-adv-x="1177" d="M-51 -420l256 1452h334l-103 -577q-12 -71 13.5 -111.5t82.5 -40.5q53 0 93 36.5t55 100.5l104 592h334l-182 -1032h-334l21 98q-98 -121 -267 -121h-4l-69 -397h-334z" />
<glyph unicode="&#xb6;" horiz-adv-x="1304" d="M47 561q0 219 133 345t408 126h260l-256 -1452h-238l113 643h-6q-207 0 -310.5 90.5t-103.5 247.5zM739 -420l256 1452h240l-256 -1452h-240z" />
<glyph unicode="&#xb7;" horiz-adv-x="579" d="M72 592q0 107 77 181.5t185 74.5q83 0 133.5 -52t50.5 -134q0 -106 -77.5 -180t-184.5 -74q-84 0 -134 51t-50 133z" />
<glyph unicode="&#xb8;" horiz-adv-x="1153" d="M291 -311l225 352h297l-184 -352h-338z" />
<glyph unicode="&#xb9;" horiz-adv-x="647" d="M82 797l41 227h184l72 410h-143l38 227h381l-112 -637h162l-41 -227h-582z" />
<glyph unicode="&#xba;" horiz-adv-x="774" d="M80 905q0 165 124 285.5t292 120.5q139 0 227 -88t88 -224q0 -166 -124.5 -287.5t-291.5 -121.5q-138 0 -226.5 88.5t-88.5 226.5zM82 287l39 223h495l-41 -223h-493zM326 930q0 -45 27 -77t71 -32q56 0 98.5 46.5t42.5 105.5q0 45 -26.5 75.5t-71.5 30.5q-57 0 -99 -45 t-42 -104z" />
<glyph unicode="&#xbb;" horiz-adv-x="1067" d="M14 240l242 362l-117 361l193 98l243 -481l-413 -482zM446 240l242 362l-117 361l193 98l244 -481l-414 -482z" />
<glyph unicode="&#xbc;" horiz-adv-x="1777" d="M61 528l41 228h185l71 409h-143l39 228h381l-113 -637h162l-41 -228h-582zM399 0l846 1393h256l-848 -1393h-254zM956 152l35 198l439 514h243l-86 -485h94l-39 -227h-94l-26 -152h-236l27 152h-357zM1237 379h117l30 166z" />
<glyph unicode="&#xbd;" horiz-adv-x="1773" d="M59 528l41 228h185l71 409h-143l39 228h381l-113 -637h162l-41 -228h-582zM397 0l846 1393h256l-848 -1393h-254zM1087 0l35 199l271 268q69 69 69 121q0 53 -69 53q-41 0 -93.5 -20.5t-95.5 -51.5l45 260q88 48 205 48q130 0 196 -71t66 -173q0 -135 -121 -256 l-147 -150h176l-39 -227h-498z" />
<glyph unicode="&#xbe;" horiz-adv-x="1703" d="M72 557l49 262q59 -69 162 -69q50 0 77 17.5t27 45.5q0 41 -76 41h-118l38 227h119q29 0 49.5 13t20.5 36q0 39 -68 39q-89 0 -166 -47l45 256q68 27 162 27q127 0 202 -63t75 -164q0 -70 -36 -126.5t-95 -88.5q86 -57 86 -164q0 -119 -98.5 -202t-245.5 -83 q-55 0 -113.5 12t-95.5 31zM326 0l845 1393h256l-847 -1393h-254zM883 152l35 198l438 514h243l-86 -485h95l-39 -227h-94l-27 -152h-236l27 152h-356zM1163 379h117l31 166z" />
<glyph unicode="&#xbf;" horiz-adv-x="864" d="M-43 -12q0 65 17 121t49.5 99t57 68t60.5 54l111 92q36 30 46 46t17 60h338q-11 -62 -19 -93t-24 -69t-41 -65.5t-65 -56.5l-98 -72q-78 -57 -78 -117q0 -88 110 -88q60 0 135.5 21.5t124.5 58.5l-65 -371q-75 -30 -133 -43.5t-129 -13.5q-106 0 -187.5 30t-130 82.5 t-72.5 117t-24 139.5zM315 799q0 106 78.5 180t184.5 74q84 0 134 -50.5t50 -134.5q0 -106 -77.5 -181t-182.5 -75q-85 0 -136 52t-51 135z" />
<glyph unicode="&#xc0;" horiz-adv-x="1347" d="M-117 0l742 1393h389l250 -1393h-375l-35 252h-444l-123 -252h-404zM584 588h217l-47 350zM594 1786h260l88 -301h-227z" />
<glyph unicode="&#xc1;" horiz-adv-x="1347" d="M-117 0l742 1393h389l250 -1393h-375l-35 252h-444l-123 -252h-404zM584 588h217l-47 350zM715 1485l196 301h277l-225 -301h-248z" />
<glyph unicode="&#xc2;" horiz-adv-x="1347" d="M-117 0l742 1393h389l250 -1393h-375l-35 252h-444l-123 -252h-404zM504 1485l213 301h346l106 -301h-229l-66 172l-122 -172h-248zM584 588h217l-47 350z" />
<glyph unicode="&#xc3;" horiz-adv-x="1347" d="M-117 0l742 1393h389l250 -1393h-375l-35 252h-444l-123 -252h-404zM537 1518l38 219q48 -51 136 -51q40 0 90 21.5t108 43t119 21.5q89 0 158 -43l-39 -220q-77 52 -148 52q-53 0 -155 -43t-164 -43q-44 0 -83 13t-60 30zM584 588h217l-47 350z" />
<glyph unicode="&#xc4;" horiz-adv-x="1347" d="M-117 0l742 1393h389l250 -1393h-375l-35 252h-444l-123 -252h-404zM475 1655q0 79 61.5 138.5t143.5 59.5q63 0 102 -41.5t39 -103.5q0 -83 -59.5 -141t-143.5 -58q-64 0 -103.5 41t-39.5 105zM584 588h217l-47 350zM920 1655q0 79 60 138.5t140 59.5q65 0 104.5 -41.5 t39.5 -103.5q0 -83 -59.5 -141t-143.5 -58q-64 0 -102.5 41t-38.5 105z" />
<glyph unicode="&#xc5;" horiz-adv-x="1347" d="M-117 0l742 1393h389l250 -1393h-375l-35 252h-444l-123 -252h-404zM584 588h217l-47 350zM645 1653q0 41 16 81.5t45.5 74.5t77.5 55.5t107 21.5q98 0 151.5 -53.5t53.5 -130.5q0 -89 -68 -160.5t-182 -71.5q-97 0 -149 53.5t-52 129.5zM793 1663q0 -25 15 -42t48 -17 q39 0 63.5 25.5t24.5 58.5q0 27 -16 46t-49 19q-39 0 -62.5 -28t-23.5 -62z" />
<glyph unicode="&#xc6;" horiz-adv-x="1882" d="M-121 0l1145 1393h891l-60 -336h-446l-33 -187h408l-60 -335h-407l-35 -199h447l-60 -336h-795l46 252h-394l-192 -252h-455zM768 588h211l65 356z" />
<glyph unicode="&#xc7;" horiz-adv-x="1130" d="M72 602q0 162 65.5 312t175 260t259.5 175.5t313 65.5q150 0 270 -57l-49 -400q-92 109 -260 109q-107 0 -201.5 -59t-151.5 -159t-57 -212q0 -133 77 -222t202 -89q85 0 163.5 29t133.5 75l-49 -395q-124 -49 -244 -55l-152 -291h-338l211 329q-173 68 -270.5 225.5 t-97.5 358.5z" />
<glyph unicode="&#xc8;" horiz-adv-x="1044" d="M37 0l246 1393h794l-59 -336h-447l-32 -187h407l-59 -335h-408l-35 -199h447l-60 -336h-794zM485 1786h260l89 -301h-228z" />
<glyph unicode="&#xc9;" horiz-adv-x="1044" d="M37 0l246 1393h794l-59 -336h-447l-32 -187h407l-59 -335h-408l-35 -199h447l-60 -336h-794zM573 1485l197 301h277l-226 -301h-248z" />
<glyph unicode="&#xca;" horiz-adv-x="1044" d="M37 0l246 1393h794l-59 -336h-447l-32 -187h407l-59 -335h-408l-35 -199h447l-60 -336h-794zM360 1485l213 301h347l106 -301h-229l-66 172l-123 -172h-248z" />
<glyph unicode="&#xcb;" horiz-adv-x="1044" d="M37 0l246 1393h794l-59 -336h-447l-32 -187h407l-59 -335h-408l-35 -199h447l-60 -336h-794zM342 1655q0 79 61.5 138.5t143.5 59.5q63 0 102 -41.5t39 -103.5q0 -83 -59.5 -141t-143.5 -58q-64 0 -103.5 41t-39.5 105zM786 1655q0 79 60.5 138.5t140.5 59.5 q64 0 103.5 -41.5t39.5 -103.5q0 -83 -59 -141t-143 -58q-64 0 -103 41t-39 105z" />
<glyph unicode="&#xcc;" horiz-adv-x="632" d="M37 0l246 1393h348l-246 -1393h-348zM246 1786h260l88 -301h-227z" />
<glyph unicode="&#xcd;" horiz-adv-x="632" d="M37 0l246 1393h348l-246 -1393h-348zM352 1485l197 301h276l-225 -301h-248z" />
<glyph unicode="&#xce;" horiz-adv-x="632" d="M37 0l246 1393h348l-246 -1393h-348zM139 1485l213 301h346l107 -301h-230l-65 172l-123 -172h-248z" />
<glyph unicode="&#xcf;" horiz-adv-x="632" d="M37 0l246 1393h348l-246 -1393h-348zM113 1655q0 79 61 138.5t143 59.5q63 0 102.5 -42t39.5 -103q0 -83 -59.5 -141t-143.5 -58q-64 0 -103.5 41t-39.5 105zM557 1655q0 79 60.5 138.5t140.5 59.5q64 0 103.5 -41.5t39.5 -103.5q0 -83 -59.5 -141t-143.5 -58 q-64 0 -102.5 41t-38.5 105z" />
<glyph unicode="&#xd0;" horiz-adv-x="1411" d="M47 0l103 588h-97l39 215h96l105 590h495q268 0 425 -160.5t157 -429.5q0 -166 -56 -312.5t-156.5 -255.5t-249 -172t-324.5 -63h-537zM455 336h163q122 0 212 61t134 158.5t44 216.5q0 127 -67 206t-196 79h-163l-45 -254h163l-36 -215h-166z" />
<glyph unicode="&#xd1;" horiz-adv-x="1443" d="M49 0l213 1210l-65 160l4 23h389l364 -787l140 787h348l-246 -1393h-328l-346 709l-125 -709h-348zM588 1518l39 219q48 -51 135 -51q40 0 90 21.5t108 43t119 21.5q89 0 158 -43l-39 -220q-77 52 -147 52q-53 0 -155.5 -43t-164.5 -43q-44 0 -83 13t-60 30z" />
<glyph unicode="&#xd2;" horiz-adv-x="1523" d="M72 600q0 162 66 313t175 260.5t257.5 175.5t306.5 66q269 0 439.5 -175t170.5 -447q0 -162 -65.5 -313t-174.5 -261t-257.5 -176t-307.5 -66q-177 0 -316.5 80t-216.5 222t-77 321zM436 635q0 -132 77.5 -220.5t203.5 -88.5q103 0 196.5 58.5t151 158.5t57.5 213 q0 133 -77.5 222t-204.5 89q-77 0 -151 -35.5t-129.5 -93.5t-89.5 -138t-34 -165zM692 1786h260l88 -301h-227z" />
<glyph unicode="&#xd3;" horiz-adv-x="1523" d="M72 600q0 162 66 313t175 260.5t257.5 175.5t306.5 66q269 0 439.5 -175t170.5 -447q0 -162 -65.5 -313t-174.5 -261t-257.5 -176t-307.5 -66q-177 0 -316.5 80t-216.5 222t-77 321zM436 635q0 -132 77.5 -220.5t203.5 -88.5q103 0 196.5 58.5t151 158.5t57.5 213 q0 133 -77.5 222t-204.5 89q-77 0 -151 -35.5t-129.5 -93.5t-89.5 -138t-34 -165zM805 1485l196 301h277l-225 -301h-248z" />
<glyph unicode="&#xd4;" horiz-adv-x="1523" d="M72 600q0 162 66 313t175 260.5t257.5 175.5t306.5 66q269 0 439.5 -175t170.5 -447q0 -162 -65.5 -313t-174.5 -261t-257.5 -176t-307.5 -66q-177 0 -316.5 80t-216.5 222t-77 321zM436 635q0 -132 77.5 -220.5t203.5 -88.5q103 0 196.5 58.5t151 158.5t57.5 213 q0 133 -77.5 222t-204.5 89q-77 0 -151 -35.5t-129.5 -93.5t-89.5 -138t-34 -165zM586 1485l213 301h346l106 -301h-229l-66 172l-122 -172h-248z" />
<glyph unicode="&#xd5;" horiz-adv-x="1523" d="M72 600q0 162 66 313t175 260.5t257.5 175.5t306.5 66q269 0 439.5 -175t170.5 -447q0 -162 -65.5 -313t-174.5 -261t-257.5 -176t-307.5 -66q-177 0 -316.5 80t-216.5 222t-77 321zM436 635q0 -132 77.5 -220.5t203.5 -88.5q103 0 196.5 58.5t151 158.5t57.5 213 q0 133 -77.5 222t-204.5 89q-77 0 -151 -35.5t-129.5 -93.5t-89.5 -138t-34 -165zM618 1518l39 219q48 -51 136 -51q40 0 90 21.5t108 43t119 21.5q89 0 158 -43l-39 -220q-77 52 -148 52q-53 0 -155 -43t-164 -43q-44 0 -83.5 13t-60.5 30z" />
<glyph unicode="&#xd6;" horiz-adv-x="1523" d="M72 600q0 162 66 313t175 260.5t257.5 175.5t306.5 66q269 0 439.5 -175t170.5 -447q0 -162 -65.5 -313t-174.5 -261t-257.5 -176t-307.5 -66q-177 0 -316.5 80t-216.5 222t-77 321zM436 635q0 -132 77.5 -220.5t203.5 -88.5q103 0 196.5 58.5t151 158.5t57.5 213 q0 133 -77.5 222t-204.5 89q-77 0 -151 -35.5t-129.5 -93.5t-89.5 -138t-34 -165zM559 1655q0 79 61.5 138.5t143.5 59.5q63 0 102 -41.5t39 -103.5q0 -83 -59.5 -141t-143.5 -58q-64 0 -103.5 41t-39.5 105zM1004 1655q0 79 60 138.5t140 59.5q65 0 104.5 -41.5 t39.5 -103.5q0 -83 -59.5 -141t-143.5 -58q-64 0 -102.5 41t-38.5 105z" />
<glyph unicode="&#xd7;" d="M-20 281l364 319l-235 305l210 174l234 -303l354 311l170 -202l-354 -312l242 -303l-209 -176l-244 305l-362 -321z" />
<glyph unicode="&#xd8;" horiz-adv-x="1523" d="M72 600q0 162 66 313t175 260.5t257.5 175.5t306.5 66q187 0 337 -94l132 152l143 -117l-137 -156q135 -166 135 -407q0 -162 -65.5 -313t-174.5 -261t-257.5 -176t-307.5 -66q-187 0 -334 91l-123 -140l-135 113l125 141q-143 169 -143 418zM436 635q0 -88 35 -160 l494 563q-60 29 -125 29q-77 0 -151 -35.5t-129.5 -93.5t-89.5 -138t-34 -165zM598 350q53 -24 119 -24q103 0 196.5 58.5t151 158.5t57.5 213q0 81 -30 149z" />
<glyph unicode="&#xd9;" horiz-adv-x="1316" d="M117 537l151 856h346l-155 -885q-15 -86 24 -139.5t123 -53.5q85 0 143.5 53.5t73.5 139.5l156 885h350l-151 -856q-47 -266 -206.5 -413t-402.5 -147q-251 0 -375 149t-77 411zM573 1786h261l88 -301h-228z" />
<glyph unicode="&#xda;" horiz-adv-x="1316" d="M117 537l151 856h346l-155 -885q-15 -86 24 -139.5t123 -53.5q85 0 143.5 53.5t73.5 139.5l156 885h350l-151 -856q-47 -266 -206.5 -413t-402.5 -147q-251 0 -375 149t-77 411zM688 1485l197 301h276l-225 -301h-248z" />
<glyph unicode="&#xdb;" horiz-adv-x="1316" d="M117 537l151 856h346l-155 -885q-15 -86 24 -139.5t123 -53.5q85 0 143.5 53.5t73.5 139.5l156 885h350l-151 -856q-47 -266 -206.5 -413t-402.5 -147q-251 0 -375 149t-77 411zM477 1485l213 301h346l107 -301h-230l-65 172l-123 -172h-248z" />
<glyph unicode="&#xdc;" horiz-adv-x="1316" d="M117 537l151 856h346l-155 -885q-15 -86 24 -139.5t123 -53.5q85 0 143.5 53.5t73.5 139.5l156 885h350l-151 -856q-47 -266 -206.5 -413t-402.5 -147q-251 0 -375 149t-77 411zM457 1655q0 79 61.5 138.5t143.5 59.5q63 0 102 -41.5t39 -103.5q0 -83 -59.5 -141 t-143.5 -58q-64 0 -103.5 41t-39.5 105zM901 1655q0 79 60.5 138.5t140.5 59.5q64 0 103.5 -41.5t39.5 -103.5q0 -83 -59.5 -141t-143.5 -58q-64 0 -102.5 41t-38.5 105z" />
<glyph unicode="&#xdd;" horiz-adv-x="1161" d="M117 1393h375l131 -455l292 455h404l-569 -803l-105 -590h-348l104 594zM582 1485l196 301h277l-226 -301h-247z" />
<glyph unicode="&#xde;" horiz-adv-x="1130" d="M37 0l246 1393h348l-43 -238h131q183 0 296 -103t113 -288q0 -228 -147.5 -371t-380.5 -143h-170l-45 -250h-348zM487 586h148q56 0 91.5 37.5t35.5 103.5q0 44 -23 68t-63 24h-146z" />
<glyph unicode="&#xdf;" horiz-adv-x="1146" d="M2 0l166 936q40 230 172.5 364t355.5 134q201 0 313.5 -104t112.5 -259q0 -112 -58 -206t-140 -140q137 -84 137 -274q0 -97 -34 -180t-98.5 -145.5t-163.5 -98t-222 -35.5q-55 0 -109 6l58 315q60 -6 77 -6q73 0 119.5 51.5t46.5 122.5q0 56 -30.5 86.5t-88.5 30.5h-75 l49 285h69q51 0 85 39t34 90q0 46 -28.5 74t-81.5 28q-62 0 -106 -40.5t-58 -121.5l-168 -952h-334z" />
<glyph unicode="&#xe0;" horiz-adv-x="1204" d="M35 444q0 153 68 293t189.5 228t264.5 88q176 0 268 -131l19 110h332l-181 -1032h-333l16 88q-114 -111 -256 -111q-115 0 -204.5 65t-136 170.5t-46.5 231.5zM381 479q0 -76 42 -126t112 -50q88 0 154.5 76t66.5 174q0 74 -42 124t-112 50q-88 0 -154.5 -75t-66.5 -173z M457 1425h260l88 -301h-227z" />
<glyph unicode="&#xe1;" horiz-adv-x="1204" d="M35 444q0 153 68 293t189.5 228t264.5 88q176 0 268 -131l19 110h332l-181 -1032h-333l16 88q-114 -111 -256 -111q-115 0 -204.5 65t-136 170.5t-46.5 231.5zM381 479q0 -76 42 -126t112 -50q88 0 154.5 76t66.5 174q0 74 -42 124t-112 50q-88 0 -154.5 -75t-66.5 -173z M551 1124l197 301h276l-225 -301h-248z" />
<glyph unicode="&#xe2;" horiz-adv-x="1204" d="M35 444q0 153 68 293t189.5 228t264.5 88q176 0 268 -131l19 110h332l-181 -1032h-333l16 88q-114 -111 -256 -111q-115 0 -204.5 65t-136 170.5t-46.5 231.5zM365 1124l213 301h346l106 -301h-229l-66 172l-123 -172h-247zM381 479q0 -76 42 -126t112 -50q88 0 154.5 76 t66.5 174q0 74 -42 124t-112 50q-88 0 -154.5 -75t-66.5 -173z" />
<glyph unicode="&#xe3;" horiz-adv-x="1204" d="M35 444q0 153 68 293t189.5 228t264.5 88q176 0 268 -131l19 110h332l-181 -1032h-333l16 88q-114 -111 -256 -111q-115 0 -204.5 65t-136 170.5t-46.5 231.5zM381 479q0 -76 42 -126t112 -50q88 0 154.5 76t66.5 174q0 74 -42 124t-112 50q-88 0 -154.5 -75t-66.5 -173z M397 1157l39 219q48 -51 135 -51q40 0 90 21.5t108.5 43t119.5 21.5q89 0 158 -43l-39 -219q-76 51 -148 51q-53 0 -155 -43t-164 -43q-44 0 -83.5 13t-60.5 30z" />
<glyph unicode="&#xe4;" horiz-adv-x="1204" d="M35 444q0 153 68 293t189.5 228t264.5 88q176 0 268 -131l19 110h332l-181 -1032h-333l16 88q-114 -111 -256 -111q-115 0 -204.5 65t-136 170.5t-46.5 231.5zM336 1294q0 79 61.5 139t143.5 60q63 0 102 -41.5t39 -103.5q0 -83 -59.5 -141t-143.5 -58q-64 0 -103.5 40.5 t-39.5 104.5zM381 479q0 -76 42 -126t112 -50q88 0 154.5 76t66.5 174q0 74 -42 124t-112 50q-88 0 -154.5 -75t-66.5 -173zM780 1294q0 79 60.5 139t140.5 60q64 0 103.5 -41.5t39.5 -103.5q0 -83 -59 -141t-143 -58q-64 0 -103 40.5t-39 104.5z" />
<glyph unicode="&#xe5;" horiz-adv-x="1204" d="M35 444q0 153 68 293t189.5 228t264.5 88q176 0 268 -131l19 110h332l-181 -1032h-333l16 88q-114 -111 -256 -111q-115 0 -204.5 65t-136 170.5t-46.5 231.5zM381 479q0 -76 42 -126t112 -50q88 0 154.5 76t66.5 174q0 74 -42 124t-112 50q-88 0 -154.5 -75t-66.5 -173z M506 1292q0 41 16 81.5t45 75t77.5 56t107.5 21.5q97 0 150.5 -54t53.5 -131q0 -89 -67.5 -160t-181.5 -71q-97 0 -149 53t-52 129zM653 1303q0 -25 15.5 -42.5t48.5 -17.5q39 0 63.5 25.5t24.5 58.5q0 27 -16.5 46.5t-49.5 19.5q-39 0 -62.5 -28t-23.5 -62z" />
<glyph unicode="&#xe6;" horiz-adv-x="1646" d="M-10 281q0 151 110 253.5t279 102.5q111 0 186 -53l4 26q23 148 -131 148q-127 0 -264 -72l55 311q147 56 289 56q240 0 330 -133q162 133 356 133q124 0 216.5 -57.5t138 -149.5t45.5 -203q0 -121 -37 -227h-635q7 -66 61 -103t140 -37q184 0 342 82l-56 -313 q-140 -68 -366 -68q-121 0 -210.5 39.5t-131.5 108.5q-83 -70 -171.5 -109t-213.5 -39q-87 0 -153.5 26t-105 69.5t-58 96.5t-19.5 112zM322 295q0 -33 22 -55.5t57 -22.5q47 0 80 32t33 75q0 33 -22 55t-58 22q-44 0 -78 -31.5t-34 -74.5zM975 664h319v12q0 44 -34.5 73 t-90.5 29q-65 0 -120 -32.5t-74 -81.5z" />
<glyph unicode="&#xe7;" horiz-adv-x="868" d="M33 446q0 163 76.5 301t219 222t320.5 84q47 0 115.5 -10.5t99.5 -26.5l-61 -350q-77 61 -191 61q-96 0 -165.5 -74t-69.5 -172q0 -76 43.5 -127t116.5 -51q115 0 213 62l-62 -355q-54 -22 -123 -28l-151 -293h-338l211 331q-119 54 -186.5 166t-67.5 260z" />
<glyph unicode="&#xe8;" horiz-adv-x="1071" d="M35 442q0 172 74.5 311.5t209 219.5t302.5 80q186 0 295.5 -110t109.5 -279q0 -147 -33 -248h-637q7 -66 60 -103t139 -37q184 0 342 82l-55 -313q-151 -68 -340 -68q-204 0 -335.5 131.5t-131.5 333.5zM397 664h320v10q0 45 -34.5 74.5t-90.5 29.5q-65 0 -121 -32 t-74 -82zM436 1425h260l88 -301h-227z" />
<glyph unicode="&#xe9;" horiz-adv-x="1071" d="M35 442q0 172 74.5 311.5t209 219.5t302.5 80q186 0 295.5 -110t109.5 -279q0 -147 -33 -248h-637q7 -66 60 -103t139 -37q184 0 342 82l-55 -313q-151 -68 -340 -68q-204 0 -335.5 131.5t-131.5 333.5zM397 664h320v10q0 45 -34.5 74.5t-90.5 29.5q-65 0 -121 -32 t-74 -82zM539 1124l196 301h277l-226 -301h-247z" />
<glyph unicode="&#xea;" horiz-adv-x="1071" d="M35 442q0 172 74.5 311.5t209 219.5t302.5 80q186 0 295.5 -110t109.5 -279q0 -147 -33 -248h-637q7 -66 60 -103t139 -37q184 0 342 82l-55 -313q-151 -68 -340 -68q-204 0 -335.5 131.5t-131.5 333.5zM330 1124l213 301h346l106 -301h-229l-66 172l-122 -172h-248z M397 664h320v10q0 45 -34.5 74.5t-90.5 29.5q-65 0 -121 -32t-74 -82z" />
<glyph unicode="&#xeb;" horiz-adv-x="1071" d="M35 442q0 172 74.5 311.5t209 219.5t302.5 80q186 0 295.5 -110t109.5 -279q0 -147 -33 -248h-637q7 -66 60 -103t139 -37q184 0 342 82l-55 -313q-151 -68 -340 -68q-204 0 -335.5 131.5t-131.5 333.5zM299 1294q0 79 61.5 139t143.5 60q63 0 102 -41.5t39 -103.5 q0 -83 -59.5 -141t-143.5 -58q-64 0 -103.5 40.5t-39.5 104.5zM397 664h320v10q0 45 -34.5 74.5t-90.5 29.5q-65 0 -121 -32t-74 -82zM743 1294q0 79 60.5 139t140.5 60q64 0 103.5 -41.5t39.5 -103.5q0 -83 -59 -141t-143 -58q-64 0 -103 40.5t-39 104.5z" />
<glyph unicode="&#xec;" horiz-adv-x="546" d="M2 0l182 1032h334l-182 -1032h-334zM139 1425h260l88 -301h-227z" />
<glyph unicode="&#xed;" horiz-adv-x="546" d="M2 0l182 1032h334l-182 -1032h-334zM242 1124l196 301h277l-226 -301h-247z" />
<glyph unicode="&#xee;" horiz-adv-x="546" d="M2 0l182 1032h334l-182 -1032h-334zM33 1124l213 301h346l106 -301h-229l-66 172l-122 -172h-248z" />
<glyph unicode="&#xef;" horiz-adv-x="546" d="M2 0l182 1032h334l-182 -1032h-334zM6 1294q0 79 61.5 139t143.5 60q63 0 102 -41.5t39 -103.5q0 -83 -59 -141t-143 -58q-64 0 -104 41t-40 104zM451 1294q0 79 60 139t140 60q65 0 104.5 -41.5t39.5 -103.5q0 -83 -59.5 -141t-143.5 -58q-64 0 -102.5 40.5t-38.5 104.5 z" />
<glyph unicode="&#xf0;" horiz-adv-x="1097" d="M27 422q0 108 42 206t111.5 169t158.5 119t185 65l-176 367h-51l8 45h467l-8 -45h-29l211 -508q44 -103 63 -168.5t19 -143.5q0 -107 -45 -208t-120.5 -176.5t-181.5 -121t-222 -45.5q-189 0 -310.5 128.5t-121.5 316.5zM385 459q0 -57 33 -95t86 -38q69 0 118.5 55 t49.5 129q0 59 -29.5 96t-83.5 37q-71 0 -122.5 -54.5t-51.5 -129.5z" />
<glyph unicode="&#xf1;" horiz-adv-x="1118" d="M2 0l182 1032h334l-16 -94q51 60 109.5 87.5t142.5 27.5q153 0 232 -107.5t50 -269.5l-118 -676h-334l102 578q12 69 -14.5 109t-83.5 40q-54 0 -94.5 -36t-53.5 -101l-104 -590h-334zM358 1157l39 219q48 -51 135 -51q40 0 90 21.5t108.5 43t119.5 21.5q89 0 158 -43 l-39 -219q-76 51 -148 51q-53 0 -155 -43t-164 -43q-44 0 -83.5 13t-60.5 30z" />
<glyph unicode="&#xf2;" horiz-adv-x="1148" d="M31 449q0 120 48 231.5t128.5 193t191 130.5t228.5 49q203 0 334 -132t131 -337q0 -120 -48 -232t-128.5 -194t-191 -131.5t-228.5 -49.5q-202 0 -333.5 133t-131.5 339zM373 481q0 -75 42 -126.5t113 -51.5q88 0 155 76t67 174q0 74 -42 124t-112 50q-88 0 -155.5 -74.5 t-67.5 -171.5zM457 1425h260l88 -301h-227z" />
<glyph unicode="&#xf3;" horiz-adv-x="1148" d="M31 449q0 120 48 231.5t128.5 193t191 130.5t228.5 49q203 0 334 -132t131 -337q0 -120 -48 -232t-128.5 -194t-191 -131.5t-228.5 -49.5q-202 0 -333.5 133t-131.5 339zM373 481q0 -75 42 -126.5t113 -51.5q88 0 155 76t67 174q0 74 -42 124t-112 50q-88 0 -155.5 -74.5 t-67.5 -171.5zM557 1124l197 301h276l-225 -301h-248z" />
<glyph unicode="&#xf4;" horiz-adv-x="1148" d="M31 449q0 120 48 231.5t128.5 193t191 130.5t228.5 49q203 0 334 -132t131 -337q0 -120 -48 -232t-128.5 -194t-191 -131.5t-228.5 -49.5q-202 0 -333.5 133t-131.5 339zM336 1124l213 301h346l106 -301h-229l-65 172l-123 -172h-248zM373 481q0 -75 42 -126.5t113 -51.5 q88 0 155 76t67 174q0 74 -42 124t-112 50q-88 0 -155.5 -74.5t-67.5 -171.5z" />
<glyph unicode="&#xf5;" horiz-adv-x="1148" d="M31 449q0 120 48 231.5t128.5 193t191 130.5t228.5 49q203 0 334 -132t131 -337q0 -120 -48 -232t-128.5 -194t-191 -131.5t-228.5 -49.5q-202 0 -333.5 133t-131.5 339zM369 1157l39 219q48 -51 135 -51q40 0 90 21.5t108 43t119 21.5q89 0 158 -43l-39 -219 q-76 51 -148 51q-53 0 -155 -43t-164 -43q-44 0 -83 13t-60 30zM373 481q0 -75 42 -126.5t113 -51.5q88 0 155 76t67 174q0 74 -42 124t-112 50q-88 0 -155.5 -74.5t-67.5 -171.5z" />
<glyph unicode="&#xf6;" horiz-adv-x="1148" d="M31 449q0 120 48 231.5t128.5 193t191 130.5t228.5 49q203 0 334 -132t131 -337q0 -120 -48 -232t-128.5 -194t-191 -131.5t-228.5 -49.5q-202 0 -333.5 133t-131.5 339zM313 1294q0 79 61.5 139t143.5 60q63 0 102 -41.5t39 -103.5q0 -83 -59 -141t-143 -58 q-64 0 -104 41t-40 104zM373 481q0 -75 42 -126.5t113 -51.5q88 0 155 76t67 174q0 74 -42 124t-112 50q-88 0 -155.5 -74.5t-67.5 -171.5zM758 1294q0 79 60 139t140 60q65 0 104.5 -41.5t39.5 -103.5q0 -83 -59.5 -141t-143.5 -58q-64 0 -102.5 40.5t-38.5 104.5z" />
<glyph unicode="&#xf7;" d="M53 457l45 256h910l-45 -256h-910zM285 133q0 79 59.5 135t144.5 56q64 0 104 -39t40 -101q0 -81 -60 -135.5t-143 -54.5q-65 0 -105 39t-40 100zM434 977q0 82 59 136t144 54q64 0 104.5 -38.5t40.5 -98.5q0 -82 -59.5 -137t-142.5 -55q-65 0 -105.5 39t-40.5 100z" />
<glyph unicode="&#xf8;" horiz-adv-x="1148" d="M31 39l96 108q-96 126 -96 302q0 120 48 231.5t128.5 193t191 130.5t228.5 49q134 0 243 -64l93 107l141 -115l-100 -113q88 -122 88 -284q0 -120 -48 -232t-128.5 -194t-191 -131.5t-228.5 -49.5q-128 0 -238 60l-96 -109zM346 477q0 -36 10 -69l299 340q-32 8 -55 8 q-98 0 -176 -85t-78 -194zM477 281q25 -7 47 -7q100 0 176 86t76 199q0 25 -6 49z" />
<glyph unicode="&#xf9;" horiz-adv-x="1120" d="M59 354l119 678h334l-102 -577q-12 -71 13.5 -111.5t82.5 -40.5q53 0 92.5 36.5t54.5 100.5l105 592h334l-183 -1032h-334l19 90q-48 -59 -107.5 -86t-146.5 -27q-152 0 -231 107.5t-50 269.5zM412 1425h260l88 -301h-228z" />
<glyph unicode="&#xfa;" horiz-adv-x="1120" d="M59 354l119 678h334l-102 -577q-12 -71 13.5 -111.5t82.5 -40.5q53 0 92.5 36.5t54.5 100.5l105 592h334l-183 -1032h-334l19 90q-48 -59 -107.5 -86t-146.5 -27q-152 0 -231 107.5t-50 269.5zM524 1124l197 301h276l-225 -301h-248z" />
<glyph unicode="&#xfb;" horiz-adv-x="1120" d="M59 354l119 678h334l-102 -577q-12 -71 13.5 -111.5t82.5 -40.5q53 0 92.5 36.5t54.5 100.5l105 592h334l-183 -1032h-334l19 90q-48 -59 -107.5 -86t-146.5 -27q-152 0 -231 107.5t-50 269.5zM307 1124l213 301h346l107 -301h-230l-65 172l-123 -172h-248z" />
<glyph unicode="&#xfc;" horiz-adv-x="1120" d="M59 354l119 678h334l-102 -577q-12 -71 13.5 -111.5t82.5 -40.5q53 0 92.5 36.5t54.5 100.5l105 592h334l-183 -1032h-334l19 90q-48 -59 -107.5 -86t-146.5 -27q-152 0 -231 107.5t-50 269.5zM285 1294q0 80 61 139.5t143 59.5q63 0 102.5 -42t39.5 -103 q0 -83 -59.5 -141t-143.5 -58q-64 0 -103.5 40.5t-39.5 104.5zM729 1294q0 79 60.5 139t140.5 60q64 0 103.5 -41.5t39.5 -103.5q0 -83 -59.5 -141t-143.5 -58q-64 0 -102.5 40.5t-38.5 104.5z" />
<glyph unicode="&#xfd;" horiz-adv-x="1083" d="M-57 -420l319 498l-190 954h360l72 -532l278 532h389l-843 -1452h-385zM500 1124l196 301h277l-225 -301h-248z" />
<glyph unicode="&#xfe;" horiz-adv-x="1230" d="M-72 -420l324 1833h336l-84 -469q117 111 280 111q113 0 202 -65.5t136 -171.5t47 -232q0 -117 -41 -227.5t-110.5 -194t-169 -134t-209.5 -50.5q-95 0 -169 37t-114 94l-94 -531h-334zM424 483q0 -74 44 -125t116 -51q93 0 163 73t70 169q0 74 -44.5 126t-115.5 52 q-94 0 -163.5 -74.5t-69.5 -169.5z" />
<glyph unicode="&#xff;" horiz-adv-x="1083" d="M-57 -420l319 498l-190 954h360l72 -532l278 532h389l-843 -1452h-385zM262 1294q0 79 61.5 139t143.5 60q63 0 102 -41.5t39 -103.5q0 -83 -59 -141t-143 -58q-64 0 -104 41t-40 104zM707 1294q0 79 60 139t140 60q65 0 104.5 -41.5t39.5 -103.5q0 -83 -59.5 -141 t-143.5 -58q-64 0 -102.5 40.5t-38.5 104.5z" />
<glyph unicode="&#x152;" horiz-adv-x="2007" d="M72 600q0 162 66 313t175 260.5t257.5 175.5t306.5 66q205 0 352 -106l16 84h795l-60 -336h-446l-33 -187h408l-60 -335h-407l-35 -199h446l-59 -336h-795l9 51q-154 -74 -326 -74q-177 0 -316 80t-216.5 222t-77.5 321zM436 635q0 -132 77.5 -220.5t203.5 -88.5 q103 0 196.5 58.5t151 158.5t57.5 213q0 133 -77.5 222t-204.5 89q-77 0 -151 -35.5t-129.5 -93.5t-89.5 -138t-34 -165z" />
<glyph unicode="&#x153;" horiz-adv-x="1785" d="M31 449q0 207 132 373t329 214q73 17 135 17q200 0 334 -131q157 131 374 131q186 0 296 -110t110 -279q0 -147 -33 -248h-637q7 -66 60 -103t139 -37q182 0 340 82l-56 -313q-151 -68 -337 -68q-211 0 -347 142q-165 -142 -385 -142q-139 0 -244.5 68t-157.5 174 t-52 230zM373 481q0 -75 42 -126.5t113 -51.5q88 0 155 76t67 174q0 74 -42 124t-112 50q-88 0 -155.5 -74.5t-67.5 -171.5zM1112 664h320v10q0 45 -34.5 74.5t-90.5 29.5q-65 0 -121 -32t-74 -82z" />
<glyph unicode="&#x178;" horiz-adv-x="1161" d="M117 1393h375l131 -455l292 455h404l-569 -803l-105 -590h-348l104 594zM354 1655q0 79 61.5 138.5t143.5 59.5q63 0 102 -41.5t39 -103.5q0 -83 -59 -141t-143 -58q-64 0 -104 41t-40 105zM799 1655q0 79 60 138.5t140 59.5q65 0 104.5 -41.5t39.5 -103.5 q0 -83 -59.5 -141t-143.5 -58q-64 0 -102.5 41t-38.5 105z" />
<glyph unicode="&#x2c6;" horiz-adv-x="1153" d="M442 1124l213 301h346l107 -301h-229l-66 172l-123 -172h-248z" />
<glyph unicode="&#x2dc;" horiz-adv-x="1153" d="M475 1157l39 219q48 -51 135 -51q40 0 90 21.5t108.5 43t119.5 21.5q88 0 157 -43l-39 -219q-76 51 -147 51q-53 0 -155.5 -43t-164.5 -43q-44 0 -83 13t-60 30z" />
<glyph unicode="&#x2000;" horiz-adv-x="943" />
<glyph unicode="&#x2001;" horiz-adv-x="1886" />
<glyph unicode="&#x2002;" horiz-adv-x="943" />
<glyph unicode="&#x2003;" horiz-adv-x="1886" />
<glyph unicode="&#x2004;" horiz-adv-x="628" />
<glyph unicode="&#x2005;" horiz-adv-x="471" />
<glyph unicode="&#x2006;" horiz-adv-x="314" />
<glyph unicode="&#x2007;" horiz-adv-x="314" />
<glyph unicode="&#x2008;" horiz-adv-x="235" />
<glyph unicode="&#x2009;" horiz-adv-x="377" />
<glyph unicode="&#x200a;" horiz-adv-x="104" />
<glyph unicode="&#x2010;" horiz-adv-x="751" d="M70 426l55 315h553l-55 -315h-553z" />
<glyph unicode="&#x2011;" horiz-adv-x="751" d="M70 426l55 315h553l-55 -315h-553z" />
<glyph unicode="&#x2012;" horiz-adv-x="751" d="M70 426l55 315h553l-55 -315h-553z" />
<glyph unicode="&#x2013;" horiz-adv-x="1185" d="M74 457l45 256h987l-45 -256h-987z" />
<glyph unicode="&#x2014;" horiz-adv-x="1464" d="M74 457l45 256h1265l-45 -256h-1265z" />
<glyph unicode="&#x2018;" horiz-adv-x="569" d="M102 784l222 609h307l-160 -609h-369z" />
<glyph unicode="&#x2019;" horiz-adv-x="561" d="M119 784l160 609h368l-221 -609h-307z" />
<glyph unicode="&#x201a;" horiz-adv-x="567" d="M-76 -221l160 608h369l-222 -608h-307z" />
<glyph unicode="&#x201c;" horiz-adv-x="1052" d="M102 784l222 609h307l-160 -609h-369zM586 784l221 609h307l-160 -609h-368z" />
<glyph unicode="&#x201d;" horiz-adv-x="1044" d="M119 784l160 609h368l-221 -609h-307zM602 784l160 609h368l-221 -609h-307z" />
<glyph unicode="&#x201e;" horiz-adv-x="1052" d="M-76 -221l160 608h369l-222 -608h-307zM410 -221l159 608h369l-221 -608h-307z" />
<glyph unicode="&#x2022;" horiz-adv-x="817" d="M109 539q0 137 102.5 232t247.5 95q111 0 178.5 -67t67.5 -172q0 -137 -102.5 -232.5t-244.5 -95.5q-114 0 -181.5 67t-67.5 173z" />
<glyph unicode="&#x2026;" horiz-adv-x="1687" d="M-6 164q0 107 77 181.5t185 74.5q83 0 133.5 -52.5t50.5 -134.5q0 -106 -77.5 -179.5t-184.5 -73.5q-84 0 -134 51t-50 133zM555 164q0 107 77 181.5t183 74.5q84 0 135 -52t51 -135q0 -106 -78 -179.5t-186 -73.5q-83 0 -132.5 51t-49.5 133zM1116 164q0 107 77 181.5 t183 74.5q84 0 134.5 -52t50.5 -135q0 -106 -78 -179.5t-185 -73.5q-83 0 -132.5 51t-49.5 133z" />
<glyph unicode="&#x202f;" horiz-adv-x="377" />
<glyph unicode="&#x2039;" horiz-adv-x="636" d="M57 582l414 481l147 -141l-241 -363l117 -360l-193 -99z" />
<glyph unicode="&#x203a;" horiz-adv-x="634" d="M14 240l242 362l-117 361l193 98l243 -481l-413 -482z" />
<glyph unicode="&#x205f;" horiz-adv-x="471" />
<glyph unicode="&#x20ac;" d="M-4 416l94 223h78l12 78h-129l94 223h78q60 220 223.5 347.5t384.5 127.5q70 0 162.5 -22.5t153.5 -59.5l-152 -319q-31 27 -91.5 44t-112.5 17q-157 0 -216 -135h388l-95 -223h-340l-12 -78h315l-94 -223h-241q21 -99 149 -99q131 0 254 91l55 -316q-162 -115 -350 -115 q-212 0 -342 120t-127 319h-139z" />
<glyph unicode="&#x2122;" horiz-adv-x="1697" d="M211 1212l33 181h534l-33 -181h-176l-96 -538h-184l94 538h-172zM768 674l127 719h215l98 -480l262 480h242l-127 -719h-186l67 385l-209 -385h-161l-76 383l-68 -383h-184z" />
<glyph unicode="&#x25fc;" horiz-adv-x="1034" d="M0 0v1034h1034v-1034h-1034z" />
</font>
</defs>
</svg>
