<?xml version="1.0" standalone="no"?>
<!DOCTYPE svg PUBLIC "-//W3C//DTD SVG 1.1//EN" "http://www.w3.org/Graphics/SVG/1.1/DTD/svg11.dtd" >
<svg xmlns="http://www.w3.org/2000/svg" xmlns:xlink="http://www.w3.org/1999/xlink" version="1.1">
<metadata></metadata>
<defs>
<font id="niveau_groteskmedium_italic" horiz-adv-x="1064" >
<font-face units-per-em="2048" ascent="1536" descent="-512" />
<missing-glyph horiz-adv-x="462" />
<glyph unicode="&#xfb01;" horiz-adv-x="1163" d="M94 0l146 815h-144l35 193h143l15 88q28 164 125.5 251t253.5 87q72 0 123 -15l-39 -227q-40 22 -95 22q-123 0 -147 -131l-12 -75h215l-33 -193h-215l-146 -815h-225zM707 0l176 1008h225l-176 -1008h-225zM909 1294q0 64 49.5 112t114.5 48q53 0 85 -34t32 -85 q0 -65 -48.5 -112t-115.5 -47q-52 0 -84.5 33.5t-32.5 84.5z" />
<glyph unicode="&#xfb02;" horiz-adv-x="1161" d="M94 0l146 815h-144l35 193h143l15 88q28 164 125.5 251t253.5 87q72 0 123 -15l-39 -227q-40 22 -95 22q-123 0 -147 -131l-12 -75h215l-33 -193h-215l-146 -815h-225zM702 0l250 1413h226l-250 -1413h-226z" />
<glyph horiz-adv-x="0" />
<glyph horiz-adv-x="682" />
<glyph unicode=" "  horiz-adv-x="462" />
<glyph unicode="&#x09;" horiz-adv-x="462" />
<glyph unicode="&#xa0;" horiz-adv-x="462" />
<glyph unicode="!" horiz-adv-x="538" d="M29 115q0 76 55.5 131t132.5 55q61 0 98 -38t37 -99q0 -76 -56.5 -130t-133.5 -54q-60 0 -96.5 37.5t-36.5 97.5zM168 461l113 932h258l-213 -932h-158z" />
<glyph unicode="&#x22;" horiz-adv-x="833" d="M180 932l70 461h233l-94 -461h-209zM559 932l68 461h233l-92 -461h-209z" />
<glyph unicode="#" horiz-adv-x="1325" d="M37 0l178 383h-172l25 133h208l162 348h-250l23 133h289l184 396h166l-184 -396h305l184 396h166l-184 -396h178l-23 -133h-219l-162 -348h258l-22 -133h-297l-178 -383h-164l178 383h-305l-178 -383h-166zM442 516h306l161 348h-305z" />
<glyph unicode="$" horiz-adv-x="983" d="M39 57l45 252q45 -47 126 -79.5t169 -32.5h12l70 395l-117 88q-94 70 -136 148t-42 178q0 173 119.5 284t320.5 123l33 180h90l-33 -180q152 -9 269 -70l-35 -249q-51 43 -124 72t-149 30l-67 -385l98 -72q186 -134 186 -323q0 -104 -46.5 -194.5t-146 -156.5t-237.5 -81 l-38 -224h-91l37 217q-173 3 -313 80zM430 1010q0 -82 78 -138l2 -2l55 314q-64 -22 -99.5 -68.5t-35.5 -105.5zM485 213q63 23 98 69t35 103q0 86 -77 147z" />
<glyph unicode="%" horiz-adv-x="1716" d="M123 858l47 260q25 130 121 213.5t227 83.5q133 0 209 -84.5t53 -212.5l-45 -260q-23 -130 -121 -214.5t-229 -84.5q-132 0 -208.5 85.5t-53.5 213.5zM291 864q-11 -63 19.5 -102t95.5 -39t109.5 39t55.5 102l43 250q11 63 -20 101t-96 38q-64 0 -108.5 -38.5 t-55.5 -100.5zM369 0l845 1393h183l-848 -1393h-180zM975 276l47 261q25 130 121 213.5t227 83.5q133 0 209 -84.5t53 -212.5l-45 -261q-23 -130 -121 -214.5t-229 -84.5q-132 0 -208.5 85.5t-53.5 213.5zM1143 283q-11 -63 19 -102.5t95 -39.5t110 39.5t56 102.5l43 249 q11 63 -20 101.5t-96 38.5q-64 0 -108.5 -39t-55.5 -101z" />
<glyph unicode="&#x26;" horiz-adv-x="1390" d="M33 365q0 81 26.5 150.5t65.5 117.5t101.5 92t117 71t129.5 58v2q-67 119 -67 209q0 143 108 245.5t272 102.5q134 0 214.5 -81t80.5 -202q0 -58 -17 -107t-44 -84.5t-69.5 -68t-83.5 -54.5t-97 -46l168 -266l391 370l-41 -305l-241 -235l210 -334h-266l-108 178 q-231 -201 -459 -201q-168 0 -279.5 103t-111.5 285zM289 389q0 -87 49.5 -141.5t126.5 -54.5q129 0 313 157l-207 340q-51 -21 -89 -40t-76.5 -46.5t-62.5 -57t-39 -70t-15 -87.5zM621 1067q0 -59 47 -135v-2q93 40 142.5 81t49.5 97q0 43 -23.5 72.5t-72.5 29.5 q-58 0 -100.5 -40.5t-42.5 -102.5z" />
<glyph unicode="'" horiz-adv-x="454" d="M180 932l66 444h233l-90 -444h-209z" />
<glyph unicode="(" horiz-adv-x="542" d="M39 262q0 331 134 631.5t343 521.5l125 -92q-214 -245 -320 -509t-106 -564q0 -165 32 -319.5t91 -268.5l-139 -84q-72 124 -116 310t-44 374z" />
<glyph unicode=")" horiz-adv-x="540" d="M-129 -330q214 245 319 509t105 564q0 165 -32 319.5t-91 268.5l139 84q72 -124 116 -310t44 -374q0 -170 -38.5 -338.5t-106 -314.5t-151 -270.5t-183.5 -229.5z" />
<glyph unicode="*" horiz-adv-x="733" d="M174 1012l205 110l-166 113l49 65l170 -112l39 225h80l-41 -225l207 112l26 -73l-206 -113l168 -108l-54 -68l-166 111l-36 -220h-80l39 220l-207 -111z" />
<glyph unicode="+" d="M70 496l30 176h351l65 375h189l-66 -375h354l-30 -176h-357l-63 -375h-191l68 375h-350z" />
<glyph unicode="," horiz-adv-x="530" d="M-45 -252l154 533h249l-196 -533h-207z" />
<glyph unicode="-" horiz-adv-x="755" d="M98 479l37 211h520l-37 -211h-520z" />
<glyph unicode="." horiz-adv-x="512" d="M16 115q0 76 57 131t134 55q60 0 97.5 -38.5t37.5 -98.5q0 -76 -57 -130t-135 -54q-60 0 -97 37.5t-37 97.5z" />
<glyph unicode="/" horiz-adv-x="903" d="M-41 0l846 1393h178l-848 -1393h-176z" />
<glyph unicode="0" horiz-adv-x="1183" d="M96 467l80 459q39 214 191 351.5t356 137.5q206 0 323.5 -139.5t81.5 -349.5l-81 -459q-37 -213 -190 -351.5t-357 -138.5q-206 0 -323 140.5t-81 349.5zM332 473q-22 -116 29.5 -191t162.5 -75q112 0 190 74.5t99 191.5l80 447q22 117 -31 191.5t-164 74.5 q-112 0 -189.5 -74t-98.5 -192z" />
<glyph unicode="1" horiz-adv-x="935" d="M-29 0l39 223h322l166 946h-277l41 224h510l-207 -1170h275l-39 -223h-830z" />
<glyph unicode="2" horiz-adv-x="937" d="M-16 0l34 201l482 514q86 89 129 159.5t43 145.5t-44.5 118.5t-125.5 43.5q-155 0 -307 -135l47 266q64 46 148.5 74t168.5 28q177 0 269 -96.5t92 -255.5q0 -128 -52.5 -230.5t-156.5 -214.5l-369 -395h426l-39 -223h-745z" />
<glyph unicode="3" horiz-adv-x="940" d="M10 57l47 260q106 -106 262 -106q105 0 182 66.5t77 166.5q0 75 -47 120.5t-130 45.5h-192l41 226h188q88 0 147.5 56.5t59.5 143.5q0 67 -44 106.5t-124 39.5q-67 0 -138.5 -22.5t-127.5 -61.5l47 264q112 53 266 53q171 0 271 -92.5t100 -239.5q0 -125 -62.5 -222 t-164.5 -144q147 -88 147 -281q0 -128 -68 -234t-184 -165.5t-254 -59.5q-84 0 -165 24t-134 56z" />
<glyph unicode="4" horiz-adv-x="1116" d="M-6 285l35 200l755 908h234l-158 -885h166l-39 -223h-166l-49 -285h-233l49 285h-594zM287 508h340l100 545z" />
<glyph unicode="5" horiz-adv-x="995" d="M4 88l49 270q125 -147 295 -147q120 0 202.5 77.5t82.5 196.5q0 96 -71 141.5t-191 45.5h-183l197 721h629l-39 -224h-420l-84 -282h6q189 0 295.5 -100.5t106.5 -270.5q0 -168 -77 -292.5t-202.5 -185.5t-280.5 -61q-152 0 -315 111z" />
<glyph unicode="6" horiz-adv-x="1112" d="M53 412q0 105 38.5 193.5t111.5 178.5l485 609h291l-363 -443h7q176 0 290.5 -113t114.5 -298q0 -150 -75 -279.5t-203.5 -206t-278.5 -76.5q-188 0 -303 125.5t-115 309.5zM295 432q0 -96 54.5 -158.5t146.5 -62.5q117 0 203.5 90t86.5 211q0 95 -54 156t-146 61 q-117 0 -204 -88t-87 -209z" />
<glyph unicode="7" horiz-adv-x="866" d="M-4 0l663 1169h-491l39 224h754l-37 -199l-656 -1194h-272z" />
<glyph unicode="8" d="M53 356q0 131 73.5 238t192.5 164q-51 34 -79.5 94.5t-28.5 136.5q0 119 63.5 218t165 153.5t215.5 54.5q156 0 255.5 -97.5t99.5 -242.5q0 -110 -59 -200.5t-154 -143.5q70 -37 109.5 -109.5t39.5 -168.5q0 -133 -71.5 -243.5t-186 -171.5t-244.5 -61q-175 0 -283 107.5 t-108 271.5zM281 373q0 -80 49.5 -133.5t132.5 -53.5q102 0 180 76.5t78 179.5q0 81 -50 135t-134 54q-101 0 -178.5 -77.5t-77.5 -180.5zM434 1004q0 -64 40 -107t108 -43q82 0 142 60.5t60 144.5q0 65 -39 106t-106 41q-83 0 -144 -59t-61 -143z" />
<glyph unicode="9" horiz-adv-x="1112" d="M121 854q0 112 45 216t120 179.5t178.5 120.5t215.5 45q188 0 302 -125t114 -309q0 -106 -38 -195t-110 -178l-487 -608h-289l360 442h-4q-176 0 -291.5 113.5t-115.5 298.5zM362 881q0 -94 55 -155.5t146 -61.5q118 0 205.5 88t87.5 209q0 96 -55 158.5t-146 62.5 q-118 0 -205.5 -89.5t-87.5 -211.5z" />
<glyph unicode=":" horiz-adv-x="516" d="M29 102q0 72 51 121t123 49q55 0 89 -34t34 -88q0 -71 -51.5 -120.5t-124.5 -49.5q-55 0 -88 34t-33 88zM154 819q0 71 51.5 121.5t122.5 50.5q56 0 90.5 -34.5t34.5 -88.5q0 -71 -52.5 -120.5t-124.5 -49.5q-55 0 -88.5 34t-33.5 87z" />
<glyph unicode=";" horiz-adv-x="540" d="M-47 -246l145 494h230l-187 -494h-188zM184 819q0 72 50.5 122t121.5 50q56 0 90.5 -34.5t34.5 -88.5q0 -71 -51.5 -120.5t-124.5 -49.5q-55 0 -88 34t-33 87z" />
<glyph unicode="&#x3c;" d="M47 496l31 174l956 358l-33 -188l-716 -262l624 -261l-32 -178z" />
<glyph unicode="=" d="M27 260l30 176h893l-30 -176h-893zM111 731l30 176h893l-30 -176h-893z" />
<glyph unicode="&#x3e;" d="M29 139l34 189l713 260l-622 260l32 180l830 -358l-31 -174z" />
<glyph unicode="?" horiz-adv-x="862" d="M121 115q0 76 56.5 131t133.5 55q61 0 98 -38t37 -99q0 -76 -57 -130t-133 -54q-61 0 -98 37.5t-37 97.5zM168 1083l45 260q72 35 134 52.5t140 17.5q191 0 287 -97.5t96 -246.5q0 -103 -48.5 -185t-139.5 -157l-123 -102q-49 -42 -71.5 -74.5t-30.5 -89.5h-230 q19 107 53.5 168.5t110.5 118.5l117 94q59 46 86 89t27 97q0 71 -42 111.5t-130 40.5q-70 0 -147 -25t-134 -72z" />
<glyph unicode="@" horiz-adv-x="1626" d="M80 449q0 173 68.5 331t183.5 271.5t273 181t329 67.5q141 0 259 -45.5t199.5 -126t127 -194t45.5 -246.5q0 -113 -32.5 -208t-86 -155.5t-119.5 -94t-135 -33.5q-140 0 -178 120q-106 -129 -275 -129q-136 0 -217.5 91t-81.5 229q0 169 116 291.5t280 122.5 q158 0 231 -123l18 100h119l-74 -432q-27 -152 80 -152q89 0 156.5 102t67.5 259q0 222 -138.5 363t-367.5 141q-141 0 -272.5 -58t-228.5 -155.5t-155.5 -232.5t-58.5 -281q0 -231 136.5 -379t361.5 -148q228 0 419 148l58 -99q-218 -170 -490 -170q-276 0 -447 179.5 t-171 464.5zM569 512q0 -88 50.5 -145.5t138.5 -57.5q111 0 189.5 86t78.5 203q0 88 -49 144.5t-137 56.5q-111 0 -191 -84.5t-80 -202.5z" />
<glyph unicode="A" horiz-adv-x="1294" d="M-86 0l750 1393h260l258 -1393h-250l-58 344h-512l-178 -344h-270zM479 567h359l-88 520z" />
<glyph unicode="B" horiz-adv-x="1153" d="M66 0l245 1393h437q160 0 258 -90t98 -234q0 -127 -62.5 -222.5t-171.5 -141.5q76 -36 119 -106.5t43 -166.5q0 -131 -70 -230.5t-185.5 -150.5t-258.5 -51h-452zM338 223h219q100 0 168 58.5t68 167.5q0 75 -46.5 114t-121.5 39h-222zM444 827h199q89 0 151 53t62 150 q0 68 -42.5 103.5t-108.5 35.5h-201z" />
<glyph unicode="C" horiz-adv-x="1200" d="M92 598q0 219 111.5 407.5t300 299t405.5 110.5q178 0 314 -86l-31 -270q-116 123 -307 123q-107 0 -208 -45.5t-176 -121.5t-120 -180.5t-45 -216.5q0 -175 105 -291t274 -116q193 0 348 121l-33 -269q-169 -86 -342 -86q-178 0 -315 83t-209 223.5t-72 314.5z" />
<glyph unicode="D" horiz-adv-x="1413" d="M66 0l245 1393h473q264 0 418 -160t154 -426q0 -167 -57.5 -315.5t-159.5 -257t-250 -171.5t-320 -63h-503zM338 223h254q153 0 273 77t183.5 205t63.5 283q0 170 -93 275.5t-261 105.5h-254z" />
<glyph unicode="E" horiz-adv-x="1044" d="M66 0l245 1393h750l-39 -224h-518l-62 -356h478l-41 -223h-478l-63 -367h516l-39 -223h-749z" />
<glyph unicode="F" horiz-adv-x="1011" d="M66 0l245 1393h750l-39 -224h-518l-72 -413h477l-41 -224h-477l-92 -532h-233z" />
<glyph unicode="G" horiz-adv-x="1480" d="M92 592q0 166 65.5 318t175.5 262.5t263.5 176.5t321.5 66q213 0 354 -74l-29 -256q-145 97 -350 97q-111 0 -213.5 -44.5t-177.5 -120t-119.5 -180.5t-44.5 -221q0 -174 99.5 -289.5t269.5 -115.5q181 0 319.5 122t153.5 310h-414l37 211h645q0 -3 1 -23t1 -24 q0 -132 -34 -255.5t-101 -227.5t-159 -182t-214.5 -121.5t-261.5 -43.5q-175 0 -309.5 80t-206.5 219.5t-72 315.5z" />
<glyph unicode="H" horiz-adv-x="1490" d="M66 0l245 1393h234l-103 -580h684l103 580h233l-245 -1393h-234l104 590h-686l-102 -590h-233z" />
<glyph unicode="I" horiz-adv-x="571" d="M66 0l245 1393h234l-246 -1393h-233z" />
<glyph unicode="J" horiz-adv-x="888" d="M-35 63l35 261q95 -113 231 -113q193 0 236 233l168 949h239l-167 -955q-41 -229 -154 -345t-313 -116q-80 0 -157.5 26t-117.5 60z" />
<glyph unicode="K" horiz-adv-x="1132" d="M66 0l245 1393h234l-111 -623l518 623h287l-494 -578l263 -815h-260l-191 637l-182 -205l-76 -432h-233z" />
<glyph unicode="L" horiz-adv-x="950" d="M66 0l245 1393h234l-207 -1170h516l-39 -223h-749z" />
<glyph unicode="M" horiz-adv-x="1746" d="M66 0l245 1393h271l229 -1096l614 1096h293l-245 -1393h-234l170 965l-539 -965h-202l-201 965l-168 -965h-233z" />
<glyph unicode="N" horiz-adv-x="1435" d="M72 0l217 1229l-68 145l4 19h262l512 -990l177 990h233l-246 -1393h-221l-477 901l-160 -901h-233z" />
<glyph unicode="O" horiz-adv-x="1560" d="M92 596q0 164 66 315.5t176.5 261.5t260 176t310.5 66q175 0 313 -79.5t213.5 -220.5t75.5 -318q0 -164 -66 -316t-176.5 -262t-260 -176t-310.5 -66q-175 0 -313 80t-213.5 221t-75.5 318zM336 618q0 -175 105 -291t274 -116q142 0 268 76t202.5 206.5t76.5 280.5 q0 175 -105.5 291.5t-275.5 116.5q-140 0 -266 -76.5t-202.5 -207.5t-76.5 -280z" />
<glyph unicode="P" horiz-adv-x="1114" d="M66 0l245 1393h416q173 0 279 -98t106 -269q0 -221 -141 -356t-365 -135h-213l-94 -535h-233zM432 758h197q104 0 171.5 64t67.5 182q0 81 -46 123t-122 42h-196z" />
<glyph unicode="Q" horiz-adv-x="1581" d="M92 596q0 164 66 315.5t176.5 261.5t260 176t310.5 66q175 0 313 -79.5t213.5 -220.5t75.5 -318q0 -160 -63.5 -308t-173.5 -260l104 -133l-174 -143l-110 137q-184 -113 -396 -113q-175 0 -313 80t-213.5 221t-75.5 318zM336 618q0 -175 105 -291t274 -116q121 0 225 68 l-195 245l177 146l200 -254q140 157 140 358q0 175 -105.5 291.5t-275.5 116.5q-140 0 -266 -76.5t-202.5 -207.5t-76.5 -280z" />
<glyph unicode="R" horiz-adv-x="1177" d="M66 0l245 1393h420q176 0 283.5 -92.5t107.5 -253.5q0 -163 -93.5 -270.5t-235.5 -143.5q114 -63 168 -229q43 -131 43 -309q0 -46 -3 -95h-241q3 46 3 89q-1 187 -61 311q-74 152 -206 151h-101l-96 -551h-233zM434 774h203q101 0 168 63.5t67 170.5q0 76 -44.5 118.5 t-118.5 42.5h-205z" />
<glyph unicode="S" horiz-adv-x="987" d="M41 57l45 252q45 -47 126 -79.5t169 -32.5q112 0 176 55t64 133q0 93 -93 160l-182 135q-94 70 -136 148t-42 178q0 185 133 297t354 112q87 0 171 -20.5t141 -51.5l-35 -249q-50 44 -124.5 73t-150.5 29q-104 0 -164.5 -53.5t-60.5 -132.5q0 -82 78 -138l180 -133 q187 -135 187 -323q0 -83 -32.5 -160.5t-94 -140t-161 -100.5t-222.5 -38q-178 0 -326 80z" />
<glyph unicode="T" horiz-adv-x="999" d="M143 1167l39 226h918l-39 -226h-342l-205 -1167h-233l204 1167h-342z" />
<glyph unicode="U" horiz-adv-x="1316" d="M139 510l156 883h233l-159 -899q-6 -35 -6 -67q-1 -85 43 -143q60 -80 184 -79q122 0 210 79.5t111 209.5l158 899h236l-156 -883q-44 -249 -198.5 -391t-385.5 -142q-232 0 -350 144q-87 106 -87 267q0 58 11 122z" />
<glyph unicode="V" horiz-adv-x="1294" d="M150 1393h249l176 -1121l572 1121h272l-749 -1393h-262z" />
<glyph unicode="W" horiz-adv-x="1927" d="M170 1393h252l67 -1096l478 934l-13 162h236l119 -1096l454 1096h271l-621 -1393h-262l-115 918l-477 -918h-262z" />
<glyph unicode="X" horiz-adv-x="1193" d="M-86 0l547 713l-281 680h264l197 -502l369 502h290l-520 -680l295 -713h-266l-211 535l-395 -535h-289z" />
<glyph unicode="Y" horiz-adv-x="1140" d="M150 1393h253l197 -551l391 551h275l-582 -787l-106 -606h-234l107 608z" />
<glyph unicode="Z" horiz-adv-x="991" d="M-29 0l35 199l703 970h-510l39 224h813l-37 -199l-713 -971h543l-39 -223h-834z" />
<glyph unicode="[" horiz-adv-x="573" d="M-27 -420l324 1833h381l-27 -141h-227l-274 -1551h229l-25 -141h-381z" />
<glyph unicode="\" horiz-adv-x="858" d="M188 1393h164l355 -1393h-162z" />
<glyph unicode="]" horiz-adv-x="573" d="M-137 -420l26 141h228l272 1551h-227l24 141h381l-323 -1833h-381z" />
<glyph unicode="^" horiz-adv-x="907" d="M176 1112l426 330l311 -330l-118 -129l-217 236l-299 -238z" />
<glyph unicode="_" horiz-adv-x="1032" d="M-23 -207l27 146h795l-27 -146h-795z" />
<glyph unicode="`" horiz-adv-x="1189" d="M678 1425h182l94 -301h-161z" />
<glyph unicode="a" horiz-adv-x="1220" d="M51 432q0 154 72.5 291t198.5 221t272 84q116 0 197 -53.5t120 -143.5l31 177h221l-176 -1008h-223l29 156q-139 -179 -340 -179q-179 0 -290.5 131.5t-111.5 323.5zM285 455q0 -110 65 -183t172 -73q131 0 232.5 107t101.5 249q0 109 -64.5 181.5t-170.5 72.5 q-132 0 -234 -106.5t-102 -247.5z" />
<glyph unicode="b" horiz-adv-x="1234" d="M27 0l249 1413h226l-103 -559q64 83 154 128.5t197 45.5q181 0 293 -125t112 -323q0 -119 -44 -230t-118 -193t-178 -131t-219 -49q-108 0 -193.5 55.5t-121.5 143.5l-29 -176h-225zM336 457q0 -110 65.5 -184t171.5 -74q137 0 241 106.5t104 247.5q0 108 -66.5 181 t-171.5 73q-138 0 -241 -104.5t-103 -245.5z" />
<glyph unicode="c" horiz-adv-x="907" d="M49 434q0 160 78.5 296t218 217t307.5 81q59 0 127 -15t107 -40l-39 -242q-85 78 -219 78q-138 0 -242 -105.5t-104 -246.5q0 -111 65 -184.5t172 -73.5q140 0 248 77l-39 -241q-107 -58 -231 -58q-200 0 -324.5 128t-124.5 329z" />
<glyph unicode="d" horiz-adv-x="1236" d="M51 434q0 156 73.5 292.5t201 219t276.5 82.5q114 0 199.5 -55t122.5 -142l102 582h223l-245 -1413h-228l31 156q-140 -179 -358 -179q-116 0 -208 62t-141 166t-49 229zM289 457q0 -110 66 -184t171 -74q138 0 241 106.5t103 247.5q0 108 -66 181t-171 73 q-137 0 -240.5 -104.5t-103.5 -245.5z" />
<glyph unicode="e" horiz-adv-x="1091" d="M51 430q0 166 76 303t209 216t293 79q183 0 293 -112.5t110 -284.5q0 -114 -26 -203h-736q0 -110 69 -178t187 -68q91 0 186.5 31t172.5 80l-39 -223q-178 -93 -352 -93q-197 0 -320 127.5t-123 325.5zM299 602h518q2 12 2 35q0 91 -57.5 147t-151.5 56q-108 0 -197 -68 t-114 -170z" />
<glyph unicode="f" horiz-adv-x="673" d="M96 0l146 815h-144l35 193h143l15 88q28 164 125.5 251t253.5 87q72 0 123 -15l-39 -227q-40 22 -95 22q-123 0 -147 -131l-12 -75h215l-33 -193h-215l-145 -815h-226z" />
<glyph unicode="g" horiz-adv-x="1232" d="M53 442q0 154 73 288.5t200 216t276 81.5q111 0 196.5 -53t123.5 -139l30 172h222l-154 -916q-44 -259 -204 -395.5t-408 -136.5q-98 0 -193 26.5t-145 59.5l43 233q56 -46 142.5 -77t174.5 -31q134 0 233.5 81.5t120.5 215.5l21 110q-138 -170 -348 -170 q-179 0 -291.5 120.5t-112.5 313.5zM299 471q0 -105 62.5 -174.5t164.5 -69.5q134 0 233 100t99 238q0 105 -63 173.5t-166 68.5q-133 0 -231.5 -99.5t-98.5 -236.5z" />
<glyph unicode="h" horiz-adv-x="1101" d="M27 0l249 1413h226l-94 -532q107 147 288 147q160 0 242 -110q60 -81 61 -194q0 -40 -8 -85l-112 -639h-224l103 582q5 29 5 55q0 65 -31 109q-43 62 -136 63q-90 0 -155 -58.5t-85 -156.5l-104 -594h-225z" />
<glyph unicode="i" horiz-adv-x="483" d="M27 0l176 1008h225l-176 -1008h-225zM229 1294q0 64 49.5 112t114.5 48q53 0 85 -34t32 -85q0 -65 -48.5 -112t-115.5 -47q-52 0 -84.5 33.5t-32.5 84.5z" />
<glyph unicode="j" horiz-adv-x="485" d="M-213 -422l39 227q30 -24 72 -24q89 0 110 108l197 1119h225l-199 -1119q-29 -164 -115.5 -246.5t-219.5 -82.5q-80 0 -109 18zM231 1294q0 64 50 112t116 48q53 0 84 -34t31 -85q0 -65 -48.5 -112t-115.5 -47q-52 0 -84.5 33.5t-32.5 84.5z" />
<glyph unicode="k" horiz-adv-x="964" d="M27 0l249 1413h226l-148 -827l389 422h273l-379 -412l207 -596h-250l-143 442l-148 -147l-51 -295h-225z" />
<glyph unicode="l" horiz-adv-x="489" d="M29 0l250 1413h225l-250 -1413h-225z" />
<glyph unicode="m" horiz-adv-x="1675" d="M27 0l178 1008h225l-20 -119q105 139 272 139q109 0 183.5 -46t97.5 -134q105 180 321 180q148 0 230 -104q60 -77 61 -186q0 -40 -8 -83l-115 -655h-225l106 594q5 30 5 56q0 62 -28 102q-40 57 -125.5 57t-148.5 -57t-80 -158l-106 -594h-225l106 594q5 30 5 56 q0 62 -28 102q-40 57 -123.5 57t-145 -53t-81.5 -148l-106 -608h-225z" />
<glyph unicode="n" horiz-adv-x="1101" d="M27 0l178 1008h225l-22 -127q54 75 122.5 111t165.5 36q160 0 242 -110q60 -81 61 -194q0 -40 -8 -85l-112 -639h-224l103 582q5 29 5 55q0 65 -31 109q-43 62 -136 63q-90 0 -155 -58.5t-85 -156.5l-104 -594h-225z" />
<glyph unicode="o" horiz-adv-x="1163" d="M49 436q0 118 48 228t127.5 189.5t187.5 127t223 47.5q197 0 323.5 -128t126.5 -327q0 -118 -48 -228.5t-127.5 -190.5t-188 -128.5t-223.5 -48.5q-197 0 -323 129.5t-126 329.5zM281 457q0 -110 64.5 -184t172.5 -74q131 0 232.5 107t101.5 249q0 108 -65 181t-171 73 q-131 0 -233 -106t-102 -246z" />
<glyph unicode="p" horiz-adv-x="1234" d="M-47 -420l252 1428h225l-29 -156q137 178 357 178q175 0 286 -132t111 -325q0 -155 -73 -291.5t-200 -219t-276 -82.5q-116 0 -201 54.5t-122 141.5l-105 -596h-225zM336 457q0 -109 66 -182.5t171 -73.5q137 0 242 105t105 245q0 110 -66.5 184t-173.5 74 q-138 0 -241 -106t-103 -246z" />
<glyph unicode="q" horiz-adv-x="1234" d="M51 428q0 159 73.5 297.5t203 221.5t282.5 83q108 0 194 -54.5t122 -141.5l28 174h226l-252 -1428h-226l105 574q-65 -82 -154.5 -128t-195.5 -46q-181 0 -293.5 125.5t-112.5 322.5zM289 457q0 -109 66 -182.5t171 -73.5q138 0 241 104.5t103 245.5q0 110 -65.5 184 t-171.5 74q-137 0 -240.5 -105.5t-103.5 -246.5z" />
<glyph unicode="r" horiz-adv-x="708" d="M27 0l178 1008h225l-18 -105q47 64 106 94.5t144 30.5q55 0 90 -6l-43 -240q-60 27 -134 27q-82 0 -140 -58.5t-79 -156.5l-104 -594h-225z" />
<glyph unicode="s" horiz-adv-x="782" d="M4 35l41 219q44 -34 104 -58t119 -24q71 0 111.5 34t40.5 87q0 56 -62 100l-143 103q-109 75 -109 211q0 135 105 228t285 93q133 0 235 -41l-41 -223q-94 67 -205 67q-68 0 -105.5 -31.5t-37.5 -78.5q0 -30 14 -50.5t43 -41.5l133 -97q123 -88 123 -227t-105.5 -233.5 t-285.5 -94.5q-70 0 -141.5 16.5t-118.5 41.5z" />
<glyph unicode="t" horiz-adv-x="641" d="M84 815l35 193h174l41 235l223 49l-51 -284h176l-35 -193h-174l-145 -815h-226l146 815h-164z" />
<glyph unicode="u" horiz-adv-x="1103" d="M84 367l113 641h225l-103 -580q-6 -32 -6 -60q0 -62 30 -106q43 -62 136 -63q90 0 154 58.5t86 156.5l104 594h226l-179 -1008h-225l25 123q-103 -146 -293 -146q-159 0 -241 111q-60 82 -60 195q0 40 8 84z" />
<glyph unicode="v" horiz-adv-x="1036" d="M92 1008h227l132 -729l391 729h245l-557 -1008h-237z" />
<glyph unicode="w" horiz-adv-x="1558" d="M100 1008h226l65 -732l305 601l-24 131h225l135 -732l322 732h245l-475 -1008h-235l-117 616l-317 -616h-238z" />
<glyph unicode="x" horiz-adv-x="964" d="M-86 0l416 504l-238 504h252l143 -334l261 334h274l-416 -504l238 -504h-254l-144 336l-260 -336h-272z" />
<glyph unicode="y" horiz-adv-x="1030" d="M-14 -420l309 498l-203 930h244l123 -648l362 648h264l-839 -1428h-260z" />
<glyph unicode="z" horiz-adv-x="815" d="M-31 0l31 182l498 633h-365l35 193h643l-33 -183l-506 -632h396l-35 -193h-664z" />
<glyph unicode="{" horiz-adv-x="624" d="M-20 428l26 137h60q161 0 194 199l62 344q30 174 100 239.5t205 65.5h98l-25 -139h-53q-73 0 -115.5 -39t-58.5 -139l-65 -369q-35 -200 -185 -238q134 -44 101 -233l-64 -356q-18 -102 10.5 -141.5t102.5 -39.5h53l-25 -139h-69q-69 0 -115.5 14t-79.5 49t-38.5 95 t7.5 151l60 338q34 201 -127 201h-59z" />
<glyph unicode="|" horiz-adv-x="452" d="M-27 -420l324 1833h152l-322 -1833h-154z" />
<glyph unicode="}" horiz-adv-x="622" d="M-133 -420l24 139h54q72 0 115 39.5t61 139.5l63 368q35 200 185 238q-134 44 -101 233l64 357q18 102 -10.5 141t-102.5 39h-53l24 139h70q55 0 95 -8.5t72.5 -30t47.5 -56.5t20 -88t-10 -126l-59 -338q-34 -201 127 -201h59l-24 -137h-60q-163 0 -196 -199l-62 -344 q-30 -174 -99.5 -239.5t-205.5 -65.5h-98z" />
<glyph unicode="~" d="M66 477l30 189q116 71 226 71q57 0 119.5 -20.5t108.5 -45t107.5 -45t118.5 -20.5q109 0 219 82l-32 -188q-98 -70 -218 -70q-59 0 -123.5 20.5t-111 45t-107.5 45t-116 20.5q-103 0 -221 -84z" />
<glyph unicode="&#xa1;" horiz-adv-x="501" d="M-51 -385l215 932h158l-115 -932h-258zM139 844q0 77 56.5 130.5t134.5 53.5q60 0 96.5 -37t36.5 -96q0 -77 -57 -131.5t-134 -54.5q-61 0 -97 38t-36 97z" />
<glyph unicode="&#xa2;" d="M158 639q0 226 152 396.5t382 195.5l33 182h152l-33 -186q101 -18 151 -49l-39 -242q-62 55 -151 72l-105 -598q103 19 174 71l-36 -241q-71 -40 -176 -54l-33 -186h-154l33 193q-160 29 -255 150.5t-95 295.5zM391 662q0 -88 42.5 -154.5t115.5 -91.5l102 585 q-111 -29 -185.5 -125t-74.5 -214z" />
<glyph unicode="&#xa3;" d="M76 0l35 199q47 21 84 56t64.5 102t27.5 155q0 47 -2 72h-187l27 155h149q-4 102 -4 144q0 238 132.5 385t365.5 147q100 0 179 -20.5t118 -51.5l-47 -260q-38 40 -108 70.5t-146 30.5q-115 0 -182.5 -75.5t-67.5 -203.5q0 -48 12 -166h344l-26 -155h-303q4 -58 4 -80 q0 -186 -127 -281h448l-39 -223h-751z" />
<glyph unicode="&#xa4;" horiz-adv-x="1038" d="M49 281l123 110q-25 61 -25 137q0 126 82 244l-84 111l140 121l82 -109q91 57 198 57t187 -57l118 104l115 -125l-121 -106q25 -58 25 -135q0 -133 -92 -252l90 -115l-139 -121l-97 115q-78 -47 -188 -47q-107 0 -172 53l-129 -112zM338 551q0 -67 38.5 -112.5 t108.5 -45.5q87 0 149 67t62 154q0 66 -39.5 112t-109.5 46q-86 0 -147.5 -68t-61.5 -153z" />
<glyph unicode="&#xa5;" d="M76 285l26 157h285l27 142h-285l27 155h219l-215 654h252l151 -551l348 551h275l-447 -654h209l-28 -155h-275l-24 -142h274l-27 -157h-276l-49 -285h-234l51 285h-284z" />
<glyph unicode="&#xa6;" horiz-adv-x="468" d="M-18 -420l112 641h154l-113 -641h-153zM199 807l106 606h152l-107 -606h-151z" />
<glyph unicode="&#xa7;" horiz-adv-x="1009" d="M-2 -174l45 248q65 -50 151.5 -81.5t172.5 -31.5q97 0 152.5 36.5t55.5 92.5q0 63 -88 113l-223 129q-155 87 -155 229q0 178 165 283q-81 72 -81 198q0 73 27 137t81.5 117.5t149.5 85t219 31.5q176 0 311 -80l-43 -241q-52 40 -131.5 70t-161.5 30q-89 0 -144 -35.5 t-55 -91.5q0 -57 82 -104l217 -125q89 -49 128.5 -109.5t39.5 -136.5q0 -159 -165 -271q81 -75 81 -200q0 -78 -31 -146t-89 -120t-149 -82.5t-204 -30.5q-199 0 -358 86zM350 610q0 -29 25.5 -55.5t81.5 -60.5l116 -74q99 52 99 121q0 34 -27.5 64.5t-89.5 66.5l-104 65 q-101 -50 -101 -127z" />
<glyph unicode="&#xa8;" horiz-adv-x="1150" d="M477 1286q0 60 46 104t106 44q46 0 75 -31t29 -76q0 -61 -43.5 -104t-105.5 -43q-47 0 -77 30t-30 76zM879 1286q0 60 44.5 104t104.5 44q48 0 76.5 -30.5t28.5 -76.5q0 -61 -44 -104t-106 -43q-47 0 -75.5 30t-28.5 76z" />
<glyph unicode="&#xa9;" horiz-adv-x="1646" d="M100 596q0 141 44.5 272t125 234.5t187 181.5t236 120t265.5 42q134 0 250 -46.5t199 -130t130.5 -203.5t47.5 -261q0 -174 -69.5 -332.5t-185.5 -272t-274 -180.5t-329 -67q-134 0 -250.5 47t-199 130.5t-130 204t-47.5 261.5zM244 596q0 -227 135.5 -365.5 t355.5 -138.5q141 0 270 53.5t225 146t153 227t57 288.5q0 225 -135 362.5t-355 137.5q-189 0 -350 -89.5t-258.5 -253.5t-97.5 -368zM446 645q0 124 66 231.5t179.5 171.5t244.5 64q122 0 199 -41l-35 -184q-69 59 -180 59q-122 0 -212 -85t-90 -202q0 -92 59 -153.5 t154 -61.5q124 0 205 62l-35 -182q-82 -45 -192 -45q-157 0 -260 102.5t-103 263.5z" />
<glyph unicode="&#xaa;" horiz-adv-x="704" d="M84 354l29 156h458l-28 -156h-459zM104 797q0 101 72.5 166t185.5 65q45 0 86 -16t62 -39l8 47q19 121 -110 121q-47 0 -89.5 -15.5t-99.5 -46.5l29 166q100 45 203 45q130 0 195.5 -69t41.5 -205l-70 -393h-169l8 53q-55 -68 -158 -68q-89 0 -142 56t-53 133zM281 809 q0 -36 22 -59t57 -23q47 0 82 33t35 76q0 34 -23 56.5t-61 22.5q-44 0 -78 -31.5t-34 -74.5z" />
<glyph unicode="&#xab;" horiz-adv-x="991" d="M74 582l403 452l101 -100l-283 -367l156 -364l-134 -74zM459 582l403 452l101 -100l-283 -367l156 -364l-134 -74z" />
<glyph unicode="&#xac;" d="M94 705l31 176h893l-98 -559h-183l66 383h-709z" />
<glyph unicode="&#xad;" horiz-adv-x="755" d="M98 479l37 211h520l-37 -211h-520z" />
<glyph unicode="&#xae;" horiz-adv-x="1210" d="M166 973q0 164 82.5 302.5t220.5 217t297 78.5q192 0 316 -125t124 -326q0 -163 -82.5 -301t-221 -216.5t-298.5 -78.5q-191 0 -314.5 125t-123.5 324zM268 975q0 -159 94 -255.5t248 -96.5q133 0 245.5 63t180.5 178t68 258q0 158 -94 253t-250 95q-98 0 -188 -36.5 t-157 -100.5t-107 -157.5t-40 -200.5zM449 770l100 565h190q76 0 124 -39t48 -104q0 -69 -39.5 -111t-99.5 -55q50 -27 73 -95t17 -161h-121q6 101 -21.5 156t-84.5 55h-33l-37 -211h-116zM623 1094h79q35 0 59.5 20.5t24.5 54.5q0 26 -16 40t-43 14h-82z" />
<glyph unicode="&#xaf;" horiz-adv-x="1153" d="M502 1204l26 152h574l-29 -152h-571z" />
<glyph unicode="&#xb0;" horiz-adv-x="786" d="M154 1038q0 143 104 257t260 114q130 0 207.5 -81t77.5 -200q0 -92 -47.5 -177.5t-134 -140t-189.5 -54.5q-127 0 -202.5 81t-75.5 201zM291 1051q0 -67 40 -114.5t113 -47.5q90 0 154 69t64 156q0 67 -41 115.5t-111 48.5q-89 0 -154 -69.5t-65 -157.5z" />
<glyph unicode="&#xb1;" d="M0 88l31 176h893l-31 -176h-893zM121 772l31 176h350l65 375h189l-66 -375h354l-30 -176h-355l-57 -328h-190l59 328h-350z" />
<glyph unicode="&#xb2;" horiz-adv-x="608" d="M104 829l25 142l293 291q48 50 71 87t23 74q0 39 -25.5 60.5t-72.5 21.5q-94 0 -193 -75l33 186q88 55 201 55q115 0 175 -61.5t60 -157.5q0 -125 -131 -256l-207 -207h244l-27 -160h-469z" />
<glyph unicode="&#xb3;" horiz-adv-x="604" d="M119 860l33 187q63 -66 161 -66q67 0 108.5 32.5t41.5 82.5q0 38 -28 60t-77 22h-118l26 159h121q45 0 79 28t34 69q0 71 -97 71q-93 0 -167 -47l32 182q68 31 162 31q111 0 178.5 -57.5t67.5 -149.5q0 -72 -36.5 -127t-98.5 -84q90 -51 90 -168q0 -115 -92.5 -192.5 t-227.5 -77.5q-112 0 -192 45z" />
<glyph unicode="&#xb4;" horiz-adv-x="1153" d="M600 1124l203 301h194l-221 -301h-176z" />
<glyph unicode="&#xb5;" horiz-adv-x="1150" d="M-33 -420l252 1428h225l-102 -580q-19 -104 24 -166.5t136 -62.5q89 0 153 58.5t84 156.5l107 594h223l-178 -1008h-223l24 129q-108 -152 -301 -152q-84 0 -117 70l-81 -467h-226z" />
<glyph unicode="&#xb6;" horiz-adv-x="1128" d="M63 612q0 182 109.5 289t333.5 107h221l-252 -1428h-166l131 748h-41q-168 0 -252 77t-84 207zM625 -420l252 1428h167l-251 -1428h-168z" />
<glyph unicode="&#xb7;" horiz-adv-x="520" d="M98 575q0 76 57 131.5t134 55.5q60 0 97.5 -38.5t37.5 -98.5q0 -76 -57.5 -130.5t-135.5 -54.5q-60 0 -96.5 37.5t-36.5 97.5z" />
<glyph unicode="&#xb8;" horiz-adv-x="1153" d="M348 -311l201 338l201 -2l-172 -336h-230z" />
<glyph unicode="&#xb9;" horiz-adv-x="608" d="M96 829l29 160h197l90 512h-166l26 160h332l-117 -672h168l-28 -160h-531z" />
<glyph unicode="&#xba;" horiz-adv-x="753" d="M92 905q0 156 116.5 270.5t272.5 114.5q130 0 213.5 -83t83.5 -212q0 -157 -117.5 -272t-273.5 -115q-129 0 -212 84t-83 213zM102 354l27 156h461l-29 -156h-459zM266 922q0 -63 38.5 -106.5t101.5 -43.5q78 0 138 62t60 145q0 63 -38 105t-101 42q-79 0 -139 -60.5 t-60 -143.5z" />
<glyph unicode="&#xbb;" horiz-adv-x="997" d="M27 229l282 367l-155 367l133 71l243 -452l-403 -453zM418 229l282 367l-155 367l133 71l244 -452l-404 -453z" />
<glyph unicode="&#xbc;" horiz-adv-x="1650" d="M78 561l28 160h197l90 512h-166l27 160h332l-117 -672h168l-29 -160h-530zM373 0l846 1393h178l-848 -1393h-176zM877 164l24 139l457 528h170l-90 -509h104l-29 -158h-102l-29 -164h-165l28 164h-368zM1075 322h199l49 276z" />
<glyph unicode="&#xbd;" horiz-adv-x="1644" d="M76 561l28 160h197l90 512h-166l27 160h332l-117 -672h168l-29 -160h-530zM371 0l846 1393h178l-848 -1393h-176zM985 0l25 141l293 291q48 50 71 87t23 75t-26 60t-73 22q-91 0 -192 -76l33 186q90 56 200 56q115 0 175.5 -61.5t60.5 -157.5q0 -125 -131 -256l-207 -207 h244l-27 -160h-469z" />
<glyph unicode="&#xbe;" horiz-adv-x="1599" d="M90 592l33 186q62 -65 162 -65q67 0 108 32t41 82q0 38 -27.5 60t-76.5 22h-119l27 160h120q45 0 79 28t34 68q0 33 -24 52.5t-72 19.5q-94 0 -168 -47l33 182q68 31 161 31q111 0 178.5 -57.5t67.5 -149.5q0 -72 -36.5 -127t-98.5 -84q90 -51 90 -168q0 -115 -92 -192.5 t-227 -77.5q-113 0 -193 45zM319 0l846 1393h178l-847 -1393h-177zM825 164l25 139l457 528h170l-91 -509h105l-29 -158h-102l-29 -164h-166l29 164h-369zM1024 322h199l49 276z" />
<glyph unicode="&#xbf;" horiz-adv-x="843" d="M-47 -61q0 188 188 344l123 102q49 41 72 73t31 89h229q-19 -106 -53 -167t-111 -120l-117 -92q-59 -45 -86.5 -89t-27.5 -99q0 -70 43 -111t131 -41q70 0 146.5 24.5t133.5 71.5l-45 -258q-73 -36 -135.5 -54t-140.5 -18q-97 0 -172 28t-119.5 76.5t-67 109.5t-22.5 131 zM377 844q0 77 57 130.5t133 53.5q61 0 97 -36.5t36 -96.5q0 -77 -56 -131.5t-132 -54.5q-61 0 -98 38t-37 97z" />
<glyph unicode="&#xc0;" horiz-adv-x="1294" d="M-86 0l750 1393h260l258 -1393h-250l-58 344h-512l-178 -344h-270zM479 567h359l-88 520zM612 1790h183l94 -301h-162z" />
<glyph unicode="&#xc1;" horiz-adv-x="1294" d="M-86 0l750 1393h260l258 -1393h-250l-58 344h-512l-178 -344h-270zM479 567h359l-88 520zM731 1489l203 301h194l-221 -301h-176z" />
<glyph unicode="&#xc2;" horiz-adv-x="1294" d="M-86 0l750 1393h260l258 -1393h-250l-58 344h-512l-178 -344h-270zM479 567h359l-88 520zM514 1489l236 301h231l129 -301h-164l-92 201l-162 -201h-178z" />
<glyph unicode="&#xc3;" horiz-adv-x="1294" d="M-86 0l750 1393h260l258 -1393h-250l-58 344h-512l-178 -344h-270zM479 567h359l-88 520zM537 1550l26 160q47 -53 129 -53q40 0 87.5 20t101 40t108.5 20q84 0 146 -43l-29 -162q-60 53 -135 53q-48 0 -143 -39t-156 -39q-42 0 -80.5 13.5t-54.5 29.5z" />
<glyph unicode="&#xc4;" horiz-adv-x="1294" d="M-86 0l750 1393h260l258 -1393h-250l-58 344h-512l-178 -344h-270zM479 567h359l-88 520zM514 1651q0 60 46 103.5t106 43.5q46 0 75 -30.5t29 -75.5q0 -61 -43.5 -104.5t-105.5 -43.5q-47 0 -77 30.5t-30 76.5zM915 1651q0 60 45 103.5t105 43.5q48 0 76 -30t28 -76 q0 -61 -43.5 -104.5t-105.5 -43.5q-47 0 -76 30.5t-29 76.5z" />
<glyph unicode="&#xc5;" horiz-adv-x="1294" d="M-86 0l750 1393h260l258 -1393h-250l-58 344h-512l-178 -344h-270zM479 567h359l-88 520zM631 1642q0 89 65 157.5t170 68.5q88 0 138.5 -50.5t50.5 -125.5q0 -89 -67 -157.5t-171 -68.5q-87 0 -136.5 50.5t-49.5 125.5zM743 1649q0 -34 21.5 -57t60.5 -23q50 0 82.5 33 t32.5 79q0 37 -21 60.5t-61 23.5q-50 0 -82.5 -34.5t-32.5 -81.5z" />
<glyph unicode="&#xc6;" horiz-adv-x="1808" d="M-139 0l1155 1393h809l-39 -224h-516l-64 -356h477l-38 -223h-478l-65 -367h518l-41 -223h-750l62 344h-447l-278 -344h-305zM608 567h322l92 512z" />
<glyph unicode="&#xc7;" horiz-adv-x="1200" d="M92 598q0 219 111.5 407.5t300 299t405.5 110.5q178 0 314 -86l-31 -270q-116 123 -307 123q-107 0 -208 -45.5t-176 -121.5t-120 -180.5t-45 -216.5q0 -175 105 -291t274 -116q193 0 348 121l-33 -269q-161 -80 -317 -86l-148 -288h-229l184 309q-198 52 -313 216 t-115 384z" />
<glyph unicode="&#xc8;" horiz-adv-x="1044" d="M66 0l245 1393h750l-39 -224h-518l-62 -356h478l-41 -223h-478l-63 -367h516l-39 -223h-749zM530 1790h183l94 -301h-162z" />
<glyph unicode="&#xc9;" horiz-adv-x="1044" d="M66 0l245 1393h750l-39 -224h-518l-62 -356h478l-41 -223h-478l-63 -367h516l-39 -223h-749zM614 1489l203 301h195l-221 -301h-177z" />
<glyph unicode="&#xca;" horiz-adv-x="1044" d="M66 0l245 1393h750l-39 -224h-518l-62 -356h478l-41 -223h-478l-63 -367h516l-39 -223h-749zM403 1489l236 301h231l129 -301h-163l-93 201l-161 -201h-179z" />
<glyph unicode="&#xcb;" horiz-adv-x="1044" d="M66 0l245 1393h750l-39 -224h-518l-62 -356h478l-41 -223h-478l-63 -367h516l-39 -223h-749zM410 1651q0 60 45.5 103.5t105.5 43.5q46 0 75.5 -30.5t29.5 -75.5q0 -61 -44 -104.5t-106 -43.5q-47 0 -76.5 30.5t-29.5 76.5zM811 1651q0 60 45 103.5t105 43.5q48 0 76 -30 t28 -76q0 -61 -44 -104.5t-106 -43.5q-47 0 -75.5 30.5t-28.5 76.5z" />
<glyph unicode="&#xcc;" horiz-adv-x="571" d="M66 0l245 1393h234l-246 -1393h-233zM252 1790h182l94 -301h-161z" />
<glyph unicode="&#xcd;" horiz-adv-x="571" d="M66 0l245 1393h234l-246 -1393h-233zM360 1489l203 301h195l-221 -301h-177z" />
<glyph unicode="&#xce;" horiz-adv-x="571" d="M66 0l245 1393h234l-246 -1393h-233zM145 1489l236 301h231l129 -301h-163l-93 201l-161 -201h-179z" />
<glyph unicode="&#xcf;" horiz-adv-x="571" d="M66 0l245 1393h234l-246 -1393h-233zM147 1651q0 60 46 103.5t106 43.5q46 0 75 -30.5t29 -75.5q0 -61 -43.5 -104.5t-105.5 -43.5q-47 0 -77 30.5t-30 76.5zM549 1651q0 60 44.5 103.5t104.5 43.5q48 0 76.5 -30t28.5 -76q0 -61 -44 -104.5t-106 -43.5q-47 0 -75.5 30.5 t-28.5 76.5z" />
<glyph unicode="&#xd0;" horiz-adv-x="1425" d="M66 621l28 151h119l111 621h473q264 0 417.5 -160t153.5 -426q0 -167 -57.5 -315.5t-159 -257t-249.5 -171.5t-320 -63h-504l108 621h-120zM350 223h254q153 0 273 77t183.5 205t63.5 283q0 170 -93 275.5t-261 105.5h-254l-70 -397h222l-27 -151h-221z" />
<glyph unicode="&#xd1;" horiz-adv-x="1439" d="M76 0l217 1229l-68 145l4 19h263l512 -990l176 990h233l-246 -1393h-221l-477 901l-160 -901h-233zM612 1550l27 160q47 -53 129 -53q40 0 87.5 20t101 40t108.5 20q83 0 145 -43l-28 -162q-60 53 -135 53q-48 0 -143 -39t-156 -39q-42 0 -81 13.5t-55 29.5z" />
<glyph unicode="&#xd2;" horiz-adv-x="1560" d="M92 596q0 164 66 315.5t176.5 261.5t260 176t310.5 66q175 0 313 -79.5t213.5 -220.5t75.5 -318q0 -164 -66 -316t-176.5 -262t-260 -176t-310.5 -66q-175 0 -313 80t-213.5 221t-75.5 318zM336 618q0 -175 105 -291t274 -116q142 0 268 76t202.5 206.5t76.5 280.5 q0 175 -105.5 291.5t-275.5 116.5q-140 0 -266 -76.5t-202.5 -207.5t-76.5 -280zM743 1790h183l94 -301h-162z" />
<glyph unicode="&#xd3;" horiz-adv-x="1560" d="M92 596q0 164 66 315.5t176.5 261.5t260 176t310.5 66q175 0 313 -79.5t213.5 -220.5t75.5 -318q0 -164 -66 -316t-176.5 -262t-260 -176t-310.5 -66q-175 0 -313 80t-213.5 221t-75.5 318zM336 618q0 -175 105 -291t274 -116q142 0 268 76t202.5 206.5t76.5 280.5 q0 175 -105.5 291.5t-275.5 116.5q-140 0 -266 -76.5t-202.5 -207.5t-76.5 -280zM852 1489l203 301h194l-221 -301h-176z" />
<glyph unicode="&#xd4;" horiz-adv-x="1560" d="M92 596q0 164 66 315.5t176.5 261.5t260 176t310.5 66q175 0 313 -79.5t213.5 -220.5t75.5 -318q0 -164 -66 -316t-176.5 -262t-260 -176t-310.5 -66q-175 0 -313 80t-213.5 221t-75.5 318zM336 618q0 -175 105 -291t274 -116q142 0 268 76t202.5 206.5t76.5 280.5 q0 175 -105.5 291.5t-275.5 116.5q-140 0 -266 -76.5t-202.5 -207.5t-76.5 -280zM641 1489l236 301h231l129 -301h-164l-92 201l-162 -201h-178z" />
<glyph unicode="&#xd5;" horiz-adv-x="1560" d="M92 596q0 164 66 315.5t176.5 261.5t260 176t310.5 66q175 0 313 -79.5t213.5 -220.5t75.5 -318q0 -164 -66 -316t-176.5 -262t-260 -176t-310.5 -66q-175 0 -313 80t-213.5 221t-75.5 318zM336 618q0 -175 105 -291t274 -116q142 0 268 76t202.5 206.5t76.5 280.5 q0 175 -105.5 291.5t-275.5 116.5q-140 0 -266 -76.5t-202.5 -207.5t-76.5 -280zM664 1550l26 160q47 -53 129 -53q40 0 87.5 20t101 40t108.5 20q84 0 146 -43l-29 -162q-60 53 -135 53q-48 0 -143 -39t-156 -39q-42 0 -80.5 13.5t-54.5 29.5z" />
<glyph unicode="&#xd6;" horiz-adv-x="1560" d="M92 596q0 164 66 315.5t176.5 261.5t260 176t310.5 66q175 0 313 -79.5t213.5 -220.5t75.5 -318q0 -164 -66 -316t-176.5 -262t-260 -176t-310.5 -66q-175 0 -313 80t-213.5 221t-75.5 318zM336 618q0 -175 105 -291t274 -116q142 0 268 76t202.5 206.5t76.5 280.5 q0 175 -105.5 291.5t-275.5 116.5q-140 0 -266 -76.5t-202.5 -207.5t-76.5 -280zM643 1651q0 60 46 103.5t106 43.5q46 0 75 -30.5t29 -75.5q0 -61 -43.5 -104.5t-105.5 -43.5q-47 0 -77 30.5t-30 76.5zM1044 1651q0 60 45 103.5t105 43.5q48 0 76 -30t28 -76 q0 -61 -43.5 -104.5t-105.5 -43.5q-47 0 -76 30.5t-29 76.5z" />
<glyph unicode="&#xd7;" d="M29 268l374 330l-249 317l145 119l248 -315l368 323l117 -141l-368 -323l251 -318l-141 -121l-256 320l-373 -330z" />
<glyph unicode="&#xd8;" horiz-adv-x="1560" d="M92 596q0 164 66 315.5t176.5 261.5t260 176t310.5 66q200 0 350 -106l123 141l107 -84l-129 -145q151 -175 151 -424q0 -164 -66 -316t-176.5 -262t-260 -176t-310.5 -66q-200 0 -350 105l-115 -131l-98 82l117 133q-156 170 -156 430zM336 618q0 -149 82 -258l669 760 q-87 62 -206 62q-140 0 -266 -76.5t-202.5 -207.5t-76.5 -280zM512 270q83 -59 203 -59q142 0 268 76t202.5 206.5t76.5 280.5q0 146 -80 250z" />
<glyph unicode="&#xd9;" horiz-adv-x="1316" d="M139 510l156 883h233l-159 -899q-22 -130 37.5 -209.5t183.5 -79.5q122 0 210 79.5t111 209.5l158 899h236l-156 -883q-44 -249 -198.5 -391t-385.5 -142q-232 0 -350 144t-76 389zM614 1790h183l94 -301h-162z" />
<glyph unicode="&#xda;" horiz-adv-x="1316" d="M139 510l156 883h233l-159 -899q-22 -130 37.5 -209.5t183.5 -79.5q122 0 210 79.5t111 209.5l158 899h236l-156 -883q-44 -249 -198.5 -391t-385.5 -142q-232 0 -350 144t-76 389zM721 1489l203 301h194l-221 -301h-176z" />
<glyph unicode="&#xdb;" horiz-adv-x="1316" d="M139 510l156 883h233l-159 -899q-22 -130 37.5 -209.5t183.5 -79.5q122 0 210 79.5t111 209.5l158 899h236l-156 -883q-44 -249 -198.5 -391t-385.5 -142q-232 0 -350 144t-76 389zM516 1489l236 301h231l129 -301h-164l-92 201l-162 -201h-178z" />
<glyph unicode="&#xdc;" horiz-adv-x="1316" d="M139 510l156 883h233l-159 -899q-22 -130 37.5 -209.5t183.5 -79.5q122 0 210 79.5t111 209.5l158 899h236l-156 -883q-44 -249 -198.5 -391t-385.5 -142q-232 0 -350 144t-76 389zM520 1651q0 60 46 103.5t106 43.5q46 0 75 -30.5t29 -75.5q0 -61 -43.5 -104.5 t-105.5 -43.5q-47 0 -77 30.5t-30 76.5zM922 1651q0 60 44.5 103.5t104.5 43.5q48 0 76.5 -30t28.5 -76q0 -61 -44 -104.5t-106 -43.5q-47 0 -75.5 30.5t-28.5 76.5z" />
<glyph unicode="&#xdd;" horiz-adv-x="1140" d="M150 1393h253l197 -551l391 551h275l-582 -787l-106 -606h-234l107 608zM612 1489l203 301h195l-222 -301h-176z" />
<glyph unicode="&#xde;" horiz-adv-x="1085" d="M66 0l245 1393h234l-45 -250h184q173 0 279 -96.5t106 -270.5q0 -220 -141.5 -356.5t-364.5 -136.5h-215l-49 -283h-233zM387 508h199q103 0 170 64t67 182q0 81 -45 122.5t-121 41.5h-196z" />
<glyph unicode="&#xdf;" horiz-adv-x="1101" d="M27 0l172 973q18 103 56.5 185.5t97 145t143 96.5t188.5 34q177 0 279 -93.5t102 -244.5q0 -125 -67.5 -223.5t-168.5 -143.5q168 -79 168 -289q0 -198 -136.5 -325t-362.5 -127q-75 0 -125 12l39 213q54 -14 104 -14q108 0 184 73t76 187q0 91 -49.5 137.5t-134.5 46.5 h-78l35 193h72q82 0 146 62t64 159q0 78 -44 121t-121 43q-94 0 -158 -63t-84 -177l-172 -981h-225z" />
<glyph unicode="&#xe0;" horiz-adv-x="1220" d="M51 432q0 154 72.5 291t198.5 221t272 84q116 0 197 -53.5t120 -143.5l31 177h221l-176 -1008h-223l29 156q-139 -179 -340 -179q-179 0 -290.5 131.5t-111.5 323.5zM285 455q0 -110 65 -183t172 -73q131 0 232.5 107t101.5 249q0 109 -64.5 181.5t-170.5 72.5 q-132 0 -234 -106.5t-102 -247.5zM500 1425h182l94 -301h-162z" />
<glyph unicode="&#xe1;" horiz-adv-x="1220" d="M51 432q0 154 72.5 291t198.5 221t272 84q116 0 197 -53.5t120 -143.5l31 177h221l-176 -1008h-223l29 156q-139 -179 -340 -179q-179 0 -290.5 131.5t-111.5 323.5zM285 455q0 -110 65 -183t172 -73q131 0 232.5 107t101.5 249q0 109 -64.5 181.5t-170.5 72.5 q-132 0 -234 -106.5t-102 -247.5zM598 1124l203 301h194l-221 -301h-176z" />
<glyph unicode="&#xe2;" horiz-adv-x="1220" d="M51 432q0 154 72.5 291t198.5 221t272 84q116 0 197 -53.5t120 -143.5l31 177h221l-176 -1008h-223l29 156q-139 -179 -340 -179q-179 0 -290.5 131.5t-111.5 323.5zM285 455q0 -110 65 -183t172 -73q131 0 232.5 107t101.5 249q0 109 -64.5 181.5t-170.5 72.5 q-132 0 -234 -106.5t-102 -247.5zM399 1124l236 301h231l129 -301h-164l-92 201l-161 -201h-179z" />
<glyph unicode="&#xe3;" horiz-adv-x="1220" d="M51 432q0 154 72.5 291t198.5 221t272 84q116 0 197 -53.5t120 -143.5l31 177h221l-176 -1008h-223l29 156q-139 -179 -340 -179q-179 0 -290.5 131.5t-111.5 323.5zM285 455q0 -110 65 -183t172 -73q131 0 232.5 107t101.5 249q0 109 -64.5 181.5t-170.5 72.5 q-132 0 -234 -106.5t-102 -247.5zM424 1186l27 160q47 -54 129 -54q40 0 87.5 20t101 40t108.5 20q83 0 145 -43l-29 -162q-61 54 -135 54q-48 0 -143 -39t-156 -39q-42 0 -80.5 13.5t-54.5 29.5z" />
<glyph unicode="&#xe4;" horiz-adv-x="1220" d="M51 432q0 154 72.5 291t198.5 221t272 84q116 0 197 -53.5t120 -143.5l31 177h221l-176 -1008h-223l29 156q-139 -179 -340 -179q-179 0 -290.5 131.5t-111.5 323.5zM285 455q0 -110 65 -183t172 -73q131 0 232.5 107t101.5 249q0 109 -64.5 181.5t-170.5 72.5 q-132 0 -234 -106.5t-102 -247.5zM401 1286q0 60 46 104t106 44q46 0 75 -31t29 -76q0 -61 -43.5 -104t-105.5 -43q-47 0 -77 30t-30 76zM803 1286q0 60 44.5 104t104.5 44q48 0 76.5 -30.5t28.5 -76.5q0 -61 -44 -104t-106 -43q-47 0 -75.5 30t-28.5 76z" />
<glyph unicode="&#xe5;" horiz-adv-x="1220" d="M51 432q0 154 72.5 291t198.5 221t272 84q116 0 197 -53.5t120 -143.5l31 177h221l-176 -1008h-223l29 156q-139 -179 -340 -179q-179 0 -290.5 131.5t-111.5 323.5zM285 455q0 -110 65 -183t172 -73q131 0 232.5 107t101.5 249q0 109 -64.5 181.5t-170.5 72.5 q-132 0 -234 -106.5t-102 -247.5zM518 1278q0 89 65.5 157t170.5 68q88 0 138 -50.5t50 -125.5q0 -89 -66.5 -157t-170.5 -68q-87 0 -137 50.5t-50 125.5zM631 1284q0 -34 21.5 -57t60.5 -23q50 0 82 33.5t32 79.5q0 37 -21 60.5t-61 23.5q-50 0 -82 -35t-32 -82z" />
<glyph unicode="&#xe6;" horiz-adv-x="1683" d="M4 276q0 153 114 258t281 105q68 0 127.5 -27.5t91.5 -68.5l15 84q18 101 -30 150.5t-136 49.5q-135 0 -270 -79l36 217q140 63 283 63q122 0 204 -45.5t107 -140.5q78 87 181.5 136.5t216.5 49.5q182 0 290.5 -117t108.5 -293q0 -109 -27 -188h-735q-1 -114 68.5 -181 t189.5 -67q89 0 185 31t174 80l-39 -223q-169 -93 -371 -93q-133 0 -224.5 53t-129.5 142q-155 -195 -387 -195q-155 0 -239.5 86.5t-84.5 212.5zM231 287q0 -59 41 -99.5t103 -40.5q80 0 141.5 55.5t61.5 129.5q0 59 -42 100t-104 41q-79 0 -140 -56t-61 -130zM893 602h520 v35q0 91 -58.5 147t-152.5 56q-105 0 -194 -69t-115 -169z" />
<glyph unicode="&#xe7;" horiz-adv-x="907" d="M49 434q0 160 78.5 296t218 217t307.5 81q59 0 127 -15t107 -40l-39 -242q-85 78 -219 78q-138 0 -242 -105.5t-104 -246.5q0 -111 65 -184.5t172 -73.5q140 0 248 77l-39 -241q-90 -49 -194 -55l-148 -291h-229l184 311q-136 44 -214.5 160t-78.5 274z" />
<glyph unicode="&#xe8;" horiz-adv-x="1091" d="M51 430q0 166 76 303t209 216t293 79q183 0 293 -112.5t110 -284.5q0 -114 -26 -203h-736q0 -110 69 -178t187 -68q91 0 186.5 31t172.5 80l-39 -223q-178 -93 -352 -93q-197 0 -320 127.5t-123 325.5zM299 602h518q2 12 2 35q0 91 -57.5 147t-151.5 56q-108 0 -197 -68 t-114 -170zM485 1425h183l94 -301h-162z" />
<glyph unicode="&#xe9;" horiz-adv-x="1091" d="M51 430q0 166 76 303t209 216t293 79q183 0 293 -112.5t110 -284.5q0 -114 -26 -203h-736q0 -110 69 -178t187 -68q91 0 186.5 31t172.5 80l-39 -223q-178 -93 -352 -93q-197 0 -320 127.5t-123 325.5zM299 602h518q2 12 2 35q0 91 -57.5 147t-151.5 56q-108 0 -197 -68 t-114 -170zM578 1124l202 301h195l-221 -301h-176z" />
<glyph unicode="&#xea;" horiz-adv-x="1091" d="M51 430q0 166 76 303t209 216t293 79q183 0 293 -112.5t110 -284.5q0 -114 -26 -203h-736q0 -110 69 -178t187 -68q91 0 186.5 31t172.5 80l-39 -223q-178 -93 -352 -93q-197 0 -320 127.5t-123 325.5zM299 602h518q2 12 2 35q0 91 -57.5 147t-151.5 56q-108 0 -197 -68 t-114 -170zM377 1124l235 301h232l129 -301h-164l-92 201l-162 -201h-178z" />
<glyph unicode="&#xeb;" horiz-adv-x="1091" d="M51 430q0 166 76 303t209 216t293 79q183 0 293 -112.5t110 -284.5q0 -114 -26 -203h-736q0 -110 69 -178t187 -68q91 0 186.5 31t172.5 80l-39 -223q-178 -93 -352 -93q-197 0 -320 127.5t-123 325.5zM299 602h518q2 12 2 35q0 91 -57.5 147t-151.5 56q-108 0 -197 -68 t-114 -170zM373 1286q0 60 45.5 104t105.5 44q46 0 75.5 -31t29.5 -76q0 -61 -44 -104t-106 -43q-47 0 -76.5 30t-29.5 76zM774 1286q0 60 45 104t105 44q48 0 76 -30.5t28 -76.5q0 -61 -43.5 -104t-105.5 -43q-47 0 -76 30t-29 76z" />
<glyph unicode="&#xec;" horiz-adv-x="485" d="M27 0l178 1008h225l-178 -1008h-225zM145 1425h183l94 -301h-162z" />
<glyph unicode="&#xed;" horiz-adv-x="485" d="M27 0l178 1008h225l-178 -1008h-225zM250 1124l203 301h194l-221 -301h-176z" />
<glyph unicode="&#xee;" horiz-adv-x="485" d="M27 0l178 1008h225l-178 -1008h-225zM39 1124l235 301h232l129 -301h-164l-92 201l-162 -201h-178z" />
<glyph unicode="&#xef;" horiz-adv-x="485" d="M27 0l178 1008h225l-178 -1008h-225zM41 1286q0 60 46 104t106 44q46 0 75 -31t29 -76q0 -61 -44 -104t-106 -43q-47 0 -76.5 30t-29.5 76zM442 1286q0 60 45 104t105 44q48 0 76 -30.5t28 -76.5q0 -61 -43.5 -104t-105.5 -43q-47 0 -76 30t-29 76z" />
<glyph unicode="&#xf0;" horiz-adv-x="1105" d="M45 414q0 113 49.5 216.5t129.5 175.5t183.5 114.5t210.5 42.5h9l-189 395h-47l6 35h338l-6 -35h-29l248 -555q70 -160 70 -279q0 -144 -76 -270.5t-205 -201.5t-278 -75q-185 0 -299.5 124t-114.5 313zM287 430q0 -95 54 -157t144 -62q117 0 205 90t88 211 q0 94 -54.5 155.5t-145.5 61.5q-116 0 -203.5 -88.5t-87.5 -210.5z" />
<glyph unicode="&#xf1;" horiz-adv-x="1101" d="M27 0l178 1008h225l-22 -127q54 75 122.5 111t165.5 36q161 0 242.5 -109.5t52.5 -279.5l-112 -639h-224l103 582q17 102 -26 164.5t-136 62.5q-90 0 -155 -58.5t-85 -156.5l-104 -594h-225zM373 1186l26 160q47 -54 129 -54q40 0 87.5 20t101 40t108.5 20q84 0 146 -43 l-29 -162q-61 54 -135 54q-48 0 -143 -39t-156 -39q-42 0 -80.5 13.5t-54.5 29.5z" />
<glyph unicode="&#xf2;" horiz-adv-x="1163" d="M49 436q0 118 48 228t127.5 189.5t187.5 127t223 47.5q197 0 323.5 -128t126.5 -327q0 -118 -48 -228.5t-127.5 -190.5t-188 -128.5t-223.5 -48.5q-197 0 -323 129.5t-126 329.5zM281 457q0 -110 64.5 -184t172.5 -74q131 0 232.5 107t101.5 249q0 108 -65 181t-171 73 q-131 0 -233 -106t-102 -246zM504 1425h182l94 -301h-162z" />
<glyph unicode="&#xf3;" horiz-adv-x="1163" d="M49 436q0 118 48 228t127.5 189.5t187.5 127t223 47.5q197 0 323.5 -128t126.5 -327q0 -118 -48 -228.5t-127.5 -190.5t-188 -128.5t-223.5 -48.5q-197 0 -323 129.5t-126 329.5zM281 457q0 -110 64.5 -184t172.5 -74q131 0 232.5 107t101.5 249q0 108 -65 181t-171 73 q-131 0 -233 -106t-102 -246zM598 1124l203 301h194l-221 -301h-176z" />
<glyph unicode="&#xf4;" horiz-adv-x="1163" d="M49 436q0 118 48 228t127.5 189.5t187.5 127t223 47.5q197 0 323.5 -128t126.5 -327q0 -118 -48 -228.5t-127.5 -190.5t-188 -128.5t-223.5 -48.5q-197 0 -323 129.5t-126 329.5zM281 457q0 -110 64.5 -184t172.5 -74q131 0 232.5 107t101.5 249q0 108 -65 181t-171 73 q-131 0 -233 -106t-102 -246zM379 1124l235 301h232l129 -301h-164l-92 201l-162 -201h-178z" />
<glyph unicode="&#xf5;" horiz-adv-x="1163" d="M49 436q0 118 48 228t127.5 189.5t187.5 127t223 47.5q197 0 323.5 -128t126.5 -327q0 -118 -48 -228.5t-127.5 -190.5t-188 -128.5t-223.5 -48.5q-197 0 -323 129.5t-126 329.5zM281 457q0 -110 64.5 -184t172.5 -74q131 0 232.5 107t101.5 249q0 108 -65 181t-171 73 q-131 0 -233 -106t-102 -246zM401 1186l27 160q47 -54 129 -54q40 0 87.5 20t101 40t108.5 20q83 0 145 -43l-28 -162q-61 54 -135 54q-48 0 -143 -39t-156 -39q-42 0 -81 13.5t-55 29.5z" />
<glyph unicode="&#xf6;" horiz-adv-x="1163" d="M49 436q0 118 48 228t127.5 189.5t187.5 127t223 47.5q197 0 323.5 -128t126.5 -327q0 -118 -48 -228.5t-127.5 -190.5t-188 -128.5t-223.5 -48.5q-197 0 -323 129.5t-126 329.5zM281 457q0 -110 64.5 -184t172.5 -74q131 0 232.5 107t101.5 249q0 108 -65 181t-171 73 q-131 0 -233 -106t-102 -246zM383 1286q0 60 46 104t106 44q46 0 75 -31t29 -76q0 -61 -44 -104t-106 -43q-47 0 -76.5 30t-29.5 76zM784 1286q0 60 45 104t105 44q48 0 76 -30.5t28 -76.5q0 -61 -43.5 -104t-105.5 -43q-47 0 -76 30t-29 76z" />
<glyph unicode="&#xf7;" d="M70 498l30 174h893l-30 -174h-893zM326 164q0 64 48 108.5t115 44.5q52 0 83.5 -31t31.5 -81q0 -64 -48 -109t-114 -45q-52 0 -84 31.5t-32 81.5zM467 958q0 65 47.5 110.5t114.5 45.5q52 0 84 -31.5t32 -81.5q0 -65 -48 -110t-115 -45q-52 0 -83.5 31t-31.5 81z" />
<glyph unicode="&#xf8;" horiz-adv-x="1163" d="M49 436q0 118 48 228t127.5 189.5t187.5 127t223 47.5q143 0 252 -70l86 99l104 -84l-92 -105q100 -121 100 -295q0 -118 -48 -228.5t-127.5 -190.5t-188 -128.5t-223.5 -48.5q-134 0 -248 70l-84 -96l-96 82l86 96q-107 119 -107 307zM264 453q0 -87 45 -148l432 488 q-56 32 -120 32q-140 0 -248.5 -111.5t-108.5 -260.5zM399 213q54 -33 117 -33q139 0 245.5 114t106.5 265q0 77 -41 133z" />
<glyph unicode="&#xf9;" horiz-adv-x="1103" d="M84 367l113 641h225l-103 -580q-19 -104 24 -166.5t136 -62.5q90 0 154 58.5t86 156.5l104 594h226l-179 -1008h-225l25 123q-103 -146 -293 -146q-159 0 -240.5 111t-52.5 279zM442 1425h183l94 -301h-162z" />
<glyph unicode="&#xfa;" horiz-adv-x="1103" d="M84 367l113 641h225l-103 -580q-19 -104 24 -166.5t136 -62.5q90 0 154 58.5t86 156.5l104 594h226l-179 -1008h-225l25 123q-103 -146 -293 -146q-159 0 -240.5 111t-52.5 279zM551 1124l203 301h194l-221 -301h-176z" />
<glyph unicode="&#xfb;" horiz-adv-x="1103" d="M84 367l113 641h225l-103 -580q-19 -104 24 -166.5t136 -62.5q90 0 154 58.5t86 156.5l104 594h226l-179 -1008h-225l25 123q-103 -146 -293 -146q-159 0 -240.5 111t-52.5 279zM336 1124l235 301h232l129 -301h-164l-92 201l-162 -201h-178z" />
<glyph unicode="&#xfc;" horiz-adv-x="1103" d="M84 367l113 641h225l-103 -580q-19 -104 24 -166.5t136 -62.5q90 0 154 58.5t86 156.5l104 594h226l-179 -1008h-225l25 123q-103 -146 -293 -146q-159 0 -240.5 111t-52.5 279zM344 1286q0 60 46 104t106 44q46 0 75 -31t29 -76q0 -61 -43.5 -104t-105.5 -43 q-47 0 -77 30t-30 76zM745 1286q0 60 45 104t105 44q48 0 76 -30.5t28 -76.5q0 -61 -43.5 -104t-105.5 -43q-47 0 -76 30t-29 76z" />
<glyph unicode="&#xfd;" horiz-adv-x="1030" d="M-14 -420l309 498l-203 930h244l123 -648l362 648h264l-839 -1428h-260zM510 1124l203 301h194l-221 -301h-176z" />
<glyph unicode="&#xfe;" horiz-adv-x="1234" d="M-47 -420l323 1833h226l-101 -561q137 178 357 178q175 0 286 -132t111 -325q0 -155 -73 -291.5t-200 -219t-276 -82.5q-116 0 -201 54.5t-122 141.5l-105 -596h-225zM336 457q0 -109 66 -182.5t171 -73.5q137 0 242 105t105 245q0 110 -66.5 184t-173.5 74 q-138 0 -241 -106t-103 -246z" />
<glyph unicode="&#xff;" horiz-adv-x="1030" d="M-14 -420l309 498l-203 930h244l123 -648l362 648h264l-839 -1428h-260zM301 1286q0 60 46 104t106 44q46 0 75 -31t29 -76q0 -61 -43.5 -104t-105.5 -43q-47 0 -77 30t-30 76zM702 1286q0 60 45 104t105 44q48 0 76 -30.5t28 -76.5q0 -61 -43.5 -104t-105.5 -43 q-47 0 -76 30t-29 76z" />
<glyph unicode="&#x152;" horiz-adv-x="2117" d="M92 596q0 164 66 315.5t176.5 261.5t260 176t310.5 66q148 0 262 -67.5t174 -182.5l41 228h752l-41 -224h-516l-64 -356h478l-39 -223h-477l-64 -367h516l-39 -223h-751l32 184q-90 -96 -214 -151.5t-261 -55.5q-175 0 -313 80t-213.5 221t-75.5 318zM336 618 q0 -175 105 -291t274 -116q142 0 268 76t202.5 206.5t76.5 280.5q0 175 -105.5 291.5t-275.5 116.5q-140 0 -266 -76.5t-202.5 -207.5t-76.5 -280z" />
<glyph unicode="&#x153;" horiz-adv-x="1888" d="M49 436q0 217 148.5 385.5t357.5 198.5q71 9 139 0q99 -13 179 -65t128 -132q74 94 185.5 149.5t238.5 55.5q184 0 295 -112.5t111 -284.5q0 -118 -29 -203h-733q0 -110 68.5 -178t185.5 -68q91 0 186 31t174 80l-41 -223q-178 -93 -352 -93q-123 0 -217.5 57t-146.5 156 q-78 -98 -190 -155.5t-244 -57.5q-133 0 -235.5 63.5t-155 167t-52.5 228.5zM281 457q0 -110 64.5 -184t172.5 -74q131 0 232.5 107t101.5 249q0 108 -65 181t-171 73q-131 0 -233 -106t-102 -246zM1098 602h518q2 10 2 35q0 91 -57.5 147t-151.5 56q-108 0 -197 -68 t-114 -170z" />
<glyph unicode="&#x178;" horiz-adv-x="1140" d="M150 1393h253l197 -551l391 551h275l-582 -787l-106 -606h-234l107 608zM412 1651q0 60 45.5 103.5t105.5 43.5q46 0 75.5 -30.5t29.5 -75.5q0 -61 -44 -104.5t-106 -43.5q-47 0 -76.5 30.5t-29.5 76.5zM813 1651q0 60 45 103.5t105 43.5q48 0 76 -30t28 -76 q0 -61 -43.5 -104.5t-105.5 -43.5q-47 0 -76 30.5t-29 76.5z" />
<glyph unicode="&#x2c6;" horiz-adv-x="1153" d="M477 1124l236 301h231l129 -301h-164l-92 201l-162 -201h-178z" />
<glyph unicode="&#x2dc;" horiz-adv-x="1153" d="M500 1186l26 160q47 -54 129 -54q40 0 87.5 20t101 40t108.5 20q84 0 146 -43l-29 -162q-61 54 -135 54q-48 0 -143 -39t-156 -39q-42 0 -80.5 13.5t-54.5 29.5z" />
<glyph unicode="&#x2000;" horiz-adv-x="934" />
<glyph unicode="&#x2001;" horiz-adv-x="1868" />
<glyph unicode="&#x2002;" horiz-adv-x="934" />
<glyph unicode="&#x2003;" horiz-adv-x="1868" />
<glyph unicode="&#x2004;" horiz-adv-x="622" />
<glyph unicode="&#x2005;" horiz-adv-x="467" />
<glyph unicode="&#x2006;" horiz-adv-x="311" />
<glyph unicode="&#x2007;" horiz-adv-x="311" />
<glyph unicode="&#x2008;" horiz-adv-x="233" />
<glyph unicode="&#x2009;" horiz-adv-x="373" />
<glyph unicode="&#x200a;" horiz-adv-x="103" />
<glyph unicode="&#x2010;" horiz-adv-x="755" d="M98 479l37 211h520l-37 -211h-520z" />
<glyph unicode="&#x2011;" horiz-adv-x="755" d="M98 479l37 211h520l-37 -211h-520z" />
<glyph unicode="&#x2012;" horiz-adv-x="755" d="M98 479l37 211h520l-37 -211h-520z" />
<glyph unicode="&#x2013;" horiz-adv-x="1171" d="M98 489l33 187h936l-33 -187h-936z" />
<glyph unicode="&#x2014;" horiz-adv-x="1449" d="M98 489l33 187h1215l-33 -187h-1215z" />
<glyph unicode="&#x2018;" horiz-adv-x="493" d="M137 862l199 531h205l-152 -531h-252z" />
<glyph unicode="&#x2019;" horiz-adv-x="487" d="M150 860l153 533h250l-197 -533h-206z" />
<glyph unicode="&#x201a;" horiz-adv-x="530" d="M-45 -252l154 533h249l-196 -533h-207z" />
<glyph unicode="&#x201c;" horiz-adv-x="901" d="M137 862l199 531h205l-152 -531h-252zM547 862l198 531h205l-151 -531h-252z" />
<glyph unicode="&#x201d;" horiz-adv-x="894" d="M150 860l153 533h250l-197 -533h-206zM557 860l154 533h250l-197 -533h-207z" />
<glyph unicode="&#x201e;" horiz-adv-x="940" d="M-45 -252l154 533h249l-196 -533h-207zM365 -252l153 533h250l-197 -533h-206z" />
<glyph unicode="&#x2022;" horiz-adv-x="778" d="M137 545q0 117 86 197.5t207 80.5q94 0 151.5 -56.5t57.5 -145.5q0 -118 -86 -198.5t-207 -80.5q-94 0 -151.5 56.5t-57.5 146.5z" />
<glyph unicode="&#x2026;" horiz-adv-x="1492" d="M16 115q0 76 57 131t134 55q60 0 97.5 -38.5t37.5 -98.5q0 -76 -57 -130t-135 -54q-60 0 -97 37.5t-37 97.5zM506 115q0 76 56.5 131t133.5 55q61 0 98 -38t37 -99q0 -76 -57 -130t-135 -54q-60 0 -96.5 37.5t-36.5 97.5zM997 115q0 76 56 131t133 55q61 0 98 -38t37 -99 q0 -76 -57 -130t-134 -54q-61 0 -97 37t-36 98z" />
<glyph unicode="&#x202f;" horiz-adv-x="373" />
<glyph unicode="&#x2039;" horiz-adv-x="606" d="M74 582l403 452l101 -100l-283 -367l156 -364l-134 -74z" />
<glyph unicode="&#x203a;" horiz-adv-x="606" d="M27 229l282 367l-155 367l133 71l243 -452l-403 -453z" />
<glyph unicode="&#x205f;" horiz-adv-x="467" />
<glyph unicode="&#x20ac;" d="M20 457l66 155h98l25 142h-135l65 157h99v2q41 226 197.5 364t371.5 138q89 0 174.5 -32.5t140.5 -79.5l-104 -222q-30 47 -96.5 76t-139.5 29q-122 0 -205 -74t-106 -201h461l-68 -157h-422l-24 -142h381l-68 -155h-340q-14 -117 40.5 -183.5t170.5 -66.5 q82 0 157.5 33.5t129.5 87.5l45 -211q-156 -140 -356 -140q-214 0 -332 133t-86 347h-140z" />
<glyph unicode="&#x2122;" horiz-adv-x="1603" d="M225 1264l23 129h489l-24 -129h-178l-101 -570h-133l98 570h-174zM733 694l125 699h152l120 -527l302 527h172l-125 -699h-133l79 453l-260 -453h-116l-103 453l-80 -453h-133z" />
<glyph unicode="&#x25fc;" horiz-adv-x="1003" d="M0 0v1004h1004v-1004h-1004z" />
</font>
</defs>
</svg>
