<?xml version="1.0" standalone="no"?>
<!DOCTYPE svg PUBLIC "-//W3C//DTD SVG 1.1//EN" "http://www.w3.org/Graphics/SVG/1.1/DTD/svg11.dtd" >
<svg xmlns="http://www.w3.org/2000/svg" xmlns:xlink="http://www.w3.org/1999/xlink" version="1.1">
<metadata></metadata>
<defs>
<font id="niveau_groteskblack" horiz-adv-x="1064" >
<font-face units-per-em="2048" ascent="1536" descent="-512" />
<missing-glyph horiz-adv-x="421" />
<glyph unicode="&#xfb01;" horiz-adv-x="1228" d="M45 696v285h137v63q0 190 110 290t300 100q48 0 98 -11v-331q-32 16 -86 16q-39 0 -63.5 -25t-24.5 -61v-41h174v-285h-174v-696h-334v696h-137zM766 1321q0 79 54.5 134.5t135.5 55.5q82 0 136.5 -55.5t54.5 -134.5q0 -82 -54 -136.5t-137 -54.5q-82 0 -136 54.5 t-54 136.5zM791 0v1032h333v-1032h-333z" />
<glyph unicode="&#xfb02;" horiz-adv-x="1226" d="M45 696v285h137v63q0 190 110 290t300 100q48 0 98 -11v-331q-32 16 -86 16q-39 0 -63.5 -25t-24.5 -61v-41h174v-285h-174v-696h-334v696h-137zM788 0v1413h334v-1413h-334z" />
<glyph horiz-adv-x="0" />
<glyph horiz-adv-x="682" />
<glyph unicode=" "  horiz-adv-x="421" />
<glyph unicode="&#x09;" horiz-adv-x="421" />
<glyph unicode="&#xa0;" horiz-adv-x="421" />
<glyph unicode="!" horiz-adv-x="581" d="M70 199q0 95 62 158t157 63t158 -63t63 -158t-63 -157t-158 -62t-157 62t-62 157zM96 1393h389l-82 -889h-225z" />
<glyph unicode="&#x22;" horiz-adv-x="985" d="M88 1393h348l-20 -504h-307zM549 1393h348l-20 -504h-308z" />
<glyph unicode="#" horiz-adv-x="1366" d="M66 356v185h221l86 288h-246v185h301l113 379h225l-113 -379h267l112 379h225l-112 -379h155v-185h-210l-86 -288h235v-185h-291l-106 -356h-224l105 356h-266l-107 -356h-223l104 356h-165zM512 541h266l86 288h-266z" />
<glyph unicode="$" horiz-adv-x="1017" d="M72 989q0 56 12 108t40.5 103t71.5 91.5t110 71t151 42.5v188h112v-178h13q158 0 297 -57v-363q-58 37 -143.5 66t-155.5 29t-103 -25t-33 -64q0 -47 91 -100l157 -90q135 -78 197.5 -175.5t62.5 -221.5q0 -106 -39.5 -194t-128 -152t-215.5 -82v-226h-112v217 q-193 3 -346 66v379q61 -48 158 -83.5t184 -35.5q62 0 95.5 23t33.5 67q0 49 -93 101l-165 94q-140 80 -196 175t-56 226z" />
<glyph unicode="%" horiz-adv-x="1871" d="M63 850v237q0 142 97.5 234t245.5 92t245 -92t97 -234v-237q0 -142 -97 -235t-245 -93t-245.5 93t-97.5 235zM299 856q0 -47 28.5 -75.5t78.5 -28.5t78 28.5t28 75.5v225q0 47 -28 75t-78 28t-78.5 -28t-28.5 -75v-225zM510 0l618 1393h246l-620 -1393h-244zM1124 305 v238q0 142 97 233.5t245 91.5t245 -91.5t97 -233.5v-238q0 -142 -97 -235t-245 -93t-245 93t-97 235zM1360 311q0 -47 28 -75.5t78 -28.5t78.5 28.5t28.5 75.5v226q0 46 -28.5 74t-78.5 28t-78 -27.5t-28 -74.5v-226z" />
<glyph unicode="&#x26;" horiz-adv-x="1435" d="M53 422q0 88 24.5 159.5t69.5 121.5t94.5 83.5t114.5 61.5l-8 12q-80 98 -80 207q0 150 108.5 248t280.5 98q174 0 278.5 -97t104.5 -257q0 -85 -31 -151.5t-76.5 -107t-111.5 -73.5l123 -143l371 391v-455l-168 -178l291 -342h-416l-94 119q-174 -142 -385 -142 q-118 0 -213.5 37t-154.5 99.5t-90.5 141.5t-31.5 167zM393 446q0 -62 40.5 -106.5t109.5 -44.5q91 0 188 76l-190 241q-71 -31 -109.5 -69.5t-38.5 -96.5zM588 1047q0 -22 8 -39t29 -47l8 -11q44 21 66 42.5t22 51.5q0 33 -16.5 52.5t-47.5 19.5t-50 -19t-19 -50z" />
<glyph unicode="'" horiz-adv-x="524" d="M88 1393h348l-20 -504h-307z" />
<glyph unicode="(" horiz-adv-x="567" d="M51 496q0 260 85 503.5t222 415.5l183 -115q-118 -171 -175 -362.5t-57 -441.5q0 -248 57 -440t175 -363l-183 -115q-137 172 -222 415.5t-85 502.5z" />
<glyph unicode=")" horiz-adv-x="567" d="M27 -307q118 171 174.5 363t56.5 442q0 249 -56.5 440t-174.5 362l182 115q137 -172 222 -415t85 -502q0 -260 -85 -504t-222 -416z" />
<glyph unicode="*" horiz-adv-x="720" d="M68 997l188 109l-188 111l47 83l192 -110v223h96v-221l191 111l49 -84l-192 -113l192 -109l-49 -84l-191 109v-217h-96v217l-190 -109z" />
<glyph unicode="+" d="M63 455v256h328v342h277v-342h331v-256h-331v-342h-277v342h-328z" />
<glyph unicode="," horiz-adv-x="563" d="M61 -221l56 608h368l-116 -608h-308z" />
<glyph unicode="-" horiz-adv-x="759" d="M96 426v315h568v-315h-568z" />
<glyph unicode="." horiz-adv-x="567" d="M63 199q0 95 62.5 158t157.5 63t158 -63t63 -158t-63 -157t-158 -62t-157.5 62t-62.5 157z" />
<glyph unicode="/" horiz-adv-x="942" d="M39 0l618 1393h246l-620 -1393h-244z" />
<glyph unicode="0" horiz-adv-x="1212" d="M84 498v399q0 225 148 371.5t374 146.5t374 -146.5t148 -371.5v-399q0 -226 -148 -373.5t-374 -147.5t-374 147.5t-148 373.5zM432 506q0 -85 46 -137t128 -52t128 52t46 137v381q0 86 -46 137t-128 51t-128 -51t-46 -137v-381z" />
<glyph unicode="1" horiz-adv-x="999" d="M61 0v336h301v721h-239v336h588v-1057h260v-336h-910z" />
<glyph unicode="2" horiz-adv-x="968" d="M78 0v295l360 450q42 51 65 101.5t23 83.5q0 64 -34.5 100.5t-96.5 36.5q-159 0 -291 -121v387q57 37 145 59.5t173 22.5q97 0 176.5 -24t132 -64.5t88 -95t51 -113t15.5 -121.5q0 -123 -35 -212.5t-102 -174.5l-216 -274h342v-336h-796z" />
<glyph unicode="3" horiz-adv-x="954" d="M88 37v389q118 -100 291 -100q64 0 106.5 31t42.5 83q0 51 -38.5 78t-106.5 27h-190v336h188q47 0 79 24.5t32 65.5q0 43 -33 69.5t-88 26.5q-152 0 -265 -80v373q127 55 279 55q211 0 338 -112.5t127 -282.5q0 -214 -158 -305q91 -48 143 -130.5t52 -197.5 q0 -171 -137.5 -290.5t-348.5 -119.5q-158 0 -313 60z" />
<glyph unicode="4" horiz-adv-x="1173" d="M31 252v295l571 846h348v-805h156v-336h-156v-252h-348v252h-571zM395 588h207v321z" />
<glyph unicode="5" horiz-adv-x="1011" d="M92 47v416q144 -137 311 -137q76 0 124 42.5t48 104.5q0 36 -14.5 61.5t-35 39t-56.5 20.5t-64.5 8.5t-74.5 1.5h-187l62 789h700v-336h-387l-16 -131q201 -17 316.5 -137.5t115.5 -315.5q0 -242 -140 -369t-370 -127q-86 0 -178 19.5t-154 50.5z" />
<glyph unicode="6" horiz-adv-x="1126" d="M55 485q0 153 88 301l369 607h418l-279 -432q179 -28 298.5 -154t119.5 -322q0 -217 -145.5 -362.5t-360.5 -145.5q-217 0 -362.5 145.5t-145.5 362.5zM408 485q0 -66 44.5 -112.5t110.5 -46.5t110 46t44 113q0 66 -44 112t-110 46t-110.5 -46t-44.5 -112z" />
<glyph unicode="7" horiz-adv-x="923" d="M57 1057v336h828v-295l-412 -1098h-397l424 1057h-443z" />
<glyph unicode="8" horiz-adv-x="1069" d="M66 426q0 218 167 324q-118 91 -118 264q0 175 120 288t297 113q180 0 301 -113t121 -288q0 -170 -120 -266q80 -49 125 -130.5t45 -191.5q0 -196 -135 -322.5t-337 -126.5q-200 0 -333 126.5t-133 322.5zM393 430q0 -61 40 -103t99 -42q62 0 103 42t41 103q0 64 -41 107 t-103 43q-60 0 -99.5 -43.5t-39.5 -106.5zM440 1012q0 -42 26.5 -70.5t68.5 -28.5t68 28.5t26 70.5t-26 69t-68 27t-68.5 -27t-26.5 -69z" />
<glyph unicode="9" horiz-adv-x="1126" d="M57 907q0 217 145.5 362.5t360.5 145.5q217 0 362.5 -145.5t145.5 -362.5q0 -153 -88 -301l-369 -606h-417l272 412q-175 31 -293.5 164t-118.5 331zM410 907q0 -66 43.5 -111.5t109.5 -45.5t111 45.5t45 111.5t-45 113t-111 47q-65 0 -109 -46.5t-44 -113.5z" />
<glyph unicode=":" horiz-adv-x="571" d="M88 176q0 86 55.5 142.5t141.5 56.5t142 -56.5t56 -142.5t-56 -141t-142 -55t-141.5 55t-55.5 141zM88 793q0 86 55.5 142t141.5 56t142 -56t56 -142t-56 -141.5t-142 -55.5t-141.5 55.5t-55.5 141.5z" />
<glyph unicode=";" horiz-adv-x="569" d="M70 -213l51 547h332l-107 -547h-276zM100 793q0 86 55.5 142t141.5 56t142.5 -56t56.5 -142t-56.5 -141.5t-142.5 -55.5t-141.5 55.5t-55.5 141.5z" />
<glyph unicode="&#x3c;" d="M43 455v256l936 354v-264l-608 -219l608 -217v-263z" />
<glyph unicode="=" d="M63 225v256h936v-256h-936zM63 686v256h936v-256h-936z" />
<glyph unicode="&#x3e;" d="M84 102v263l608 217l-608 219v264l936 -354v-256z" />
<glyph unicode="?" horiz-adv-x="890" d="M74 971v393q117 49 291 49q97 0 176.5 -24t131.5 -64.5t87.5 -95t51 -113t15.5 -121.5q0 -55 -11.5 -101.5t-34 -81t-40 -55t-43.5 -44.5l-100 -92q-31 -28 -39 -49.5t-8 -67.5h-338q0 113 17.5 166t86.5 106l93 72q59 46 59 115q0 47 -34.5 74.5t-102.5 27.5 q-59 0 -135 -27.5t-123 -66.5zM162 199q0 95 62 158t157 63t158 -63t63 -158t-63 -157t-158 -62t-157 62t-62 157z" />
<glyph unicode="@" horiz-adv-x="1632" d="M78 553q0 160 56.5 298.5t155 237t237 155t298.5 56.5q213 0 384 -89.5t267.5 -250t96.5 -360.5q0 -95 -27.5 -174.5t-73 -131t-103.5 -80t-120 -28.5q-145 0 -205 111q-92 -123 -260 -123q-159 0 -259.5 109t-100.5 272q0 165 100 273t260 108q134 0 226 -82v61h164 v-448q0 -121 90 -121q56 0 94.5 67.5t38.5 186.5q0 112 -43.5 211.5t-118.5 171.5t-181.5 114t-228.5 42q-162 0 -293 -77.5t-204.5 -211.5t-73.5 -297t73.5 -297t204.5 -211.5t293 -77.5q109 0 208.5 37t174.5 102l99 -124q-202 -177 -482 -177q-213 0 -384 96.5 t-267 267.5t-96 384zM600 555q0 -93 56.5 -157t146.5 -64q93 0 149 63.5t56 157.5q0 93 -56 156t-149 63q-90 0 -146.5 -63t-56.5 -156z" />
<glyph unicode="A" horiz-adv-x="1368" d="M-23 0l512 1393h390l512 -1393h-390l-86 252h-464l-84 -252h-390zM565 588h238l-119 350z" />
<glyph unicode="B" horiz-adv-x="1204" d="M139 0v1393h520q196 0 319.5 -104.5t123.5 -270.5q0 -213 -150 -303q187 -101 187 -326q0 -170 -131.5 -279.5t-339.5 -109.5h-529zM487 336h181q52 0 82 26.5t30 77.5t-30 78t-82 27h-181v-209zM487 881h170q40 0 63 23t23 65t-23 65t-63 23h-170v-176z" />
<glyph unicode="C" horiz-adv-x="1155" d="M57 696q0 151 55 284.5t150 228.5t228 150.5t284 55.5q157 0 293 -57v-400q-118 109 -293 109q-152 0 -255 -108.5t-103 -262.5q0 -155 102.5 -262.5t255.5 -107.5q89 0 166 29t127 75v-395q-138 -58 -293 -58q-151 0 -284 55.5t-228 150.5t-150 228.5t-55 284.5z" />
<glyph unicode="D" horiz-adv-x="1421" d="M139 0v1393h531q210 0 367.5 -89t240 -246.5t82.5 -361.5t-82.5 -361t-240 -246t-367.5 -89h-531zM487 336h179q162 0 248.5 100t86.5 260q0 159 -87 260t-248 101h-179v-721z" />
<glyph unicode="E" horiz-adv-x="1058" d="M139 0v1393h815v-336h-467v-187h426v-335h-426v-199h467v-336h-815z" />
<glyph unicode="F" horiz-adv-x="1038" d="M139 0v1393h815v-336h-467v-248h426v-336h-426v-473h-348z" />
<glyph unicode="G" horiz-adv-x="1464" d="M57 696q0 151 54 284t148 228.5t228 151t287 55.5q234 0 375 -55v-377q-158 84 -375 84q-155 0 -256.5 -104.5t-101.5 -266.5q0 -156 98 -263t248 -107q131 0 211 71.5t80 155.5v12h-293v316h651q21 -96 21 -213q0 -138 -43 -261t-125 -220t-214 -153.5t-298 -56.5 q-149 0 -278.5 55.5t-220.5 151t-143.5 228.5t-52.5 284z" />
<glyph unicode="H" horiz-adv-x="1531" d="M139 0v1393h348v-523h557v523h349v-1393h-349v535h-557v-535h-348z" />
<glyph unicode="I" horiz-adv-x="626" d="M139 0v1393h348v-1393h-348z" />
<glyph unicode="J" horiz-adv-x="919" d="M49 51v379q110 -104 248 -104q145 0 145 168v899h349v-910q0 -251 -106 -378.5t-333 -127.5q-84 0 -170 21t-133 53z" />
<glyph unicode="K" horiz-adv-x="1193" d="M139 0v1393h348v-504l279 504h403l-350 -572l371 -821h-406l-217 522l-80 -129v-393h-348z" />
<glyph unicode="L" horiz-adv-x="991" d="M139 0v1393h348v-1057h467v-336h-815z" />
<glyph unicode="M" horiz-adv-x="1800" d="M139 0v1393h430l332 -949l332 949h428v-1393h-348v774l-262 -774h-301l-263 772v-772h-348z" />
<glyph unicode="N" horiz-adv-x="1464" d="M51 1370v23h410l516 -787v787h348v-1393h-348l-481 709v-709h-349v1210z" />
<glyph unicode="O" horiz-adv-x="1548" d="M57 696q0 151 55 284.5t150 228.5t228 150.5t284 55.5t284 -55.5t228 -150.5t150 -228.5t55 -284.5t-55 -284.5t-150 -228.5t-228 -150.5t-284 -55.5t-284 55.5t-228 150.5t-150 228.5t-55 284.5zM416 696q0 -155 102.5 -262.5t255.5 -107.5q152 0 255.5 108t103.5 262 q0 153 -104 262t-255 109q-152 0 -255 -108.5t-103 -262.5z" />
<glyph unicode="P" horiz-adv-x="1165" d="M139 0v1393h508q212 0 341.5 -121.5t129.5 -331.5t-129.5 -331.5t-341.5 -121.5h-160v-487h-348zM487 823h156q52 0 84.5 30.5t32.5 86.5t-32.5 86.5t-84.5 30.5h-156v-234z" />
<glyph unicode="Q" horiz-adv-x="1564" d="M57 696q0 151 55 284.5t150 228.5t228 150.5t284 55.5t284 -55.5t228 -150.5t150 -228.5t55 -284.5q0 -224 -117 -403l125 -123l-237 -238l-134 134q-162 -89 -354 -89q-151 0 -284 55.5t-228 150.5t-150 228.5t-55 284.5zM416 696q0 -155 102.5 -262.5t255.5 -107.5 q48 0 84 8l-151 153l237 240l164 -166q25 64 25 135q0 153 -104 262t-255 109q-152 0 -255 -108.5t-103 -262.5z" />
<glyph unicode="R" horiz-adv-x="1234" d="M139 0v1393h518q214 0 342.5 -109t128.5 -305q0 -139 -66 -228t-169 -122q128 -68 198.5 -234t90.5 -395h-363q-33 226 -106 356.5t-191 130.5h-35v-487h-348zM487 823h168q52 0 83.5 30.5t31.5 86.5t-31.5 86.5t-83.5 30.5h-168v-234z" />
<glyph unicode="S" horiz-adv-x="1019" d="M76 989q0 64 15.5 122.5t53.5 115t95 97.5t146 66t200 25q158 0 297 -57v-363q-58 37 -143.5 66t-155.5 29t-102.5 -25t-32.5 -64q0 -48 90 -100l157 -90q135 -78 197.5 -175.5t62.5 -221.5q0 -88 -29 -165t-86 -139t-152 -97.5t-218 -35.5q-192 0 -356 66v379 q61 -48 158 -83.5t184 -35.5q62 0 95.5 23t33.5 67q0 49 -92 101l-166 94q-140 80 -196 175t-56 226z" />
<glyph unicode="T" horiz-adv-x="1077" d="M43 1057v336h991v-336h-321v-1057h-348v1057h-322z" />
<glyph unicode="U" horiz-adv-x="1339" d="M125 537v856h348v-885q0 -86 53 -139.5t144 -53.5t143.5 53.5t52.5 139.5v885h348v-856q0 -264 -146 -412t-398 -148t-398.5 148t-146.5 412z" />
<glyph unicode="V" horiz-adv-x="1368" d="M-23 1393h390l317 -992l317 992h390l-512 -1393h-390z" />
<glyph unicode="W" horiz-adv-x="1953" d="M4 1393h389l193 -959l241 778l-47 181h348l242 -959l191 959h389l-359 -1393h-389l-205 739l-245 -739h-390z" />
<glyph unicode="X" horiz-adv-x="1269" d="M-2 0l401 713l-381 680h410l207 -422l207 422h409l-381 -680l402 -713h-408l-229 453l-229 -453h-408z" />
<glyph unicode="Y" horiz-adv-x="1179" d="M-25 1393h390l225 -455l227 455h389l-442 -803v-590h-348v594z" />
<glyph unicode="Z" horiz-adv-x="1058" d="M76 0v295l456 762h-436v336h877v-295l-473 -762h473v-336h-897z" />
<glyph unicode="[" horiz-adv-x="608" d="M129 -420v1833h446v-194h-231v-1444h231v-195h-446z" />
<glyph unicode="\" horiz-adv-x="942" d="M39 1393h246l618 -1393h-244z" />
<glyph unicode="]" horiz-adv-x="608" d="M33 -225h231v1444h-231v194h446v-1833h-446v195z" />
<glyph unicode="^" horiz-adv-x="917" d="M59 1133l400 317l399 -317l-162 -191l-239 186l-238 -188z" />
<glyph unicode="_" horiz-adv-x="1011" d="M96 -61h819v-205h-819v205z" />
<glyph unicode="`" horiz-adv-x="1228" d="M406 1425h270l147 -301h-239z" />
<glyph unicode="a" horiz-adv-x="1007" d="M39 309q0 139 92.5 233.5t243.5 94.5q120 0 205 -53v26q0 75 -44 111.5t-122 36.5q-133 0 -260 -72v311q60 23 143 39.5t158 16.5q458 0 458 -451v-602h-333v59q-79 -82 -211 -82q-83 0 -148 28t-103.5 75.5t-58.5 105.5t-20 123zM367 309q0 -38 30 -65t74 -27 q45 0 74.5 26.5t29.5 65.5t-29.5 65.5t-74.5 26.5q-44 0 -74 -27t-30 -65z" />
<glyph unicode="b" horiz-adv-x="1247" d="M104 0v1413h334v-479q106 119 281 119q212 0 345.5 -153t133.5 -384q0 -151 -59 -273.5t-168.5 -194t-249.5 -71.5q-174 0 -283 119v-96h-334zM438 516q0 -87 59.5 -149t149.5 -62q88 0 146.5 62.5t58.5 148.5t-58.5 147.5t-146.5 61.5q-91 0 -150 -61t-59 -148z" />
<glyph unicode="c" horiz-adv-x="884" d="M49 516q0 233 151 385t396 152q48 0 111.5 -10.5t99.5 -26.5v-350q-92 61 -211 61q-91 0 -150 -61.5t-59 -149.5t59 -150.5t150 -62.5q117 0 211 62v-349q-36 -18 -99 -28.5t-112 -10.5q-162 0 -288 71.5t-192.5 194t-66.5 273.5z" />
<glyph unicode="d" horiz-adv-x="1247" d="M49 516q0 151 59 273t169.5 193t252.5 71q169 0 279 -119v479h334v-1413h-334v96q-113 -119 -281 -119q-213 0 -346 154t-133 385zM393 516q0 -86 60 -148.5t149 -62.5t148 62t59 149q0 86 -59 147.5t-148 61.5t-149 -61.5t-60 -147.5z" />
<glyph unicode="e" horiz-adv-x="1083" d="M49 516q0 150 66 273t184.5 193.5t265.5 70.5q145 0 255 -67.5t165 -176.5t55 -240q0 -86 -18 -153h-639q19 -66 79.5 -103t151.5 -37q194 0 340 82v-313q-142 -68 -368 -68q-154 0 -276 66t-191.5 189.5t-69.5 283.5zM381 664h342q-5 51 -48 82.5t-112 31.5 q-68 0 -119 -33.5t-63 -80.5z" />
<glyph unicode="f" horiz-adv-x="720" d="M47 696v285h137v63q0 190 110 290t300 100q48 0 98 -11v-331q-32 16 -86 16q-39 0 -63.5 -25t-24.5 -61v-41h174v-285h-174v-696h-334v696h-137z" />
<glyph unicode="g" horiz-adv-x="1263" d="M51 528q0 225 133 375t340 150q182 0 297 -125v104h334v-885q0 -295 -152.5 -441t-439.5 -146q-100 0 -193 21t-145 50v340q69 -44 162 -72t176 -28q117 0 187.5 60.5t70.5 168.5v27q-119 -119 -295 -119q-209 0 -342 147.5t-133 372.5zM408 530q0 -82 56 -139t140 -57 q85 0 141 56.5t56 139.5q0 81 -56 139t-141 58q-83 0 -139.5 -58t-56.5 -139z" />
<glyph unicode="h" horiz-adv-x="1138" d="M104 0v1413h334v-495q95 135 252 135q158 0 255 -106.5t97 -270.5v-676h-333v578q0 68 -37 108.5t-97 40.5q-61 0 -97.5 -36t-39.5 -101v-590h-334z" />
<glyph unicode="i" horiz-adv-x="542" d="M80 1321q0 79 54.5 134.5t135.5 55.5q82 0 136.5 -55.5t54.5 -134.5q0 -82 -54 -136.5t-137 -54.5q-82 0 -136 54.5t-54 136.5zM104 0v1032h334v-1032h-334z" />
<glyph unicode="j" horiz-adv-x="542" d="M-35 -96q33 -17 62 -17q77 0 77 78v1067h334v-1069q0 -197 -101.5 -300t-277.5 -103q-61 0 -94 10v334zM82 1321q0 79 55 134.5t137 55.5q81 0 136 -55.5t55 -134.5q0 -82 -54.5 -136.5t-136.5 -54.5q-83 0 -137.5 54.5t-54.5 136.5z" />
<glyph unicode="k" horiz-adv-x="1046" d="M104 0v1413h334v-721l217 340h389l-294 -420l290 -612h-385l-155 375l-62 -99v-276h-334z" />
<glyph unicode="l" horiz-adv-x="542" d="M104 0v1413h334v-1413h-334z" />
<glyph unicode="m" horiz-adv-x="1742" d="M104 0v1032h334v-114q94 135 252 135q104 0 184.5 -45.5t124.5 -128.5q42 78 116 126t181 48q149 0 251 -108.5t102 -268.5v-676h-334v575q0 70 -35.5 111t-97.5 41t-101 -41t-39 -111v-575h-333v575q0 70 -35.5 111t-95.5 41q-62 0 -99.5 -36.5t-40.5 -100.5v-590h-334z " />
<glyph unicode="n" horiz-adv-x="1138" d="M104 0v1032h334v-114q92 135 252 135q158 0 255 -106.5t97 -270.5v-676h-333v578q0 69 -37 109t-99 40q-59 0 -95.5 -36t-39.5 -101v-590h-334z" />
<glyph unicode="o" horiz-adv-x="1167" d="M47 516q0 227 155 382t382 155t381.5 -155t154.5 -382q0 -149 -70.5 -273t-193.5 -195t-272 -71q-227 0 -382 156t-155 383zM385 516q0 -88 57 -150.5t142 -62.5q86 0 142 62.5t56 150.5t-56 149.5t-142 61.5q-85 0 -142 -62t-57 -149z" />
<glyph unicode="p" horiz-adv-x="1247" d="M104 -420v1452h334v-119q97 140 281 140q211 0 345 -153.5t134 -383.5q0 -151 -59.5 -273.5t-170 -194t-251.5 -71.5q-173 0 -279 119v-516h-334zM438 516q0 -87 59.5 -149t149.5 -62q88 0 146.5 62.5t58.5 148.5t-58.5 147.5t-146.5 61.5q-91 0 -150 -61t-59 -148z" />
<glyph unicode="q" horiz-adv-x="1247" d="M49 516q0 151 59.5 273t169.5 193t252 71q169 0 279 -119v98h334v-1452h-334v516q-113 -119 -277 -119q-142 0 -253 71.5t-170.5 194t-59.5 273.5zM393 516q0 -86 60 -148.5t149 -62.5t148 62t59 149q0 86 -59 147.5t-148 61.5t-149 -61.5t-60 -147.5z" />
<glyph unicode="r" horiz-adv-x="776" d="M104 0v1032h334v-98q86 119 234 119q44 0 78 -6v-353q-79 33 -164 33q-61 0 -102.5 -36.5t-45.5 -100.5v-590h-334z" />
<glyph unicode="s" horiz-adv-x="811" d="M66 731q0 147 106 234.5t293 87.5q122 0 235 -29v-322q-48 27 -111.5 45.5t-109.5 18.5q-35 0 -52 -13.5t-17 -33.5q0 -16 10 -27t35 -26l133 -76q166 -100 166 -285q0 -142 -102 -235t-290 -93q-147 0 -268 46v327q34 -31 112.5 -60.5t131.5 -29.5q35 0 53.5 14t18.5 37 q0 36 -52 64l-145 84q-147 82 -147 272z" />
<glyph unicode="t" horiz-adv-x="704" d="M45 748v284h160v211l313 68v-279h160v-284h-160v-748h-334v748h-139z" />
<glyph unicode="u" horiz-adv-x="1144" d="M100 354v678h334v-577q0 -70 35.5 -111t97.5 -41q59 0 95 36.5t40 100.5v592h334v-1032h-334v113q-89 -136 -251 -136q-156 0 -253.5 107t-97.5 270z" />
<glyph unicode="v" horiz-adv-x="1089" d="M-8 1032h350l201 -616l207 616h350l-381 -1032h-348z" />
<glyph unicode="w" horiz-adv-x="1632" d="M6 1032h346l154 -626l151 479l-51 147h330l199 -626l147 626h346l-301 -1032h-348l-164 502l-160 -502h-350z" />
<glyph unicode="x" d="M-4 0l336 516l-336 516h387l149 -268l150 268h387l-332 -516l332 -516h-387l-150 270l-149 -270h-387z" />
<glyph unicode="y" horiz-adv-x="1097" d="M-4 1032h375l178 -532l196 532h375l-606 -1452h-385l238 498z" />
<glyph unicode="z" horiz-adv-x="874" d="M68 0v264l323 484h-301v284h709v-264l-336 -483h336v-285h-731z" />
<glyph unicode="{" horiz-adv-x="665" d="M-4 399v195h61q166 0 166 190v312q0 97 17 159t56 97t92 48t134 13h109v-194h-56q-73 0 -105 -31t-32 -111v-346q0 -191 -155 -235q155 -44 155 -236v-340q0 -82 32 -113.5t105 -31.5h56v-195h-105q-83 0 -136.5 13.5t-93 49t-56.5 99.5t-17 164v301q0 192 -166 192h-61z " />
<glyph unicode="|" horiz-adv-x="473" d="M129 -420v1833h215v-1833h-215z" />
<glyph unicode="}" horiz-adv-x="665" d="M35 -225h55q73 0 105 31t32 110v346q0 96 41 155.5t115 80.5q-74 21 -115 80t-41 155v340q0 82 -32 114t-105 32h-55v194h104q83 0 136.5 -13.5t93 -49t56.5 -99.5t17 -164v-301q0 -192 166 -192h62v-195h-62q-166 0 -166 -190v-311q0 -97 -17 -159.5t-56 -97.5t-92 -48 t-134 -13h-108v195z" />
<glyph unicode="~" d="M63 440v252q141 82 248 82q64 0 127.5 -20t108 -43.5t109.5 -43.5t132 -20q91 0 211 78v-252q-39 -28 -64 -42.5t-69.5 -27t-97.5 -12.5q-69 0 -136 20t-112 43.5t-108.5 43.5t-126.5 20q-18 0 -35 -2t-35.5 -7.5t-30 -9t-32.5 -13.5t-28.5 -13.5t-31.5 -17t-29 -15.5z " />
<glyph unicode="&#xa1;" horiz-adv-x="557" d="M59 834q0 95 63 157t159 62q95 0 157 -62t62 -157q0 -96 -62 -159t-157 -63t-158.5 63.5t-63.5 158.5zM84 -360l82 888h225l82 -888h-389z" />
<glyph unicode="&#xa2;" d="M131 709q0 203 117.5 348t316.5 178v178h215v-178q72 -11 109 -27v-350q-49 30 -109 47v-397q55 15 109 49v-348q-30 -16 -109 -31v-178h-215v178q-199 35 -316.5 181.5t-117.5 349.5zM469 709q0 -57 25.5 -105.5t70.5 -77.5v363q-45 -29 -70.5 -77t-25.5 -103z" />
<glyph unicode="&#xa3;" d="M80 557v223h117q-19 101 -19 166q0 97 30.5 181.5t89.5 149t152.5 101.5t211.5 37q193 0 296 -61v-381q-41 34 -119 66t-147 32q-79 0 -119.5 -40t-40.5 -103q0 -47 33 -148h309v-223h-237q10 -48 10 -86q0 -35 -18.5 -74t-46.5 -61h374v-336h-815v295q46 13 82.5 55.5 t36.5 91.5q0 56 -12 115h-168z" />
<glyph unicode="&#xa4;" horiz-adv-x="1126" d="M61 891l189 184l115 -119q84 41 188 41q116 0 209 -49l121 121l172 -172l-117 -123q49 -88 49 -194q0 -104 -49 -195l127 -133l-186 -184l-138 135q-78 -37 -188 -37q-102 0 -182 39l-125 -125l-174 172l116 123q-53 95 -53 205q0 98 41 188zM406 580q0 -57 41.5 -105.5 t107.5 -48.5q71 0 113.5 48t42.5 106q0 60 -42 108.5t-114 48.5q-66 0 -107.5 -49t-41.5 -108z" />
<glyph unicode="&#xa5;" d="M-18 1393h389l164 -455l165 455h390l-291 -613h147v-223h-237v-78h237v-223h-237v-256h-349v256h-256v223h256v78h-254v223h166z" />
<glyph unicode="&#xa6;" horiz-adv-x="489" d="M137 221h215v-641h-215v641zM137 807v606h215v-606h-215z" />
<glyph unicode="&#xa7;" horiz-adv-x="1044" d="M88 547q0 145 105 233q-105 94 -105 269q0 54 15.5 104.5t51.5 98t90 82.5t136.5 56t185.5 21q166 0 328 -70v-360q-58 29 -91.5 44.5t-105.5 36.5t-131 21q-106 0 -106 -45q0 -31 90 -63l194 -72q224 -81 224 -307q0 -131 -109 -225q109 -95 109 -269 q0 -71 -28.5 -134.5t-83.5 -115t-144.5 -82t-202.5 -30.5q-204 0 -383 76v374q74 -48 171.5 -85t195.5 -37q104 0 104 41q0 28 -92 63l-197 76q-119 46 -170 125.5t-51 173.5zM438 594q0 -19 27 -36.5t92 -47.5l27 -12q21 13 29 25.5t8 33.5q0 18 -26 33.5t-95 44.5l-35 14 q-27 -24 -27 -55z" />
<glyph unicode="&#xa8;" horiz-adv-x="1187" d="M197 1321q0 71 49.5 121.5t122.5 50.5t121.5 -50.5t48.5 -121.5q0 -74 -48.5 -123t-121.5 -49t-122.5 49.5t-49.5 122.5zM649 1321q0 71 49.5 121.5t120.5 50.5q74 0 123 -50t49 -122q0 -74 -48.5 -123t-123.5 -49q-72 0 -121 49.5t-49 122.5z" />
<glyph unicode="&#xa9;" horiz-adv-x="1683" d="M66 696q0 217 100.5 392t278 273.5t397.5 98.5q166 0 310.5 -58t246.5 -158.5t160.5 -242.5t58.5 -305q0 -161 -58.5 -303t-160.5 -243t-246.5 -159.5t-310.5 -58.5q-220 0 -397.5 99.5t-278 274.5t-100.5 390zM264 696q0 -256 161 -414.5t417 -158.5t416.5 158.5 t160.5 414.5q0 257 -160.5 415.5t-416.5 158.5t-417 -158.5t-161 -415.5zM432 692q0 183 129.5 307.5t321.5 124.5q96 0 178 -28v-271q-67 64 -178 64q-88 0 -148.5 -58t-60.5 -139q0 -80 60.5 -138t148.5 -58q112 0 178 59v-266q-85 -29 -178 -29q-192 0 -321.5 124.5 t-129.5 307.5z" />
<glyph unicode="&#xaa;" horiz-adv-x="749" d="M49 807q0 93 67 153t175 60q83 0 139 -29v13q0 51 -30.5 73.5t-92.5 22.5q-77 0 -184 -56v222q119 45 229 45q157 0 238.5 -78.5t81.5 -233.5v-395h-242v41q-48 -57 -149 -57q-111 0 -171.5 64.5t-60.5 154.5zM125 287v223h506v-223h-506zM297 811q0 -25 16 -42t43 -17 q28 0 45 17t17 42q0 24 -16.5 39.5t-45.5 15.5q-27 0 -43 -15.5t-16 -39.5z" />
<glyph unicode="&#xab;" horiz-adv-x="1079" d="M57 582l338 481l170 -121l-186 -362l188 -361l-172 -119zM496 582l338 481l170 -121l-187 -362l189 -361l-172 -119z" />
<glyph unicode="&#xac;" d="M43 709v256h936v-619h-264v363h-672z" />
<glyph unicode="&#xad;" horiz-adv-x="759" d="M96 426v315h568v-315h-568z" />
<glyph unicode="&#xae;" horiz-adv-x="1243" d="M80 1038q0 231 154.5 383t386.5 152q235 0 388.5 -151.5t153.5 -383.5q0 -229 -154 -380.5t-388 -151.5q-152 0 -276 69t-194.5 191t-70.5 272zM215 1038q0 -180 113 -291.5t293 -111.5q181 0 294 111t113 292q0 182 -113 293t-294 111q-180 0 -293 -111t-113 -293z M401 754v583h234q94 0 151.5 -45t57.5 -125q0 -60 -32.5 -99.5t-78.5 -51.5q58 -31 91.5 -101.5t39.5 -160.5h-166q-28 196 -125 196h-10v-196h-162zM563 1106h72q43 0 43 39q0 18 -12 28.5t-31 10.5h-72v-78z" />
<glyph unicode="&#xaf;" horiz-adv-x="1187" d="M281 1169v215h624v-215h-624z" />
<glyph unicode="&#xb0;" horiz-adv-x="802" d="M49 1067q0 88 39 165.5t119.5 129t187.5 51.5q111 0 194.5 -51.5t124 -129t40.5 -165.5q0 -62 -24 -122t-68 -109.5t-114 -80t-153 -30.5q-80 0 -147.5 30.5t-110 80t-65.5 109.5t-23 122zM238 1067q0 -61 43.5 -111.5t113.5 -50.5q76 0 120 50t44 112q0 63 -44 114.5 t-120 51.5q-70 0 -113.5 -52t-43.5 -114z" />
<glyph unicode="&#xb1;" d="M63 76v256h936v-256h-936zM63 739v256h328v342h277v-342h331v-256h-331v-264h-277v264h-328z" />
<glyph unicode="&#xb2;" horiz-adv-x="632" d="M53 797v198l232 269q25 28 39 57t14 43q0 36 -21 57t-59 21q-102 0 -188 -72v256q36 21 93.5 34t112.5 13q80 0 141.5 -23t96 -61.5t51.5 -83.5t17 -94q0 -76 -25 -130.5t-70 -106.5l-129 -150h205v-227h-510z" />
<glyph unicode="&#xb3;" horiz-adv-x="626" d="M61 813v274q75 -69 189 -69q39 0 65.5 15.5t26.5 41.5q0 47 -90 47h-123v228h123q28 0 46.5 11t18.5 32q0 20 -19.5 32.5t-51.5 12.5q-101 0 -172 -47v256q65 26 180 26q139 0 222 -70.5t83 -177.5q0 -128 -98 -186q123 -68 123 -201q0 -106 -90.5 -181t-227.5 -75 q-114 0 -205 31z" />
<glyph unicode="&#xb4;" horiz-adv-x="1187" d="M385 1124l147 301h271l-178 -301h-240z" />
<glyph unicode="&#xb5;" horiz-adv-x="1196" d="M125 -420v1452h334v-577q0 -70 35.5 -111t97.5 -41q59 0 95 36.5t40 100.5v592h334v-1032h-334v113q-89 -136 -252 -136h-16v-397h-334z" />
<glyph unicode="&#xb6;" horiz-adv-x="1310" d="M45 621q0 193 119 302t360 109h250v-1452h-239v643h-11q-243 0 -361 103.5t-118 294.5zM926 -420v1452h239v-1452h-239z" />
<glyph unicode="&#xb7;" horiz-adv-x="579" d="M70 627q0 95 62 158t157 63t158 -63t63 -158t-63 -157t-158 -62t-157 62t-62 157z" />
<glyph unicode="&#xb8;" horiz-adv-x="1187" d="M367 -311l165 352h287l-125 -352h-327z" />
<glyph unicode="&#xb9;" horiz-adv-x="657" d="M43 797v227h193v410h-152v227h387v-637h168v-227h-596z" />
<glyph unicode="&#xba;" horiz-adv-x="782" d="M23 952q0 152 105.5 255.5t262.5 103.5q156 0 262.5 -103.5t106.5 -255.5q0 -153 -106.5 -257.5t-262.5 -104.5q-157 0 -262.5 104t-105.5 258zM139 287v223h506v-223h-506zM266 952q0 -54 35.5 -92.5t89.5 -38.5t89.5 38.5t35.5 92.5q0 52 -35.5 89.5t-89.5 37.5 t-89.5 -37.5t-35.5 -89.5z" />
<glyph unicode="&#xbb;" horiz-adv-x="1079" d="M74 942l172 119l338 -481l-338 -482l-170 121l186 363zM514 942l172 119l338 -481l-338 -482l-170 121l186 363z" />
<glyph unicode="&#xbc;" horiz-adv-x="1814" d="M74 528v228h192v409h-151v228h387v-637h168v-228h-596zM526 0l619 1393h246l-621 -1393h-244zM1057 152v198l368 514h236v-485h98v-227h-98v-152h-236v152h-368zM1300 379h125v174z" />
<glyph unicode="&#xbd;" horiz-adv-x="1808" d="M70 528v228h192v409h-151v228h387v-637h168v-228h-596zM522 0l619 1393h245l-620 -1393h-244zM1217 0v199l231 268q25 28 39 57t14 43q0 36 -21 57t-59 21q-102 0 -188 -72v256q36 21 94 34.5t113 13.5q80 0 141 -23t95.5 -62t51.5 -84t17 -94q0 -76 -24.5 -130.5 t-69.5 -106.5l-129 -150h204v-227h-509z" />
<glyph unicode="&#xbe;" horiz-adv-x="1738" d="M80 545v274q75 -69 188 -69q39 0 65.5 15.5t26.5 41.5q0 47 -90 47h-123v227h123q28 0 47 11t19 32q0 20 -20 32.5t-52 12.5q-101 0 -172 -47v256q67 27 180 27q139 0 222.5 -70.5t83.5 -177.5q0 -127 -99 -186q123 -68 123 -201q0 -106 -90 -181t-227 -75 q-114 0 -205 31zM451 0l618 1393h246l-621 -1393h-243zM981 152v198l369 514h235v-485h98v-227h-98v-152h-235v152h-369zM1225 379h125v174z" />
<glyph unicode="&#xbf;" horiz-adv-x="878" d="M57 37q0 55 11.5 101.5t34 81t40 55t43.5 44.5l101 93q31 28 39 49t8 67h338q0 -112 -18 -165t-87 -107l-92 -72q-59 -46 -59 -114q0 -48 34.5 -75.5t102.5 -27.5q59 0 135 27.5t123 66.5v-393q-117 -49 -291 -49q-97 0 -176.5 24t-132 64.5t-88 95t-51 113t-15.5 121.5z M283 834q0 95 63 157t158 62t157 -62t62 -157q0 -96 -62 -159t-157 -63t-158 63.5t-63 158.5z" />
<glyph unicode="&#xc0;" horiz-adv-x="1368" d="M-23 0l512 1393h390l512 -1393h-390l-86 252h-464l-84 -252h-390zM377 1786h270l148 -301h-240zM565 588h238l-119 350z" />
<glyph unicode="&#xc1;" horiz-adv-x="1368" d="M-23 0l512 1393h390l512 -1393h-390l-86 252h-464l-84 -252h-390zM565 588h238l-119 350zM571 1485l148 301h270l-178 -301h-240z" />
<glyph unicode="&#xc2;" horiz-adv-x="1368" d="M-23 0l512 1393h390l512 -1393h-390l-86 252h-464l-84 -252h-390zM344 1485l168 301h344l168 -301h-240l-100 172l-100 -172h-240zM565 588h238l-119 350z" />
<glyph unicode="&#xc3;" horiz-adv-x="1368" d="M-23 0l512 1393h390l512 -1393h-390l-86 252h-464l-84 -252h-390zM371 1518v219q57 -51 147 -51q42 0 91.5 21.5t108 43t120.5 21.5q82 0 159 -43v-220q-88 52 -159 52q-54 0 -155.5 -43t-164.5 -43q-85 0 -147 43zM565 588h238l-119 350z" />
<glyph unicode="&#xc4;" horiz-adv-x="1368" d="M-23 0l512 1393h390l512 -1393h-390l-86 252h-464l-84 -252h-390zM287 1681q0 71 49.5 121.5t122.5 50.5t121.5 -50.5t48.5 -121.5q0 -74 -48.5 -123t-121.5 -49t-122.5 49.5t-49.5 122.5zM565 588h238l-119 350zM739 1681q0 71 49.5 121.5t120.5 50.5q74 0 123 -50 t49 -122q0 -74 -48.5 -123t-123.5 -49q-72 0 -121 49.5t-49 122.5z" />
<glyph unicode="&#xc5;" horiz-adv-x="1368" d="M-23 0l512 1393h390l512 -1393h-390l-86 252h-464l-84 -252h-390zM457 1675q0 86 58.5 148.5t164.5 62.5q112 0 172.5 -62t60.5 -149q0 -81 -61 -143t-172 -62q-105 0 -164 62t-59 143zM565 588h238l-119 350zM604 1675q0 -29 20 -50t56 -21q40 0 61 21t21 50 q0 31 -21 54.5t-61 23.5q-36 0 -56 -23.5t-20 -54.5z" />
<glyph unicode="&#xc6;" horiz-adv-x="1912" d="M-31 0l963 1393h876v-336h-467v-187h426v-335h-426v-199h467v-336h-815v252h-430l-166 -252h-428zM750 588h243v370z" />
<glyph unicode="&#xc7;" horiz-adv-x="1155" d="M57 696q0 151 55 284.5t150 228.5t228 150.5t284 55.5q157 0 293 -57v-400q-118 109 -293 109q-152 0 -255 -108.5t-103 -262.5q0 -155 102.5 -262.5t255.5 -107.5q89 0 166 29t127 75v-395q-107 -46 -233 -55l-103 -291h-328l152 321q-224 67 -361 253t-137 433z" />
<glyph unicode="&#xc8;" horiz-adv-x="1058" d="M139 0v1393h815v-336h-467v-187h426v-335h-426v-199h467v-336h-815zM272 1786h271l147 -301h-239z" />
<glyph unicode="&#xc9;" horiz-adv-x="1058" d="M139 0v1393h815v-336h-467v-187h426v-335h-426v-199h467v-336h-815zM432 1485l148 301h270l-178 -301h-240z" />
<glyph unicode="&#xca;" horiz-adv-x="1058" d="M139 0v1393h815v-336h-467v-187h426v-335h-426v-199h467v-336h-815zM203 1485l168 301h344l168 -301h-240l-100 172l-101 -172h-239z" />
<glyph unicode="&#xcb;" horiz-adv-x="1058" d="M139 0v1393h815v-336h-467v-187h426v-335h-426v-199h467v-336h-815zM156 1681q0 71 49.5 121.5t122.5 50.5t121.5 -50.5t48.5 -121.5q0 -74 -48.5 -123t-121.5 -49q-74 0 -123 49.5t-49 122.5zM608 1681q0 71 49.5 121.5t120.5 50.5q74 0 123 -50t49 -122 q0 -74 -48.5 -123t-123.5 -49q-72 0 -121 49.5t-49 122.5z" />
<glyph unicode="&#xcc;" horiz-adv-x="626" d="M23 1786h270l147 -301h-239zM139 0v1393h348v-1393h-348z" />
<glyph unicode="&#xcd;" horiz-adv-x="626" d="M139 0v1393h348v-1393h-348zM201 1485l147 301h270l-178 -301h-239z" />
<glyph unicode="&#xce;" horiz-adv-x="626" d="M-27 1485l168 301h344l168 -301h-239l-101 172l-100 -172h-240zM139 0v1393h348v-1393h-348z" />
<glyph unicode="&#xcf;" horiz-adv-x="626" d="M-84 1681q0 71 49.5 121.5t122.5 50.5t121.5 -50.5t48.5 -121.5q0 -74 -48.5 -123t-121.5 -49q-74 0 -123 49.5t-49 122.5zM139 0v1393h348v-1393h-348zM369 1681q0 71 49.5 121.5t120.5 50.5q74 0 123 -50t49 -122q0 -74 -48.5 -123t-123.5 -49q-72 0 -121 49.5 t-49 122.5z" />
<glyph unicode="&#xd0;" horiz-adv-x="1429" d="M45 588v215h102v590h531q210 0 367.5 -89t240 -246.5t82.5 -361.5t-82.5 -361t-240 -246t-367.5 -89h-531v588h-102zM496 336h178q162 0 249 100t87 260q0 159 -87.5 260t-248.5 101h-178v-254h174v-215h-174v-252z" />
<glyph unicode="&#xd1;" horiz-adv-x="1468" d="M55 1370v23h410l516 -787v787h348v-1393h-348l-481 709v-709h-348v1210zM430 1518v219q57 -51 148 -51q42 0 91.5 21.5t107.5 43t120 21.5q83 0 160 -43v-220q-88 52 -160 52q-54 0 -155 -43t-164 -43q-86 0 -148 43z" />
<glyph unicode="&#xd2;" horiz-adv-x="1548" d="M57 696q0 151 55 284.5t150 228.5t228 150.5t284 55.5t284 -55.5t228 -150.5t150 -228.5t55 -284.5t-55 -284.5t-150 -228.5t-228 -150.5t-284 -55.5t-284 55.5t-228 150.5t-150 228.5t-55 284.5zM416 696q0 -155 102.5 -262.5t255.5 -107.5q152 0 255.5 108t103.5 262 q0 153 -104 262t-255 109q-152 0 -255 -108.5t-103 -262.5zM483 1786h271l147 -301h-239z" />
<glyph unicode="&#xd3;" horiz-adv-x="1548" d="M57 696q0 151 55 284.5t150 228.5t228 150.5t284 55.5t284 -55.5t228 -150.5t150 -228.5t55 -284.5t-55 -284.5t-150 -228.5t-228 -150.5t-284 -55.5t-284 55.5t-228 150.5t-150 228.5t-55 284.5zM416 696q0 -155 102.5 -262.5t255.5 -107.5q152 0 255.5 108t103.5 262 q0 153 -104 262t-255 109q-152 0 -255 -108.5t-103 -262.5zM668 1485l147 301h270l-178 -301h-239z" />
<glyph unicode="&#xd4;" horiz-adv-x="1548" d="M57 696q0 151 55 284.5t150 228.5t228 150.5t284 55.5t284 -55.5t228 -150.5t150 -228.5t55 -284.5t-55 -284.5t-150 -228.5t-228 -150.5t-284 -55.5t-284 55.5t-228 150.5t-150 228.5t-55 284.5zM416 696q0 -155 102.5 -262.5t255.5 -107.5q152 0 255.5 108t103.5 262 q0 153 -104 262t-255 109q-152 0 -255 -108.5t-103 -262.5zM434 1485l168 301h344l168 -301h-240l-100 172l-100 -172h-240z" />
<glyph unicode="&#xd5;" horiz-adv-x="1548" d="M57 696q0 151 55 284.5t150 228.5t228 150.5t284 55.5t284 -55.5t228 -150.5t150 -228.5t55 -284.5t-55 -284.5t-150 -228.5t-228 -150.5t-284 -55.5t-284 55.5t-228 150.5t-150 228.5t-55 284.5zM416 696q0 -155 102.5 -262.5t255.5 -107.5q152 0 255.5 108t103.5 262 q0 153 -104 262t-255 109q-152 0 -255 -108.5t-103 -262.5zM461 1518v219q57 -51 147 -51q42 0 91.5 21.5t108 43t120.5 21.5q82 0 159 -43v-220q-88 52 -159 52q-54 0 -155.5 -43t-164.5 -43q-85 0 -147 43z" />
<glyph unicode="&#xd6;" horiz-adv-x="1548" d="M57 696q0 151 55 284.5t150 228.5t228 150.5t284 55.5t284 -55.5t228 -150.5t150 -228.5t55 -284.5t-55 -284.5t-150 -228.5t-228 -150.5t-284 -55.5t-284 55.5t-228 150.5t-150 228.5t-55 284.5zM377 1681q0 71 49.5 121.5t122.5 50.5t121.5 -50.5t48.5 -121.5 q0 -74 -48.5 -123t-121.5 -49t-122.5 49.5t-49.5 122.5zM416 696q0 -155 102.5 -262.5t255.5 -107.5q152 0 255.5 108t103.5 262q0 153 -104 262t-255 109q-152 0 -255 -108.5t-103 -262.5zM829 1681q0 71 49.5 121.5t120.5 50.5q74 0 123 -50t49 -122q0 -74 -48.5 -123 t-123.5 -49q-72 0 -121 49.5t-49 122.5z" />
<glyph unicode="&#xd7;" d="M29 889l196 194l314 -313l307 307l182 -182l-307 -307l313 -314l-194 -196l-316 315l-303 -305l-182 182l305 303z" />
<glyph unicode="&#xd8;" horiz-adv-x="1548" d="M57 696q0 151 55 284.5t150 228.5t228 150.5t284 55.5q187 0 350 -88l101 139l159 -110l-104 -144q100 -99 155.5 -231.5t55.5 -284.5q0 -151 -55 -284.5t-150 -228.5t-228 -150.5t-284 -55.5q-183 0 -340 80l-94 -129l-150 107l93 129q-106 99 -166 236.5t-60 295.5z M416 696q0 -138 80 -237l417 577q-74 31 -139 31q-152 0 -255 -108.5t-103 -262.5zM647 348q61 -22 127 -22q152 0 255.5 108t103.5 262q0 124 -70 219z" />
<glyph unicode="&#xd9;" horiz-adv-x="1339" d="M125 537v856h348v-885q0 -86 53 -139.5t144 -53.5t143.5 53.5t52.5 139.5v885h348v-856q0 -264 -146 -412t-398 -148t-398.5 148t-146.5 412zM377 1786h270l148 -301h-240z" />
<glyph unicode="&#xda;" horiz-adv-x="1339" d="M125 537v856h348v-885q0 -86 53 -139.5t144 -53.5t143.5 53.5t52.5 139.5v885h348v-856q0 -264 -146 -412t-398 -148t-398.5 148t-146.5 412zM551 1485l147 301h271l-178 -301h-240z" />
<glyph unicode="&#xdb;" horiz-adv-x="1339" d="M125 537v856h348v-885q0 -86 53 -139.5t144 -53.5t143.5 53.5t52.5 139.5v885h348v-856q0 -264 -146 -412t-398 -148t-398.5 148t-146.5 412zM330 1485l168 301h344l168 -301h-240l-100 172l-101 -172h-239z" />
<glyph unicode="&#xdc;" horiz-adv-x="1339" d="M125 537v856h348v-885q0 -86 53 -139.5t144 -53.5t143.5 53.5t52.5 139.5v885h348v-856q0 -264 -146 -412t-398 -148t-398.5 148t-146.5 412zM272 1681q0 71 49.5 121.5t122.5 50.5t121.5 -50.5t48.5 -121.5q0 -74 -48.5 -123t-121.5 -49q-74 0 -123 49.5t-49 122.5z M725 1681q0 71 49.5 121.5t120.5 50.5q74 0 123 -50t49 -122q0 -74 -48.5 -123t-123.5 -49q-72 0 -121 49.5t-49 122.5z" />
<glyph unicode="&#xdd;" horiz-adv-x="1179" d="M-25 1393h390l225 -455l227 455h389l-442 -803v-590h-348v594zM467 1485l147 301h271l-178 -301h-240z" />
<glyph unicode="&#xde;" horiz-adv-x="1138" d="M139 0v1393h348v-238h160q212 0 341.5 -121.5t129.5 -331.5t-129.5 -331t-341.5 -121h-160v-250h-348zM487 586h156q53 0 85 30.5t32 85.5q0 56 -32.5 86.5t-84.5 30.5h-156v-233z" />
<glyph unicode="&#xdf;" horiz-adv-x="1157" d="M104 0v936q0 229 121.5 363.5t360.5 134.5q220 0 345.5 -114t125.5 -288q0 -98 -41.5 -175t-106.5 -116q84 -37 139.5 -122t55.5 -179q0 -215 -124 -331.5t-351 -116.5q-26 0 -86 6l2 315q60 -6 84 -6q68 0 107.5 42.5t39.5 115.5q0 58 -41.5 95.5t-109.5 37.5h-80v285 h71q48 0 77.5 32t29.5 78q0 53 -36.5 87t-98.5 34q-69 0 -109.5 -40t-40.5 -122v-952h-334z" />
<glyph unicode="&#xe0;" horiz-adv-x="1007" d="M39 309q0 139 92.5 233.5t243.5 94.5q120 0 205 -53v26q0 75 -44 111.5t-122 36.5q-133 0 -260 -72v311q60 23 143 39.5t158 16.5q458 0 458 -451v-602h-333v59q-79 -82 -211 -82q-83 0 -148 28t-103.5 75.5t-58.5 105.5t-20 123zM197 1425h270l147 -301h-239zM367 309 q0 -38 30 -65t74 -27q45 0 74.5 26.5t29.5 65.5t-29.5 65.5t-74.5 26.5q-44 0 -74 -27t-30 -65z" />
<glyph unicode="&#xe1;" horiz-adv-x="1007" d="M39 309q0 139 92.5 233.5t243.5 94.5q120 0 205 -53v26q0 75 -44 111.5t-122 36.5q-133 0 -260 -72v311q60 23 143 39.5t158 16.5q458 0 458 -451v-602h-333v59q-79 -82 -211 -82q-83 0 -148 28t-103.5 75.5t-58.5 105.5t-20 123zM367 309q0 -38 30 -65t74 -27 q45 0 74.5 26.5t29.5 65.5t-29.5 65.5t-74.5 26.5q-44 0 -74 -27t-30 -65zM406 1124l147 301h270l-178 -301h-239z" />
<glyph unicode="&#xe2;" horiz-adv-x="1007" d="M39 309q0 139 92.5 233.5t243.5 94.5q120 0 205 -53v26q0 75 -44 111.5t-122 36.5q-133 0 -260 -72v311q60 23 143 39.5t158 16.5q458 0 458 -451v-602h-333v59q-79 -82 -211 -82q-83 0 -148 28t-103.5 75.5t-58.5 105.5t-20 123zM145 1124l168 301h344l168 -301h-239 l-101 172l-100 -172h-240zM367 309q0 -38 30 -65t74 -27q45 0 74.5 26.5t29.5 65.5t-29.5 65.5t-74.5 26.5q-44 0 -74 -27t-30 -65z" />
<glyph unicode="&#xe3;" horiz-adv-x="1007" d="M39 309q0 139 92.5 233.5t243.5 94.5q120 0 205 -53v26q0 75 -44 111.5t-122 36.5q-133 0 -260 -72v311q60 23 143 39.5t158 16.5q458 0 458 -451v-602h-333v59q-79 -82 -211 -82q-83 0 -148 28t-103.5 75.5t-58.5 105.5t-20 123zM174 1157v219q57 -51 148 -51 q42 0 91.5 21.5t107.5 43t120 21.5q83 0 160 -43v-219q-86 51 -160 51q-54 0 -155 -43t-164 -43q-86 0 -148 43zM367 309q0 -38 30 -65t74 -27q45 0 74.5 26.5t29.5 65.5t-29.5 65.5t-74.5 26.5q-44 0 -74 -27t-30 -65z" />
<glyph unicode="&#xe4;" horiz-adv-x="1007" d="M39 309q0 139 92.5 233.5t243.5 94.5q120 0 205 -53v26q0 75 -44 111.5t-122 36.5q-133 0 -260 -72v311q60 23 143 39.5t158 16.5q458 0 458 -451v-602h-333v59q-79 -82 -211 -82q-83 0 -148 28t-103.5 75.5t-58.5 105.5t-20 123zM86 1321q0 71 49.5 121.5t122.5 50.5 t121.5 -50.5t48.5 -121.5q0 -74 -48.5 -123t-121.5 -49q-74 0 -123 49.5t-49 122.5zM367 309q0 -38 30 -65t74 -27q45 0 74.5 26.5t29.5 65.5t-29.5 65.5t-74.5 26.5q-44 0 -74 -27t-30 -65zM539 1321q0 71 49.5 121.5t120.5 50.5q74 0 123 -50t49 -122q0 -74 -48.5 -123 t-123.5 -49q-72 0 -121 49.5t-49 122.5z" />
<glyph unicode="&#xe5;" horiz-adv-x="1007" d="M39 309q0 139 92.5 233.5t243.5 94.5q120 0 205 -53v26q0 75 -44 111.5t-122 36.5q-133 0 -260 -72v311q60 23 143 39.5t158 16.5q458 0 458 -451v-602h-333v59q-79 -82 -211 -82q-83 0 -148 28t-103.5 75.5t-58.5 105.5t-20 123zM258 1315q0 86 58.5 148.5t164.5 62.5 q112 0 173 -62.5t61 -148.5q0 -81 -61.5 -143t-172.5 -62q-105 0 -164 62t-59 143zM367 309q0 -38 30 -65t74 -27q45 0 74.5 26.5t29.5 65.5t-29.5 65.5t-74.5 26.5q-44 0 -74 -27t-30 -65zM406 1315q0 -29 19.5 -50.5t55.5 -21.5q40 0 61 21.5t21 50.5q0 31 -21 54.5 t-61 23.5q-36 0 -55.5 -23.5t-19.5 -54.5z" />
<glyph unicode="&#xe6;" horiz-adv-x="1683" d="M39 309q0 139 92.5 233.5t243.5 94.5q120 0 205 -53v26q0 75 -44 111.5t-122 36.5q-133 0 -260 -72v311q60 23 143 39.5t158 16.5q247 0 362 -133q143 133 348 133q145 0 255 -67.5t165 -176.5t55 -240q0 -86 -18 -153h-639q19 -66 79.5 -103t151.5 -37q194 0 340 82 v-313q-56 -29 -156.5 -48.5t-223.5 -19.5q-125 0 -224.5 39.5t-156.5 108.5q-61 -66 -156 -107t-213 -41q-83 0 -150 18.5t-110 49.5t-72 74.5t-41 90.5t-12 99zM367 309q0 -38 30 -65t74 -27q45 0 74.5 26.5t29.5 65.5t-29.5 65.5t-74.5 26.5q-44 0 -74 -27t-30 -65z M981 664h342q-5 51 -48 82.5t-112 31.5q-68 0 -119 -33.5t-63 -80.5z" />
<glyph unicode="&#xe7;" horiz-adv-x="884" d="M49 516q0 233 151 385t396 152q48 0 111.5 -10.5t99.5 -26.5v-350q-92 61 -211 61q-91 0 -150 -61.5t-59 -149.5t59 -150.5t150 -62.5q117 0 211 62v-349q-43 -21 -131 -32l-105 -295h-327l151 321q-161 55 -253.5 191t-92.5 315z" />
<glyph unicode="&#xe8;" horiz-adv-x="1083" d="M49 516q0 150 66 273t184.5 193.5t265.5 70.5q145 0 255 -67.5t165 -176.5t55 -240q0 -86 -18 -153h-639q19 -66 79.5 -103t151.5 -37q194 0 340 82v-313q-142 -68 -368 -68q-154 0 -276 66t-191.5 189.5t-69.5 283.5zM285 1425h270l147 -301h-239zM381 664h342 q-5 51 -48 82.5t-112 31.5q-68 0 -119 -33.5t-63 -80.5z" />
<glyph unicode="&#xe9;" horiz-adv-x="1083" d="M49 516q0 150 66 273t184.5 193.5t265.5 70.5q145 0 255 -67.5t165 -176.5t55 -240q0 -86 -18 -153h-639q19 -66 79.5 -103t151.5 -37q194 0 340 82v-313q-142 -68 -368 -68q-154 0 -276 66t-191.5 189.5t-69.5 283.5zM381 664h342q-5 51 -48 82.5t-112 31.5 q-68 0 -119 -33.5t-63 -80.5zM459 1124l147 301h271l-179 -301h-239z" />
<glyph unicode="&#xea;" horiz-adv-x="1083" d="M49 516q0 150 66 273t184.5 193.5t265.5 70.5q145 0 255 -67.5t165 -176.5t55 -240q0 -86 -18 -153h-639q19 -66 79.5 -103t151.5 -37q194 0 340 82v-313q-142 -68 -368 -68q-154 0 -276 66t-191.5 189.5t-69.5 283.5zM236 1124l167 301h345l167 -301h-239l-101 172 l-100 -172h-239zM381 664h342q-5 51 -48 82.5t-112 31.5q-68 0 -119 -33.5t-63 -80.5z" />
<glyph unicode="&#xeb;" horiz-adv-x="1083" d="M49 516q0 150 66 273t184.5 193.5t265.5 70.5q145 0 255 -67.5t165 -176.5t55 -240q0 -86 -18 -153h-639q19 -66 79.5 -103t151.5 -37q194 0 340 82v-313q-142 -68 -368 -68q-154 0 -276 66t-191.5 189.5t-69.5 283.5zM174 1321q0 71 49.5 121.5t122.5 50.5t121.5 -50.5 t48.5 -121.5q0 -74 -48.5 -123t-121.5 -49q-74 0 -123 49.5t-49 122.5zM381 664h342q-5 51 -48 82.5t-112 31.5q-68 0 -119 -33.5t-63 -80.5zM627 1321q0 71 49.5 121.5t120.5 50.5q74 0 123 -50t49 -122q0 -74 -48.5 -123t-123.5 -49q-72 0 -121 49.5t-49 122.5z" />
<glyph unicode="&#xec;" horiz-adv-x="542" d="M-20 1425h270l147 -301h-239zM104 0v1032h334v-1032h-334z" />
<glyph unicode="&#xed;" horiz-adv-x="542" d="M104 0v1032h334v-1032h-334zM154 1124l147 301h270l-178 -301h-239z" />
<glyph unicode="&#xee;" horiz-adv-x="542" d="M-70 1124l168 301h344l168 -301h-239l-101 172l-100 -172h-240zM104 0v1032h334v-1032h-334z" />
<glyph unicode="&#xef;" horiz-adv-x="542" d="M-127 1321q0 71 49.5 121.5t122.5 50.5t121.5 -50.5t48.5 -121.5q0 -74 -48.5 -123t-121.5 -49t-122.5 49.5t-49.5 122.5zM104 0v1032h334v-1032h-334zM326 1321q0 71 49.5 121.5t120.5 50.5q74 0 123 -50t49 -122q0 -74 -48.5 -123t-123.5 -49q-72 0 -121 49.5 t-49 122.5z" />
<glyph unicode="&#xf0;" horiz-adv-x="1107" d="M47 485q0 100 33 187t90.5 149.5t132 103.5t158.5 56l-49 74l-127 -47l-86 139l120 45l-133 201h418l43 -74l133 51l88 -145l-133 -49l238 -390q88 -148 88 -301q0 -217 -145.5 -362.5t-362.5 -145.5q-215 0 -360.5 145.5t-145.5 362.5zM399 485q0 -67 44 -113t110 -46 t111 46.5t45 112.5t-45 112t-111 46t-110 -46t-44 -112z" />
<glyph unicode="&#xf1;" horiz-adv-x="1138" d="M104 0v1032h334v-114q92 135 252 135q158 0 255 -106.5t97 -270.5v-676h-333v578q0 69 -37 109t-99 40q-59 0 -95.5 -36t-39.5 -101v-590h-334zM260 1157v219q57 -51 148 -51q42 0 91.5 21.5t107.5 43t120 21.5q83 0 160 -43v-219q-86 51 -160 51q-54 0 -155 -43 t-164 -43q-86 0 -148 43z" />
<glyph unicode="&#xf2;" horiz-adv-x="1167" d="M47 516q0 227 155 382t382 155t381.5 -155t154.5 -382q0 -149 -70.5 -273t-193.5 -195t-272 -71q-227 0 -382 156t-155 383zM307 1425h271l147 -301h-240zM385 516q0 -88 57 -150.5t142 -62.5q86 0 142 62.5t56 150.5t-56 149.5t-142 61.5q-85 0 -142 -62t-57 -149z" />
<glyph unicode="&#xf3;" horiz-adv-x="1167" d="M47 516q0 227 155 382t382 155t381.5 -155t154.5 -382q0 -149 -70.5 -273t-193.5 -195t-272 -71q-227 0 -382 156t-155 383zM385 516q0 -88 57 -150.5t142 -62.5q86 0 142 62.5t56 150.5t-56 149.5t-142 61.5q-85 0 -142 -62t-57 -149zM479 1124l148 301h270l-178 -301 h-240z" />
<glyph unicode="&#xf4;" horiz-adv-x="1167" d="M47 516q0 227 155 382t382 155t381.5 -155t154.5 -382q0 -149 -70.5 -273t-193.5 -195t-272 -71q-227 0 -382 156t-155 383zM244 1124l168 301h344l168 -301h-240l-100 172l-101 -172h-239zM385 516q0 -88 57 -150.5t142 -62.5q86 0 142 62.5t56 150.5t-56 149.5 t-142 61.5q-85 0 -142 -62t-57 -149z" />
<glyph unicode="&#xf5;" horiz-adv-x="1167" d="M47 516q0 227 155 382t382 155t381.5 -155t154.5 -382q0 -149 -70.5 -273t-193.5 -195t-272 -71q-227 0 -382 156t-155 383zM270 1157v219q57 -51 148 -51q42 0 91.5 21.5t107.5 43t120 21.5q83 0 160 -43v-219q-86 51 -160 51q-54 0 -155 -43t-164 -43q-86 0 -148 43z M385 516q0 -88 57 -150.5t142 -62.5q86 0 142 62.5t56 150.5t-56 149.5t-142 61.5q-85 0 -142 -62t-57 -149z" />
<glyph unicode="&#xf6;" horiz-adv-x="1167" d="M47 516q0 227 155 382t382 155t381.5 -155t154.5 -382q0 -149 -70.5 -273t-193.5 -195t-272 -71q-227 0 -382 156t-155 383zM186 1321q0 71 49.5 121.5t122.5 50.5t121.5 -50.5t48.5 -121.5q0 -74 -48.5 -123t-121.5 -49q-74 0 -123 49.5t-49 122.5zM385 516 q0 -88 57 -150.5t142 -62.5q86 0 142 62.5t56 150.5t-56 149.5t-142 61.5q-85 0 -142 -62t-57 -149zM639 1321q0 71 49.5 121.5t120.5 50.5q74 0 123 -50t49 -122q0 -74 -48.5 -123t-123.5 -49q-72 0 -121 49.5t-49 122.5z" />
<glyph unicode="&#xf7;" d="M63 457v256h936v-256h-936zM362 158q0 72 50 119t125 47q74 0 123 -47t49 -119q0 -70 -49 -117t-123 -47q-75 0 -125 47t-50 117zM362 1004q0 72 49.5 117.5t125.5 45.5q74 0 123 -46t49 -117q0 -72 -49 -119t-123 -47q-75 0 -125 47t-50 119z" />
<glyph unicode="&#xf8;" horiz-adv-x="1167" d="M47 516q0 227 155 382t382 155q126 0 241 -56l70 95l160 -111l-74 -100q139 -152 139 -365q0 -149 -70.5 -273t-193.5 -195t-272 -71q-122 0 -232 52l-73 -101l-150 107l72 98q-73 73 -113.5 172t-40.5 211zM358 516q0 -66 31 -123l256 355q-40 8 -61 8q-95 0 -160.5 -71 t-65.5 -169zM539 281q35 -5 45 -5q97 0 161 70.5t64 169.5q0 51 -23 102z" />
<glyph unicode="&#xf9;" horiz-adv-x="1144" d="M100 354v678h334v-577q0 -70 35.5 -111t97.5 -41q59 0 95 36.5t40 100.5v592h334v-1032h-334v113q-89 -136 -251 -136q-156 0 -253.5 107t-97.5 270zM266 1425h271l147 -301h-240z" />
<glyph unicode="&#xfa;" horiz-adv-x="1144" d="M100 354v678h334v-577q0 -70 35.5 -111t97.5 -41q59 0 95 36.5t40 100.5v592h334v-1032h-334v113q-89 -136 -251 -136q-156 0 -253.5 107t-97.5 270zM451 1124l147 301h270l-178 -301h-239z" />
<glyph unicode="&#xfb;" horiz-adv-x="1144" d="M100 354v678h334v-577q0 -70 35.5 -111t97.5 -41q59 0 95 36.5t40 100.5v592h334v-1032h-334v113q-89 -136 -251 -136q-156 0 -253.5 107t-97.5 270zM227 1124l168 301h344l168 -301h-239l-101 172l-100 -172h-240z" />
<glyph unicode="&#xfc;" horiz-adv-x="1144" d="M100 354v678h334v-577q0 -70 35.5 -111t97.5 -41q59 0 95 36.5t40 100.5v592h334v-1032h-334v113q-89 -136 -251 -136q-156 0 -253.5 107t-97.5 270zM170 1321q0 71 49.5 121.5t122.5 50.5t121.5 -50.5t48.5 -121.5q0 -74 -48.5 -123t-121.5 -49q-74 0 -123 49.5 t-49 122.5zM623 1321q0 71 49.5 121.5t120.5 50.5q74 0 123 -50t49 -122q0 -74 -48.5 -123t-123.5 -49q-72 0 -121 49.5t-49 122.5z" />
<glyph unicode="&#xfd;" horiz-adv-x="1097" d="M-4 1032h375l178 -532l196 532h375l-606 -1452h-385l238 498zM449 1124l147 301h270l-178 -301h-239z" />
<glyph unicode="&#xfe;" horiz-adv-x="1253" d="M111 -420v1833h333v-500q97 140 281 140q211 0 345 -153.5t134 -383.5q0 -151 -59.5 -273.5t-170 -194t-251.5 -71.5q-173 0 -279 119v-516h-333zM444 516q0 -87 59.5 -149t149.5 -62q88 0 146.5 62.5t58.5 148.5t-58.5 147.5t-146.5 61.5q-91 0 -150 -61t-59 -148z" />
<glyph unicode="&#xff;" horiz-adv-x="1097" d="M-4 1032h375l178 -532l196 532h375l-606 -1452h-385l238 498zM162 1321q0 71 49.5 121.5t122.5 50.5t121.5 -50.5t48.5 -121.5q0 -74 -48.5 -123t-121.5 -49q-74 0 -123 49.5t-49 122.5zM614 1321q0 71 49.5 121.5t120.5 50.5q74 0 123 -50t49 -122q0 -74 -48.5 -123 t-123.5 -49q-72 0 -121 49.5t-49 122.5z" />
<glyph unicode="&#x152;" horiz-adv-x="2058" d="M57 696q0 151 55 284.5t150 228.5t228 150.5t284 55.5q196 0 365 -94v72h815v-336h-467v-187h426v-335h-426v-199h467v-336h-815v72q-165 -95 -365 -95q-151 0 -284 55.5t-228 150.5t-150 228.5t-55 284.5zM416 696q0 -155 102.5 -262.5t255.5 -107.5q152 0 255.5 108 t103.5 262q0 153 -104 262t-255 109q-152 0 -255 -108.5t-103 -262.5z" />
<glyph unicode="&#x153;" horiz-adv-x="1826" d="M47 516q0 227 155 382t382 155q213 0 368 -142q145 142 357 142q145 0 255 -67.5t165 -176.5t55 -240q0 -83 -19 -153h-639q19 -66 80 -103t152 -37q194 0 340 82v-313q-142 -68 -369 -68q-228 0 -379 142q-145 -142 -366 -142q-120 0 -222 44t-170 118.5t-106.5 172 t-38.5 204.5zM385 516q0 -88 57 -150.5t142 -62.5q86 0 142 62.5t56 150.5t-56 149.5t-142 61.5q-85 0 -142 -62t-57 -149zM1124 664h342q-5 51 -48 82.5t-111 31.5t-119.5 -33.5t-63.5 -80.5z" />
<glyph unicode="&#x178;" horiz-adv-x="1179" d="M-25 1393h390l225 -455l227 455h389l-442 -803v-590h-348v594zM195 1681q0 71 49.5 121.5t122.5 50.5t121.5 -50.5t48.5 -121.5q0 -74 -48.5 -123t-121.5 -49t-122.5 49.5t-49.5 122.5zM647 1681q0 71 49.5 121.5t120.5 50.5q74 0 123 -50t49 -122q0 -74 -48.5 -123 t-123.5 -49q-72 0 -121 49.5t-49 122.5z" />
<glyph unicode="&#x2c6;" horiz-adv-x="1187" d="M254 1124l168 301h344l168 -301h-240l-100 172l-100 -172h-240z" />
<glyph unicode="&#x2dc;" horiz-adv-x="1187" d="M281 1157v219q57 -51 147 -51q42 0 91.5 21.5t108 43t120.5 21.5q82 0 159 -43v-219q-86 51 -159 51q-54 0 -155.5 -43t-164.5 -43q-85 0 -147 43z" />
<glyph unicode="&#x2000;" horiz-adv-x="943" />
<glyph unicode="&#x2001;" horiz-adv-x="1886" />
<glyph unicode="&#x2002;" horiz-adv-x="943" />
<glyph unicode="&#x2003;" horiz-adv-x="1886" />
<glyph unicode="&#x2004;" horiz-adv-x="628" />
<glyph unicode="&#x2005;" horiz-adv-x="471" />
<glyph unicode="&#x2006;" horiz-adv-x="314" />
<glyph unicode="&#x2007;" horiz-adv-x="314" />
<glyph unicode="&#x2008;" horiz-adv-x="235" />
<glyph unicode="&#x2009;" horiz-adv-x="377" />
<glyph unicode="&#x200a;" horiz-adv-x="104" />
<glyph unicode="&#x2010;" horiz-adv-x="759" d="M96 426v315h568v-315h-568z" />
<glyph unicode="&#x2011;" horiz-adv-x="759" d="M96 426v315h568v-315h-568z" />
<glyph unicode="&#x2012;" horiz-adv-x="759" d="M96 426v315h568v-315h-568z" />
<glyph unicode="&#x2013;" horiz-adv-x="1210" d="M98 457v256h1014v-256h-1014z" />
<glyph unicode="&#x2014;" horiz-adv-x="1497" d="M98 457v256h1301v-256h-1301z" />
<glyph unicode="&#x2018;" horiz-adv-x="565" d="M66 784l116 609h307l-55 -609h-368z" />
<glyph unicode="&#x2019;" horiz-adv-x="555" d="M84 784l55 609h369l-117 -609h-307z" />
<glyph unicode="&#x201a;" horiz-adv-x="563" d="M61 -221l56 608h368l-116 -608h-308z" />
<glyph unicode="&#x201c;" horiz-adv-x="1056" d="M66 784l116 609h307l-55 -609h-368zM557 784l117 609h307l-55 -609h-369z" />
<glyph unicode="&#x201d;" horiz-adv-x="1046" d="M84 784l55 609h369l-117 -609h-307zM575 784l56 609h368l-116 -609h-308z" />
<glyph unicode="&#x201e;" horiz-adv-x="1054" d="M61 -221l56 608h368l-116 -608h-308zM553 -221l55 608h369l-117 -608h-307z" />
<glyph unicode="&#x2022;" horiz-adv-x="821" d="M113 582q0 123 84.5 203.5t214.5 80.5q129 0 213 -80.5t84 -203.5q0 -122 -84 -202.5t-213 -80.5q-130 0 -214.5 80.5t-84.5 202.5z" />
<glyph unicode="&#x2026;" horiz-adv-x="1710" d="M63 199q0 95 62.5 158t157.5 63t158 -63t63 -158t-63 -157t-158 -62t-157.5 62t-62.5 157zM635 199q0 95 62 158t157 63t158 -63t63 -158t-63 -157t-158 -62t-157 62t-62 157zM1206 199q0 95 62 158t157 63t158.5 -63t63.5 -158t-63 -157t-159 -62q-95 0 -157 62t-62 157 z" />
<glyph unicode="&#x202f;" horiz-adv-x="377" />
<glyph unicode="&#x2039;" horiz-adv-x="641" d="M57 582l338 481l170 -121l-186 -362l188 -361l-172 -119z" />
<glyph unicode="&#x203a;" horiz-adv-x="638" d="M74 942l172 119l338 -481l-338 -482l-170 121l186 363z" />
<glyph unicode="&#x205f;" horiz-adv-x="471" />
<glyph unicode="&#x20ac;" d="M12 416l56 223h82v78h-136l56 223h84q22 218 174 346.5t379 128.5q75 0 172.5 -23t148.5 -59l-96 -327q-34 29 -102 49t-123 20q-163 0 -201 -135h403l-55 -223h-356v-78h331l-55 -223h-258q44 -99 180 -99q138 0 248 91l107 -306q-155 -125 -355 -125q-217 0 -363 119 t-177 320h-144z" />
<glyph unicode="&#x2122;" horiz-adv-x="1730" d="M104 1212v181h547v-181h-182v-538h-186v538h-179zM772 674v719h229l191 -480l186 480h230v-719h-187v385l-149 -385h-162l-152 383v-383h-186z" />
<glyph unicode="&#x25fc;" horiz-adv-x="1034" d="M0 0v1034h1034v-1034h-1034z" />
</font>
</defs>
</svg>
