<?xml version="1.0" standalone="no"?>
<!DOCTYPE svg PUBLIC "-//W3C//DTD SVG 1.1//EN" "http://www.w3.org/Graphics/SVG/1.1/DTD/svg11.dtd" >
<svg xmlns="http://www.w3.org/2000/svg" xmlns:xlink="http://www.w3.org/1999/xlink" version="1.1">
<metadata></metadata>
<defs>
<font id="niveau_groteskbold" horiz-adv-x="1064" >
<font-face units-per-em="2048" ascent="1536" descent="-512" />
<missing-glyph horiz-adv-x="440" />
<glyph unicode="&#xfb01;" horiz-adv-x="1206" d="M47 741v238h143v92q0 176 101.5 269.5t275.5 93.5q62 0 105 -13v-278q-36 18 -94 18q-51 0 -80 -30t-29 -78v-74h199v-238h-199v-741h-279v741h-143zM784 1317q0 70 47 118t117 48q71 0 117.5 -48t46.5 -118t-46.5 -117t-117.5 -47q-70 0 -117 47.5t-47 116.5zM809 0 v1020h278v-1020h-278z" />
<glyph unicode="&#xfb02;" horiz-adv-x="1202" d="M47 741v238h143v92q0 176 101.5 269.5t275.5 93.5q62 0 105 -13v-278q-36 18 -94 18q-51 0 -80 -30t-29 -78v-74h199v-238h-199v-741h-279v741h-143zM805 0v1413h280v-1413h-280z" />
<glyph horiz-adv-x="0" />
<glyph horiz-adv-x="682" />
<glyph unicode=" "  horiz-adv-x="440" />
<glyph unicode="&#x09;" horiz-adv-x="440" />
<glyph unicode="&#xa0;" horiz-adv-x="440" />
<glyph unicode="!" horiz-adv-x="559" d="M88 168q0 83 53 137.5t135 54.5q83 0 138 -54.5t55 -137.5q0 -82 -55 -135t-138 -53q-82 0 -135 53t-53 135zM117 1393h323l-65 -910h-193z" />
<glyph unicode="&#x22;" horiz-adv-x="911" d="M98 1393h291l-16 -484h-258zM522 1393h291l-16 -484h-258z" />
<glyph unicode="#" horiz-adv-x="1357" d="M72 371v157h223l94 320h-256v158h303l115 387h192l-116 -387h297l114 387h193l-117 -387h172v-158h-219l-94 -320h252v-157h-299l-111 -371h-190l110 371h-297l-110 -371h-191l111 371h-176zM485 528h297l95 320h-297z" />
<glyph unicode="$" horiz-adv-x="1001" d="M80 1010q0 68 20.5 130t63 118.5t118 96t175.5 52.5v186h102v-178h6q160 0 299 -63v-310q-58 41 -142 71t-159 30h-4v-291l121 -72q133 -81 192.5 -173.5t59.5 -211.5q0 -157 -95 -270.5t-278 -138.5v-226h-102v217q-185 3 -346 72v322q63 -49 156.5 -85t183.5 -36h6v297 l-135 80q-133 77 -187.5 168t-54.5 215zM391 1018q0 -55 66 -103v205q-66 -29 -66 -102zM559 272q64 36 64 107q0 52 -64 104v-211z" />
<glyph unicode="%" horiz-adv-x="1816" d="M70 854v248q0 136 92.5 223.5t234.5 87.5t235 -87.5t93 -223.5v-248q0 -136 -93.5 -224.5t-234.5 -88.5t-234 88.5t-93 224.5zM270 858q0 -55 34 -89t93 -34t93 34t34 89v238q0 55 -34 89t-93 34t-93 -34t-34 -89v-238zM500 0l618 1393h209l-620 -1393h-207zM1092 291 v250q0 135 92.5 223t232.5 88q141 0 234.5 -88t93.5 -223v-250q0 -135 -93.5 -224.5t-234.5 -89.5q-140 0 -232.5 89.5t-92.5 224.5zM1292 297q0 -55 33.5 -89t91.5 -34q59 0 93 34t34 89v238q0 55 -34 87.5t-93 32.5q-58 0 -91.5 -32.5t-33.5 -87.5v-238z" />
<glyph unicode="&#x26;" horiz-adv-x="1419" d="M59 410q0 90 26.5 163t75.5 124t101 85t121 64l-8 12q-92 113 -92 223q0 143 103 237.5t265 94.5q164 0 261.5 -94.5t97.5 -243.5q0 -64 -18 -116.5t-52 -91.5t-74 -67.5t-92 -54.5l174 -204l359 387v-383l-189 -207l285 -338h-350l-117 145q-186 -168 -406 -168 q-115 0 -207 37t-148.5 98.5t-86 138t-29.5 159.5zM344 430q0 -73 50 -129.5t136 -56.5q111 0 240 112l-229 291q-96 -42 -146.5 -91t-50.5 -126zM551 1065q0 -45 55 -119l8 -10q62 28 94.5 58t32.5 71q0 42 -23 70t-67 28t-72 -27.5t-28 -70.5z" />
<glyph unicode="'" horiz-adv-x="489" d="M98 1384h291l-16 -475h-258z" />
<glyph unicode="(" horiz-adv-x="552" d="M61 496q0 260 85.5 503t222.5 416l153 -98q-121 -172 -181 -371.5t-60 -449.5q0 -249 60 -448.5t181 -371.5l-153 -98q-137 172 -222.5 416t-85.5 502z" />
<glyph unicode=")" horiz-adv-x="552" d="M31 -324q121 172 181 372t60 450q0 249 -60 448t-181 371l153 98q137 -172 222.5 -415.5t85.5 -501.5q0 -260 -85.5 -504t-222.5 -416z" />
<glyph unicode="*" horiz-adv-x="729" d="M82 1001l190 111l-190 111l43 77l192 -110v223h89v-223l192 113l45 -78l-194 -113l194 -108l-45 -78l-192 110v-219h-89v217l-190 -108z" />
<glyph unicode="+" d="M68 475v217h346v359h231v-359h350v-217h-350v-358h-231v358h-346z" />
<glyph unicode="," horiz-adv-x="546" d="M80 -236l59 570h310l-111 -570h-258z" />
<glyph unicode="-" horiz-adv-x="763" d="M106 453v262h551v-262h-551z" />
<glyph unicode="." horiz-adv-x="538" d="M80 168q0 83 53 137.5t135 54.5q83 0 138 -54.5t55 -137.5q0 -82 -55 -135t-138 -53q-82 0 -135 53t-53 135z" />
<glyph unicode="/" horiz-adv-x="915" d="M45 0l619 1393h208l-620 -1393h-207z" />
<glyph unicode="0" horiz-adv-x="1208" d="M98 483v428q0 218 144 361t362 143t361 -143t143 -361v-428q0 -220 -143 -363t-361 -143q-219 0 -362.5 143.5t-143.5 362.5zM389 489q0 -100 58 -163.5t157 -63.5q98 0 155.5 63.5t57.5 163.5v414q0 101 -57.5 164t-155.5 63q-100 0 -157.5 -63t-57.5 -164v-414z" />
<glyph unicode="1" horiz-adv-x="978" d="M68 0v281h317v831h-264v281h555v-1112h272v-281h-880z" />
<glyph unicode="2" horiz-adv-x="960" d="M80 0v248l385 481q104 129 104 225q0 79 -44.5 124.5t-121.5 45.5q-165 0 -294 -129v328q58 41 144.5 66.5t172.5 25.5q91 0 165.5 -22.5t125 -60.5t85 -90t50.5 -110t16 -122q0 -125 -37.5 -215t-109.5 -181l-262 -333h403v-281h-782z" />
<glyph unicode="3" horiz-adv-x="954" d="M96 41v328q120 -101 291 -101q81 0 134.5 44t53.5 114t-50 111t-130 41h-196v280h194q63 0 104.5 36t41.5 95q0 60 -43.5 97.5t-116.5 37.5q-153 0 -266 -82v314q125 59 278 59q201 0 324 -110.5t123 -276.5q0 -110 -44.5 -188.5t-121.5 -120.5q94 -44 149.5 -130 t55.5 -204q0 -173 -135 -290.5t-339 -117.5q-154 0 -307 64z" />
<glyph unicode="4" horiz-adv-x="1155" d="M37 268v248l592 877h291v-844h167v-281h-167v-268h-291v268h-592zM342 549h287v434z" />
<glyph unicode="5" horiz-adv-x="1009" d="M90 59v351q149 -142 322 -142q92 0 152.5 55t60.5 138q0 52 -22 88t-63 54.5t-88 26t-108 7.5h-186l65 756h676v-281h-414l-26 -205q214 -6 339.5 -125.5t125.5 -320.5q0 -233 -137.5 -358.5t-358.5 -125.5q-90 0 -181.5 23.5t-156.5 58.5z" />
<glyph unicode="6" horiz-adv-x="1126" d="M63 479q0 151 91 299l383 615h350l-285 -437q93 -6 176 -41.5t146.5 -95t101 -147.5t37.5 -193q0 -214 -143 -358t-355 -144q-214 0 -358 144t-144 358zM358 479q0 -88 60 -149.5t147 -61.5t145 61t58 150q0 87 -58 147t-145 60t-147 -60t-60 -147z" />
<glyph unicode="7" horiz-adv-x="897" d="M59 1112v281h801v-248l-438 -1145h-332l449 1112h-480z" />
<glyph unicode="8" horiz-adv-x="1071" d="M76 416q0 114 49.5 199t138.5 133q-66 44 -102.5 114.5t-36.5 161.5q0 169 118.5 280t291.5 111q175 0 294 -111t119 -280q0 -180 -141 -279q88 -47 138 -131.5t50 -197.5q0 -191 -132 -315t-328 -124t-327.5 124t-131.5 315zM350 418q0 -75 53.5 -128.5t131.5 -53.5 q79 0 132.5 53t53.5 129q0 79 -52.5 133.5t-133.5 54.5q-78 0 -131.5 -55t-53.5 -133zM397 1022q0 -59 39 -98t101 -39q61 0 99 39t38 98t-38 97t-99 38t-100.5 -38t-39.5 -97z" />
<glyph unicode="9" horiz-adv-x="1124" d="M61 913q0 214 144 358t356 144t356 -144t144 -358q0 -153 -90 -299l-383 -614h-348l278 418q-92 8 -174.5 46.5t-145.5 101t-100 153t-37 194.5zM356 913q0 -87 59 -146.5t146 -59.5q86 0 145.5 60t59.5 146q0 88 -59.5 149.5t-145.5 61.5q-87 0 -146 -61.5t-59 -149.5z " />
<glyph unicode=":" horiz-adv-x="542" d="M100 152q0 74 48.5 123t121.5 49q75 0 124.5 -49t49.5 -123q0 -75 -49.5 -123.5t-124.5 -48.5q-74 0 -122 48.5t-48 123.5zM100 817q0 75 48.5 124.5t121.5 49.5q75 0 124.5 -49.5t49.5 -124.5q0 -73 -49.5 -121.5t-124.5 -48.5q-74 0 -122 48.5t-48 121.5z" />
<glyph unicode=";" horiz-adv-x="552" d="M82 -229l55 520h281l-103 -520h-233zM119 817q0 75 48.5 124.5t123.5 49.5t124.5 -49.5t49.5 -124.5q0 -73 -49.5 -121.5t-124.5 -48.5t-123.5 48t-48.5 122z" />
<glyph unicode="&#x3c;" d="M45 475v215l928 357v-224l-651 -241l651 -238v-223z" />
<glyph unicode="=" d="M68 244v215h927v-215h-927zM68 709v217h927v-217h-927z" />
<glyph unicode="&#x3e;" d="M90 121v223l651 238l-651 241v224l928 -357v-215z" />
<glyph unicode="?" horiz-adv-x="884" d="M76 1022v334q123 57 291 57q95 0 172 -23t128 -61.5t85.5 -91t49.5 -109t15 -116.5q0 -101 -36 -168.5t-95 -120.5l-104 -98q-37 -34 -50.5 -62.5t-13.5 -79.5h-282q0 107 21 162.5t89 112.5l100 82q70 60 70 145q0 62 -43.5 99.5t-132.5 37.5q-61 0 -137.5 -28.5 t-126.5 -71.5zM186 168q0 83 53.5 137.5t135.5 54.5q83 0 137.5 -54.5t54.5 -137.5q0 -82 -54.5 -135t-137.5 -53q-82 0 -135.5 53t-53.5 135z" />
<glyph unicode="@" horiz-adv-x="1644" d="M84 553q0 160 56.5 298.5t155 237t237 155t298.5 56.5q159 0 298.5 -53.5t238 -145.5t155 -221t56.5 -276q0 -190 -92.5 -302t-220.5 -112q-149 0 -205 121q-92 -129 -266 -129q-155 0 -255 106.5t-100 266.5q0 161 99.5 267t255.5 106q143 0 235 -92v71h144v-440 q0 -135 102 -135q63 0 107 70.5t44 201.5q0 152 -76.5 279t-213.5 201.5t-306 74.5q-168 0 -304 -80t-212.5 -218.5t-76.5 -307.5t76.5 -307.5t212.5 -218.5t304 -80q114 0 217.5 37.5t180.5 105.5l86 -108q-202 -177 -484 -177q-213 0 -384 96.5t-267 267.5t-96 384z M592 555q0 -99 61 -166t158 -67q98 0 157.5 67t59.5 166t-59.5 165t-157.5 66q-97 0 -158 -66.5t-61 -164.5z" />
<glyph unicode="A" horiz-adv-x="1343" d="M-8 0l516 1393h326l516 -1393h-326l-104 297h-498l-105 -297h-325zM518 578h307l-153 434z" />
<glyph unicode="B" horiz-adv-x="1185" d="M154 0v1393h483q191 0 312.5 -103t121.5 -268q0 -217 -166 -305q96 -46 150.5 -129.5t54.5 -202.5q0 -171 -129.5 -278t-331.5 -107h-495zM444 281h205q73 0 117.5 36.5t44.5 108.5t-45 109.5t-117 37.5h-205v-292zM444 854h191q61 0 99 33t38 96t-38 96t-99 33h-191 v-258z" />
<glyph unicode="C" horiz-adv-x="1191" d="M68 696q0 151 55 284t149.5 228.5t227.5 151t284 55.5q168 0 318 -72v-333q-131 114 -318 114q-177 0 -297 -125t-120 -303q0 -180 119 -304t298 -124q94 0 177 31t141 82v-332q-150 -72 -318 -72q-151 0 -284 55.5t-227.5 151t-149.5 228.5t-55 284z" />
<glyph unicode="D" horiz-adv-x="1429" d="M154 0v1393h516q208 0 365 -89t240 -246.5t83 -361.5q0 -203 -83 -360.5t-240 -246.5t-365 -89h-516zM444 281h224q184 0 286.5 115.5t102.5 299.5q0 183 -102.5 299.5t-286.5 116.5h-224v-831z" />
<glyph unicode="E" horiz-adv-x="1060" d="M154 0v1393h792v-281h-502v-270h461v-281h-461v-280h502v-281h-792z" />
<glyph unicode="F" horiz-adv-x="1032" d="M154 0v1393h792v-281h-502v-330h461v-280h-461v-502h-290z" />
<glyph unicode="G" horiz-adv-x="1482" d="M68 696q0 151 54 284t148.5 228.5t229 151t288.5 55.5q231 0 377 -65v-316q-166 90 -377 90q-182 0 -301.5 -121t-119.5 -307q0 -117 51 -215t144 -155.5t208 -57.5q160 0 258 92t98 213q0 4 -1 15.5t-1 15.5h-360v264h659q19 -101 19 -202q0 -139 -44.5 -262.5 t-127.5 -219t-214.5 -151.5t-293.5 -56q-148 0 -278 55.5t-221 151.5t-143 229t-52 283z" />
<glyph unicode="H" horiz-adv-x="1523" d="M154 0v1393h290v-551h637v551h291v-1393h-291v561h-637v-561h-290z" />
<glyph unicode="I" horiz-adv-x="598" d="M154 0v1393h290v-1393h-290z" />
<glyph unicode="J" horiz-adv-x="913" d="M47 57v320q115 -109 254 -109q87 0 133.5 51t46.5 150v924h291v-932q0 -484 -426 -484q-84 0 -168 23.5t-131 56.5z" />
<glyph unicode="K" horiz-adv-x="1171" d="M154 0v1393h290v-564l359 564h340l-377 -572l397 -821h-340l-266 573l-113 -159v-414h-290z" />
<glyph unicode="L" horiz-adv-x="983" d="M154 0v1393h290v-1112h502v-281h-792z" />
<glyph unicode="M" horiz-adv-x="1789" d="M154 0v1393h356l387 -1022l385 1022h354v-1393h-290v868l-324 -868h-254l-324 868v-868h-290z" />
<glyph unicode="N" horiz-adv-x="1464" d="M66 1372v21h344l610 -887v887h291v-1393h-291l-567 805v-805h-291v1219z" />
<glyph unicode="O" horiz-adv-x="1568" d="M68 696q0 151 55 284t149.5 228.5t227.5 151t284 55.5t284 -55.5t228 -150.5t150 -228.5t55 -284.5t-55 -284.5t-150 -228.5t-228 -150.5t-284 -55.5t-284 55.5t-227.5 151t-149.5 228.5t-55 284zM367 696q0 -180 120 -304t297 -124q176 0 296 124.5t120 303.5 q0 178 -120 303t-296 125q-177 0 -297 -125t-120 -303z" />
<glyph unicode="P" horiz-adv-x="1144" d="M154 0v1393h475q206 0 332 -119t126 -322q0 -205 -125.5 -323.5t-332.5 -118.5h-185v-510h-290zM444 791h181q73 0 118 41t45 118q0 79 -45 120.5t-118 41.5h-181v-321z" />
<glyph unicode="Q" horiz-adv-x="1587" d="M68 696q0 151 55 284t149.5 228.5t227.5 151t284 55.5t284 -55.5t228 -150.5t150 -228.5t55 -284.5q0 -240 -133 -422l135 -133l-198 -198l-142 141q-172 -107 -379 -107q-151 0 -284 55.5t-227.5 151t-149.5 228.5t-55 284zM367 696q0 -180 120 -304t297 -124 q84 0 154 39l-197 199l199 201l207 -209q53 83 53 198q0 178 -120 303t-296 125q-177 0 -297 -125t-120 -303z" />
<glyph unicode="R" horiz-adv-x="1214" d="M154 0v1393h481q208 0 334.5 -108t126.5 -298q0 -141 -70.5 -230.5t-181.5 -121.5q127 -65 206 -234t105 -401h-301q-38 235 -126 376.5t-212 141.5h-72v-518h-290zM444 799h191q71 0 116.5 41t45.5 114q0 74 -45.5 116t-116.5 42h-191v-313z" />
<glyph unicode="S" horiz-adv-x="1007" d="M84 1010q0 61 15.5 117t52 109.5t91 92.5t138.5 62.5t188 23.5q160 0 299 -63v-310q-58 41 -142 71t-159 30q-85 0 -128.5 -34.5t-43.5 -90.5q0 -67 105 -127l184 -111q133 -81 192.5 -173.5t59.5 -211.5q0 -84 -28.5 -158t-84 -133t-147.5 -93t-209 -34q-181 0 -352 72 v322q63 -49 156.5 -85t183.5 -36q82 0 127 35.5t45 93.5q0 71 -111 135l-190 113q-133 77 -187.5 168t-54.5 215z" />
<glyph unicode="T" horiz-adv-x="1048" d="M41 1112v281h967v-281h-338v-1112h-291v1112h-338z" />
<glyph unicode="U" horiz-adv-x="1339" d="M139 524v869h291v-893q0 -107 65.5 -173.5t174.5 -66.5q111 0 176 66.5t65 173.5v893h291v-869q0 -255 -143 -401t-389 -146t-388.5 146t-142.5 401z" />
<glyph unicode="V" horiz-adv-x="1343" d="M-8 1393h325l355 -1055l352 1055h326l-516 -1393h-326z" />
<glyph unicode="W" horiz-adv-x="1964" d="M16 1393h324l235 -1028l285 858l-47 170h293l285 -1028l233 1028h324l-373 -1393h-326l-245 829l-289 -829h-326z" />
<glyph unicode="X" horiz-adv-x="1243" d="M4 0l420 713l-399 680h344l252 -463l251 463h345l-398 -680l418 -713h-342l-274 494l-273 -494h-344z" />
<glyph unicode="Y" horiz-adv-x="1171" d="M-8 1393h327l267 -504l268 504h326l-449 -795v-598h-291v602z" />
<glyph unicode="Z" horiz-adv-x="1034" d="M74 0v248l510 864h-490v281h856v-248l-522 -864h522v-281h-876z" />
<glyph unicode="[" horiz-adv-x="593" d="M139 -420v1833h418v-168h-233v-1497h233v-168h-418z" />
<glyph unicode="\" horiz-adv-x="915" d="M45 1393h209l618 -1393h-206z" />
<glyph unicode="]" horiz-adv-x="593" d="M37 -252h233v1497h-233v168h418v-1833h-418v168z" />
<glyph unicode="^" horiz-adv-x="921" d="M72 1122l389 324l389 -324l-137 -159l-254 211l-252 -213z" />
<glyph unicode="_" horiz-adv-x="1030" d="M106 -61h820v-175h-820v175z" />
<glyph unicode="`" horiz-adv-x="1228" d="M422 1425h229l152 -301h-205z" />
<glyph unicode="a" horiz-adv-x="995" d="M47 309q0 140 94 234t246 94q63 0 123.5 -20.5t99.5 -53.5v55q0 88 -51.5 131.5t-136.5 43.5q-134 0 -262 -76v264q141 59 295 59q434 0 434 -428v-612h-279v76q-86 -99 -227 -99q-161 0 -248.5 96.5t-87.5 235.5zM322 309q0 -54 41.5 -90.5t101.5 -36.5t100.5 36.5 t40.5 90.5t-40.5 90.5t-100.5 36.5t-101.5 -36.5t-41.5 -90.5z" />
<glyph unicode="b" horiz-adv-x="1251" d="M117 0v1413h278v-524q53 72 134.5 111.5t179.5 39.5q141 0 252 -70t172 -190.5t61 -269.5q0 -227 -136 -380t-347 -153q-99 0 -180.5 41t-135.5 113v-131h-278zM395 510q0 -106 73.5 -182t182.5 -76q107 0 179.5 76t72.5 182t-72.5 181t-179.5 75q-109 0 -182.5 -75 t-73.5 -181z" />
<glyph unicode="c" horiz-adv-x="905" d="M59 510q0 150 66.5 270.5t190 190t282.5 69.5q54 0 119 -13t106 -34v-295q-100 70 -225 70q-111 0 -183.5 -75t-72.5 -183t72.5 -184t183.5 -76q131 0 225 72v-295q-41 -22 -105.5 -36t-119.5 -14q-239 0 -389 152.5t-150 380.5z" />
<glyph unicode="d" horiz-adv-x="1251" d="M59 510q0 228 135.5 379t350.5 151q198 0 311 -151v524h279v-1413h-279v131q-55 -73 -135.5 -113.5t-177.5 -40.5q-141 0 -252.5 71t-171.5 192t-60 270zM346 510q0 -105 74 -181.5t182 -76.5q109 0 181.5 76t72.5 182t-72.5 181t-181.5 75q-108 0 -182 -75.5t-74 -180.5 z" />
<glyph unicode="e" horiz-adv-x="1095" d="M59 510q0 148 65.5 269t182.5 191t262 70q215 0 346.5 -140.5t131.5 -344.5q0 -63 -17 -133h-692q19 -88 91.5 -140.5t178.5 -52.5q94 0 185 26t161 71v-269q-153 -80 -368 -80q-229 0 -378 148.5t-149 384.5zM338 633h440q-3 78 -62 127t-149 49t-154 -51t-75 -125z" />
<glyph unicode="f" horiz-adv-x="698" d="M49 741v238h144v92q0 176 101 269.5t275 93.5q62 0 105 -13v-278q-36 18 -94 18q-51 0 -80 -30t-29 -78v-74h199v-238h-199v-741h-278v741h-144z" />
<glyph unicode="g" horiz-adv-x="1259" d="M59 522q0 221 135 369.5t343 148.5q104 0 186.5 -41t136.5 -114v135h279v-897q0 -277 -149 -420t-419 -143q-100 0 -193 22t-149 53v289q69 -44 162.5 -73t181.5 -29q127 0 207 71t80 193v72q-55 -69 -137 -109.5t-184 -40.5q-209 0 -344.5 146.5t-135.5 367.5zM358 524 q0 -102 70 -172.5t172 -70.5q105 0 174.5 70.5t69.5 172.5q0 101 -70 172.5t-174 71.5q-102 0 -172 -71.5t-70 -172.5z" />
<glyph unicode="h" horiz-adv-x="1130" d="M117 0v1413h278v-522q93 149 269 149q162 0 261 -108t99 -275v-657h-281v580q0 85 -47 136.5t-125 51.5t-124.5 -47t-51.5 -129v-592h-278z" />
<glyph unicode="i" horiz-adv-x="512" d="M92 1317q0 70 47 118t117 48q71 0 117.5 -48t46.5 -118t-46.5 -117t-117.5 -47q-70 0 -117 47.5t-47 116.5zM117 0v1020h278v-1020h-278z" />
<glyph unicode="j" horiz-adv-x="512" d="M-39 -145q34 -21 70 -21q86 0 86 94v1092h278v-1094q0 -180 -90.5 -273t-247.5 -93q-61 0 -96 14v281zM92 1317q0 69 48 117.5t118 48.5t118 -48.5t48 -117.5t-48 -116.5t-118 -47.5t-118 47.5t-48 116.5z" />
<glyph unicode="k" horiz-adv-x="1013" d="M117 0v1413h278v-778l279 385h327l-307 -412l307 -608h-323l-193 410l-90 -123v-287h-278z" />
<glyph unicode="l" horiz-adv-x="514" d="M117 0v1413h280v-1413h-280z" />
<glyph unicode="m" horiz-adv-x="1726" d="M117 0v1020h278v-121q91 141 260 141q108 0 189.5 -47.5t124.5 -136.5q39 84 115 134t186 50q149 0 249.5 -105.5t100.5 -268.5v-666h-279v586q0 85 -44.5 133.5t-118.5 48.5q-76 0 -123 -48.5t-47 -133.5v-586h-279v586q0 85 -44.5 133.5t-119.5 48.5q-74 0 -120 -44.5 t-50 -123.5v-600h-278z" />
<glyph unicode="n" horiz-adv-x="1130" d="M117 0v1020h278v-129q93 149 269 149q162 0 261 -108t99 -275v-657h-281v580q0 85 -47.5 136.5t-126.5 51.5q-76 0 -122.5 -47t-51.5 -129v-592h-278z" />
<glyph unicode="o" horiz-adv-x="1175" d="M57 510q0 224 153.5 377t377.5 153t377 -153t153 -377q0 -147 -69.5 -269.5t-191.5 -193t-269 -70.5q-224 0 -377.5 154.5t-153.5 378.5zM340 510q0 -107 71.5 -183.5t176.5 -76.5q106 0 176 76t70 184q0 107 -70 182.5t-176 75.5q-105 0 -176.5 -75.5t-71.5 -182.5z" />
<glyph unicode="p" horiz-adv-x="1251" d="M117 -420v1440h278v-148q104 168 314 168q140 0 251.5 -70t172.5 -191t61 -269q0 -111 -36 -209t-99.5 -169.5t-154.5 -113t-197 -41.5q-98 0 -178.5 40.5t-133.5 113.5v-551h-278zM395 510q0 -106 73.5 -182t182.5 -76q107 0 179.5 76t72.5 182t-72.5 181t-179.5 75 q-109 0 -182.5 -75t-73.5 -181z" />
<glyph unicode="q" horiz-adv-x="1253" d="M59 510q0 227 136 378.5t350 151.5q198 0 311 -151v131h279v-1440h-279v551q-116 -154 -309 -154q-142 0 -254.5 71t-173 192t-60.5 270zM346 510q0 -105 74 -181.5t182 -76.5q109 0 181.5 76t72.5 182t-72.5 181t-181.5 75q-108 0 -182 -75.5t-74 -180.5z" />
<glyph unicode="r" horiz-adv-x="745" d="M117 0v1020h278v-111q84 131 242 131q45 0 80 -6v-297q-67 31 -150 31q-74 0 -121 -47.5t-51 -128.5v-592h-278z" />
<glyph unicode="s" horiz-adv-x="800" d="M74 735q0 137 101 221t278 84q121 0 233 -34v-275q-48 30 -109.5 49t-113.5 19q-50 0 -75.5 -21t-25.5 -53q0 -23 13.5 -38t46.5 -36l147 -86q168 -101 168 -276q0 -137 -99 -224.5t-276 -87.5q-145 0 -266 52v278q37 -33 112 -61.5t134 -28.5q52 0 79.5 21t27.5 55 q0 48 -68 88l-160 92q-75 43 -111 112.5t-36 149.5z" />
<glyph unicode="t" horiz-adv-x="673" d="M41 782v238h172v223l262 60v-283h172v-238h-172v-782h-278v782h-156z" />
<glyph unicode="u" horiz-adv-x="1136" d="M113 360v660h278v-580q0 -87 46.5 -138.5t125.5 -51.5q76 0 122.5 48t51.5 128v594h279v-1020h-279v127q-87 -150 -268 -150q-159 0 -257.5 108.5t-98.5 274.5z" />
<glyph unicode="v" horiz-adv-x="1071" d="M4 1020h293l238 -674l239 674h295l-387 -1020h-293z" />
<glyph unicode="w" horiz-adv-x="1613" d="M18 1020h289l180 -678l181 539l-50 139h277l238 -678l176 678h288l-303 -1020h-290l-203 559l-189 -559h-293z" />
<glyph unicode="x" horiz-adv-x="1021" d="M6 0l336 510l-336 510h324l182 -301l180 301h326l-334 -510l334 -510h-326l-180 303l-182 -303h-324z" />
<glyph unicode="y" horiz-adv-x="1071" d="M8 1020h314l215 -590l227 590h315l-606 -1440h-323l233 498z" />
<glyph unicode="z" horiz-adv-x="851" d="M70 0v223l364 559h-344v238h686v-223l-377 -557h377v-240h-706z" />
<glyph unicode="{" horiz-adv-x="649" d="M2 414v166h61q166 0 166 194v328q0 93 17 154t54.5 95.5t88 48t125.5 13.5h98v-166h-55q-74 0 -108.5 -35t-34.5 -125v-356q0 -192 -152 -235q152 -43 152 -236v-350q0 -93 34.5 -128.5t108.5 -35.5h55v-166h-94q-77 0 -128 14t-89 49t-55 97.5t-17 157.5v319 q0 197 -166 197h-61z" />
<glyph unicode="|" horiz-adv-x="462" d="M139 -420v1833h185v-1833h-185z" />
<glyph unicode="}" horiz-adv-x="649" d="M39 -254h55q74 0 109 35t35 125v356q0 194 151 236q-151 42 -151 235v350q0 93 -35 128.5t-109 35.5h-55v166h94q77 0 128 -13.5t89 -48.5t55 -97.5t17 -157.5v-320q0 -196 166 -196h61v-166h-61q-166 0 -166 -195v-328q0 -93 -17 -154t-54.5 -95.5t-88.5 -48t-127 -13.5 h-96v166z" />
<glyph unicode="~" d="M68 459v215q124 82 239 82q61 0 126 -20t112 -44.5t112 -44.5t127 -20q106 0 211 80v-215q-52 -40 -103 -61t-124 -21q-65 0 -132.5 20t-115 44.5t-111.5 44.5t-124 20q-94 0 -217 -80z" />
<glyph unicode="&#xa1;" horiz-adv-x="528" d="M74 852q0 82 54.5 135t137.5 53q82 0 135.5 -53t53.5 -135q0 -83 -53.5 -138t-135.5 -55q-83 0 -137.5 55t-54.5 138zM102 -373l66 912h192l66 -912h-324z" />
<glyph unicode="&#xa2;" d="M131 709q0 202 120 346t320 176v182h185v-182q77 -12 139 -39v-295q-63 42 -139 59v-499q77 17 139 61v-293q-55 -30 -139 -43v-182h-185v184q-199 30 -319.5 176t-120.5 349zM414 709q0 -82 42.5 -147.5t114.5 -94.5v481q-72 -29 -114.5 -94t-42.5 -145z" />
<glyph unicode="&#xa3;" d="M82 571v189h135q-27 131 -27 207q0 126 51 226t157 161t253 61q189 0 299 -65v-324q-44 37 -122.5 68.5t-151.5 31.5q-91 0 -140 -48.5t-49 -125.5q0 -67 41 -192h334v-189h-276q18 -81 18 -129q0 -45 -22.5 -90.5t-55.5 -70.5h422v-281h-792v246q52 20 89.5 69t37.5 105 q0 54 -19 151h-182z" />
<glyph unicode="&#xa4;" horiz-adv-x="1087" d="M78 883l158 155l110 -112q84 49 191 49q112 0 204 -53l113 112l147 -145l-110 -115q51 -86 51 -194q0 -107 -51 -193l119 -125l-158 -156l-129 125q-76 -43 -186 -43q-101 0 -185 48l-119 -119l-147 147l113 117q-56 89 -56 199q0 95 43 186zM373 580q0 -66 46.5 -118 t119.5 -52q77 0 123.5 52t46.5 118q0 69 -46.5 122.5t-123.5 53.5q-73 0 -119.5 -54t-46.5 -122z" />
<glyph unicode="&#xa5;" d="M-6 1393h328l213 -504l215 504h325l-315 -633h182v-189h-262v-110h262v-191h-262v-270h-291v270h-276v191h276v110h-274v189h194z" />
<glyph unicode="&#xa6;" horiz-adv-x="479" d="M147 221h185v-641h-185v641zM147 807v606h185v-606h-185z" />
<glyph unicode="&#xa7;" horiz-adv-x="1034" d="M98 571q0 149 115 234q-115 96 -115 262q0 52 15 100t50 93t87 78t131.5 53t177.5 20q170 0 322 -74v-305q-184 105 -324 105q-70 0 -108.5 -20.5t-38.5 -57.5q0 -49 102 -90l215 -90q120 -49 171.5 -125t51.5 -179q0 -138 -116 -225q116 -94 116 -262 q0 -68 -28.5 -129.5t-82 -111t-141 -78.5t-196.5 -29q-199 0 -375 82v317q186 -125 360 -125q71 0 112.5 20.5t41.5 57.5q0 48 -111 96l-217 93q-215 88 -215 290zM391 610q0 -28 29 -51t96 -57l84 -43q57 35 57 86q0 27 -30.5 50.5t-102.5 57.5l-80 39q-53 -30 -53 -82z " />
<glyph unicode="&#xa8;" horiz-adv-x="1187" d="M229 1313q0 63 43 107t107 44t105.5 -43.5t41.5 -107.5t-41.5 -107t-105.5 -43t-107 43.5t-43 106.5zM662 1313q0 63 42 107t105 44q65 0 107 -43.5t42 -107.5t-42 -107t-107 -43q-63 0 -105 43.5t-42 106.5z" />
<glyph unicode="&#xa9;" horiz-adv-x="1677" d="M76 698q0 215 100 388t274.5 269.5t389.5 96.5t389 -96.5t273.5 -269.5t99.5 -388q0 -214 -99.5 -387t-274 -270.5t-388.5 -97.5t-389 97.5t-275 270.5t-100 387zM246 698q0 -174 76.5 -309.5t211.5 -209t306 -73.5q170 0 304 73.5t210 209t76 309.5q0 263 -165.5 426.5 t-424.5 163.5q-260 0 -427 -163.5t-167 -426.5zM432 694q0 180 128 302t317 122q104 0 188 -35v-231q-73 66 -188 66q-101 0 -169.5 -65.5t-68.5 -158.5t69 -159t169 -66q114 0 188 63v-227q-88 -37 -188 -37q-189 0 -317 123t-128 303z" />
<glyph unicode="&#xaa;" horiz-adv-x="733" d="M57 813q0 91 66.5 151t171.5 60q93 0 147 -41v29q0 108 -129 108q-86 0 -184 -57v190q104 47 221 47q143 0 220 -73t77 -219v-396h-205v50q-48 -64 -155 -64t-168.5 63t-61.5 152zM125 319v191h489v-191h-489zM270 817q0 -33 22.5 -55.5t57.5 -22.5q36 0 59 22.5t23 55.5 q0 31 -23 52.5t-59 21.5q-35 0 -57.5 -21.5t-22.5 -52.5z" />
<glyph unicode="&#xab;" horiz-adv-x="1044" d="M66 582l335 467l144 -105l-207 -364l209 -363l-146 -102zM483 582l336 467l144 -105l-207 -364l209 -363l-146 -102z" />
<glyph unicode="&#xac;" d="M51 707v215h928v-588h-223v373h-705z" />
<glyph unicode="&#xad;" horiz-adv-x="763" d="M106 453v262h551v-262h-551z" />
<glyph unicode="&#xae;" horiz-adv-x="1236" d="M84 1042q0 230 152.5 379.5t381.5 149.5q230 0 382.5 -149.5t152.5 -379.5q0 -227 -153 -376.5t-382 -149.5q-228 0 -381 150t-153 376zM203 1042q0 -184 116.5 -298.5t298.5 -114.5t299 114.5t117 298.5q0 186 -117 300t-299 114t-298.5 -114t-116.5 -300zM412 762v575 h217q92 0 147 -44.5t55 -121.5q0 -60 -32.5 -98.5t-79.5 -50.5q57 -30 92 -99.5t43 -160.5h-143q-14 93 -49 148t-89 55h-22v-203h-139zM551 1100h78q27 0 43 13.5t16 37.5t-16 38.5t-43 14.5h-78v-104z" />
<glyph unicode="&#xaf;" horiz-adv-x="1187" d="M289 1186v184h608v-184h-608z" />
<glyph unicode="&#xb0;" horiz-adv-x="800" d="M59 1075q0 135 92.5 235.5t243.5 100.5q79 0 145.5 -28.5t109.5 -76t67 -107.5t24 -124q0 -84 -40 -159t-121 -125t-185 -50q-101 0 -179.5 50t-117.5 125t-39 159zM223 1075q0 -70 48 -124t124 -54q81 0 129.5 53.5t48.5 124.5t-49 125.5t-129 54.5q-76 0 -124 -55 t-48 -125z" />
<glyph unicode="&#xb1;" d="M68 82v217h927v-217h-927zM68 756v217h346v358h231v-358h350v-217h-350v-295h-231v295h-346z" />
<glyph unicode="&#xb2;" horiz-adv-x="622" d="M55 813v170l240 281q63 69 63 118q0 43 -26 68t-72 25q-104 0 -188 -74v219q37 23 93 38t109 15q145 0 218 -74t73 -178q0 -75 -25.5 -129t-72.5 -106l-154 -178h238v-195h-496z" />
<glyph unicode="&#xb3;" horiz-adv-x="618" d="M66 831v236q75 -68 184 -68q48 0 80 22.5t32 57.5q0 34 -28.5 52t-79.5 18h-123v194h123q36 0 60 17.5t24 46.5t-25 47.5t-65 18.5q-102 0 -172 -48v220q70 28 178 28q131 0 211 -68t80 -171q0 -129 -101 -185q125 -63 125 -200q0 -105 -86.5 -177.5t-218.5 -72.5 q-111 0 -198 32z" />
<glyph unicode="&#xb4;" horiz-adv-x="1187" d="M403 1124l150 301h231l-176 -301h-205z" />
<glyph unicode="&#xb5;" horiz-adv-x="1183" d="M135 -420v1440h279v-580q0 -87 46.5 -138.5t125.5 -51.5q76 0 122.5 48t51.5 128v594h278v-1020h-278v127q-87 -150 -268 -150q-46 0 -78 35v-432h-279z" />
<glyph unicode="&#xb6;" horiz-adv-x="1224" d="M49 643q0 176 108 276.5t328 100.5h232v-1440h-205v696h-27q-221 0 -328.5 95.5t-107.5 271.5zM868 -420v1440h205v-1440h-205z" />
<glyph unicode="&#xb7;" horiz-adv-x="550" d="M86 612q0 83 53 138t135 55q83 0 138 -55t55 -138q0 -82 -55 -135t-138 -53q-82 0 -135 53t-53 135z" />
<glyph unicode="&#xb8;" horiz-adv-x="1187" d="M395 -311l154 344h242l-121 -344h-275z" />
<glyph unicode="&#xb9;" horiz-adv-x="638" d="M45 813v193h199v460h-162v195h362v-655h172v-193h-571z" />
<glyph unicode="&#xba;" horiz-adv-x="774" d="M29 952q0 148 103 248t255 100q151 0 253.5 -100t102.5 -248q0 -150 -102.5 -251t-253.5 -101q-152 0 -255 100.5t-103 251.5zM143 319v191h490v-191h-490zM238 952q0 -64 42 -109.5t107 -45.5q64 0 107 45.5t43 109.5q0 62 -43 107t-107 45q-65 0 -107 -44.5t-42 -107.5 z" />
<glyph unicode="&#xbb;" horiz-adv-x="1044" d="M80 944l145 103l336 -467l-336 -467l-143 104l207 365zM500 944l145 103l336 -467l-336 -467l-143 104l207 365z" />
<glyph unicode="&#xbc;" horiz-adv-x="1753" d="M78 545v192h198v461h-161v195h362v-656h172v-192h-571zM512 0l618 1393h209l-620 -1393h-207zM1018 158v170l375 520h200v-498h103v-192h-103v-158h-200v158h-375zM1227 350h166v230z" />
<glyph unicode="&#xbd;" horiz-adv-x="1746" d="M74 545v192h198v461h-161v195h362v-656h172v-192h-571zM510 0l618 1393h209l-620 -1393h-207zM1167 0v170l240 281q63 69 63 118q0 43 -26 68t-72 25q-104 0 -188 -74v219q37 23 93 38t109 15q145 0 218 -74t73 -178q0 -75 -25.5 -129t-72.5 -106l-154 -178h238v-195 h-496z" />
<glyph unicode="&#xbe;" horiz-adv-x="1687" d="M86 563v236q75 -68 184 -68q48 0 80.5 22.5t32.5 57.5q0 34 -29 52t-80 18h-122v194h122q36 0 60 17.5t24 46.5t-25 47t-65 18q-104 0 -172 -47v219q73 29 178 29q131 0 211 -68.5t80 -171.5q0 -128 -100 -184q125 -63 125 -201q0 -105 -86.5 -177.5t-218.5 -72.5 q-109 0 -199 33zM446 0l619 1393h209l-621 -1393h-207zM952 158v170l375 520h201v-498h102v-192h-102v-158h-201v158h-375zM1161 350h166v230z" />
<glyph unicode="&#xbf;" horiz-adv-x="868" d="M59 8q0 101 36 168.5t95 120.5l105 98q36 33 49.5 62.5t13.5 81.5h283q0 -108 -21.5 -164t-89.5 -113l-100 -82q-70 -60 -70 -145q0 -62 43.5 -99.5t133.5 -37.5q60 0 136.5 29t127.5 71v-334q-123 -57 -291 -57q-117 0 -207 34.5t-141.5 93.5t-77 128t-25.5 145z M309 852q0 82 55 135t138 53q82 0 135 -53t53 -135q0 -83 -53 -138t-135 -55q-83 0 -138 55t-55 138z" />
<glyph unicode="&#xc0;" horiz-adv-x="1343" d="M-8 0l516 1393h326l516 -1393h-326l-104 297h-498l-105 -297h-325zM387 1788h229l152 -301h-205zM518 578h307l-153 434z" />
<glyph unicode="&#xc1;" horiz-adv-x="1343" d="M-8 0l516 1393h326l516 -1393h-326l-104 297h-498l-105 -297h-325zM518 578h307l-153 434zM578 1487l149 301h231l-176 -301h-204z" />
<glyph unicode="&#xc2;" horiz-adv-x="1343" d="M-8 0l516 1393h326l516 -1393h-326l-104 297h-498l-105 -297h-325zM348 1487l180 301h287l178 -301h-205l-116 186l-117 -186h-207zM518 578h307l-153 434z" />
<glyph unicode="&#xc3;" horiz-adv-x="1343" d="M-8 0l516 1393h326l516 -1393h-326l-104 297h-498l-105 -297h-325zM369 1534v188q54 -51 143 -51q42 0 90.5 21t103.5 42t115 21q82 0 154 -45v-188q-79 51 -154 51q-51 0 -149 -41t-160 -41q-85 0 -143 43zM518 578h307l-153 434z" />
<glyph unicode="&#xc4;" horiz-adv-x="1343" d="M-8 0l516 1393h326l516 -1393h-326l-104 297h-498l-105 -297h-325zM307 1675q0 64 43 108t107 44t105.5 -44t41.5 -108t-41.5 -106.5t-105.5 -42.5t-107 43t-43 106zM518 578h307l-153 434zM739 1675q0 63 42.5 107.5t105.5 44.5q65 0 107 -44t42 -108t-42 -106.5 t-107 -42.5q-63 0 -105.5 43t-42.5 106z" />
<glyph unicode="&#xc5;" horiz-adv-x="1343" d="M-8 0l516 1393h326l516 -1393h-326l-104 297h-498l-105 -297h-325zM451 1671q0 85 58 145t159 60q107 0 167 -60t60 -145q0 -83 -60.5 -143t-166.5 -60q-100 0 -158.5 60.5t-58.5 142.5zM518 578h307l-153 434zM582 1671q0 -35 23 -59.5t63 -24.5q45 0 69.5 24t24.5 60 t-24.5 62t-69.5 26q-39 0 -62.5 -26t-23.5 -62z" />
<glyph unicode="&#xc6;" horiz-adv-x="1878" d="M-39 0l961 1393h841v-281h-501v-270h460v-281h-460v-280h501v-281h-792v297h-455l-199 -297h-356zM674 578h297v446z" />
<glyph unicode="&#xc7;" horiz-adv-x="1191" d="M68 696q0 151 55 284t149.5 228.5t227.5 151t284 55.5q168 0 318 -72v-333q-131 114 -318 114q-177 0 -297 -125t-120 -303q0 -180 119 -304t298 -124q94 0 177 31t141 82v-332q-126 -60 -268 -69l-103 -291h-274l139 311q-235 61 -381.5 251.5t-146.5 444.5z" />
<glyph unicode="&#xc8;" horiz-adv-x="1060" d="M154 0v1393h792v-281h-502v-270h461v-281h-461v-280h502v-281h-792zM295 1788h229l152 -301h-205z" />
<glyph unicode="&#xc9;" horiz-adv-x="1060" d="M154 0v1393h792v-281h-502v-270h461v-281h-461v-280h502v-281h-792zM451 1487l149 301h231l-176 -301h-204z" />
<glyph unicode="&#xca;" horiz-adv-x="1060" d="M154 0v1393h792v-281h-502v-270h461v-281h-461v-280h502v-281h-792zM223 1487l180 301h287l178 -301h-204l-117 186l-117 -186h-207z" />
<glyph unicode="&#xcb;" horiz-adv-x="1060" d="M154 0v1393h792v-281h-502v-270h461v-281h-461v-280h502v-281h-792zM190 1675q0 64 43 108t107 44t105.5 -44t41.5 -108t-41.5 -106.5t-105.5 -42.5t-107 43t-43 106zM623 1675q0 63 42 107.5t105 44.5q65 0 107.5 -44t42.5 -108t-42.5 -106.5t-107.5 -42.5 q-63 0 -105 43t-42 106z" />
<glyph unicode="&#xcc;" horiz-adv-x="598" d="M27 1788h229l152 -301h-205zM154 0v1393h290v-1393h-290z" />
<glyph unicode="&#xcd;" horiz-adv-x="598" d="M154 0v1393h290v-1393h-290zM203 1487l149 301h232l-176 -301h-205z" />
<glyph unicode="&#xce;" horiz-adv-x="598" d="M-25 1487l181 301h286l179 -301h-205l-117 186l-117 -186h-207zM154 0v1393h290v-1393h-290z" />
<glyph unicode="&#xcf;" horiz-adv-x="598" d="M-66 1675q0 64 43 108t107 44t105.5 -44t41.5 -108t-41.5 -106.5t-105.5 -42.5t-107 43t-43 106zM154 0v1393h290v-1393h-290zM367 1675q0 63 42 107.5t105 44.5q65 0 107.5 -44t42.5 -108t-42.5 -106.5t-107.5 -42.5q-63 0 -105 43t-42 106z" />
<glyph unicode="&#xd0;" horiz-adv-x="1437" d="M49 604v184h115v605h516q208 0 365 -89t240 -246.5t83 -361.5q0 -203 -83 -360.5t-240 -246.5t-365 -89h-516v604h-115zM455 281h221q185 0 288 115.5t103 299.5q0 183 -103 299.5t-288 116.5h-221v-324h200v-184h-200v-323z" />
<glyph unicode="&#xd1;" horiz-adv-x="1468" d="M70 1372v21h344l610 -887v887h291v-1393h-291l-567 805v-805h-291v1219zM440 1534v188q54 -51 144 -51q42 0 90.5 21t103.5 42t115 21q82 0 154 -45v-188q-79 51 -154 51q-51 0 -149 -41t-160 -41q-86 0 -144 43z" />
<glyph unicode="&#xd2;" horiz-adv-x="1568" d="M68 696q0 151 55 284t149.5 228.5t227.5 151t284 55.5t284 -55.5t228 -150.5t150 -228.5t55 -284.5t-55 -284.5t-150 -228.5t-228 -150.5t-284 -55.5t-284 55.5t-227.5 151t-149.5 228.5t-55 284zM367 696q0 -180 120 -304t297 -124q176 0 296 124.5t120 303.5 q0 178 -120 303t-296 125q-177 0 -297 -125t-120 -303zM510 1788h229l152 -301h-205z" />
<glyph unicode="&#xd3;" horiz-adv-x="1568" d="M68 696q0 151 55 284t149.5 228.5t227.5 151t284 55.5t284 -55.5t228 -150.5t150 -228.5t55 -284.5t-55 -284.5t-150 -228.5t-228 -150.5t-284 -55.5t-284 55.5t-227.5 151t-149.5 228.5t-55 284zM367 696q0 -180 120 -304t297 -124q176 0 296 124.5t120 303.5 q0 178 -120 303t-296 125q-177 0 -297 -125t-120 -303zM690 1487l150 301h231l-176 -301h-205z" />
<glyph unicode="&#xd4;" horiz-adv-x="1568" d="M68 696q0 151 55 284t149.5 228.5t227.5 151t284 55.5t284 -55.5t228 -150.5t150 -228.5t55 -284.5t-55 -284.5t-150 -228.5t-228 -150.5t-284 -55.5t-284 55.5t-227.5 151t-149.5 228.5t-55 284zM367 696q0 -180 120 -304t297 -124q176 0 296 124.5t120 303.5 q0 178 -120 303t-296 125q-177 0 -297 -125t-120 -303zM461 1487l180 301h287l178 -301h-205l-117 186l-116 -186h-207z" />
<glyph unicode="&#xd5;" horiz-adv-x="1568" d="M68 696q0 151 55 284t149.5 228.5t227.5 151t284 55.5t284 -55.5t228 -150.5t150 -228.5t55 -284.5t-55 -284.5t-150 -228.5t-228 -150.5t-284 -55.5t-284 55.5t-227.5 151t-149.5 228.5t-55 284zM367 696q0 -180 120 -304t297 -124q176 0 296 124.5t120 303.5 q0 178 -120 303t-296 125q-177 0 -297 -125t-120 -303zM481 1534v188q54 -51 144 -51q42 0 90.5 21t103.5 42t115 21q81 0 153 -45v-188q-79 51 -153 51q-51 0 -149 -41t-160 -41q-86 0 -144 43z" />
<glyph unicode="&#xd6;" horiz-adv-x="1568" d="M68 696q0 151 55 284t149.5 228.5t227.5 151t284 55.5t284 -55.5t228 -150.5t150 -228.5t55 -284.5t-55 -284.5t-150 -228.5t-228 -150.5t-284 -55.5t-284 55.5t-227.5 151t-149.5 228.5t-55 284zM367 696q0 -180 120 -304t297 -124q176 0 296 124.5t120 303.5 q0 178 -120 303t-296 125q-177 0 -297 -125t-120 -303zM420 1675q0 64 42.5 108t106.5 44t106 -44t42 -108q0 -63 -42 -106t-106 -43t-106.5 43t-42.5 106zM852 1675q0 63 42 107.5t105 44.5q65 0 107.5 -44t42.5 -108t-42.5 -106.5t-107.5 -42.5q-63 0 -105 43t-42 106z " />
<glyph unicode="&#xd7;" d="M53 897l166 164l318 -320l315 314l154 -154l-314 -313l318 -320l-164 -166l-320 322l-311 -311l-154 153l312 309z" />
<glyph unicode="&#xd8;" horiz-adv-x="1568" d="M68 696q0 151 55 284t149.5 228.5t227.5 151t284 55.5q195 0 361 -94l98 135l137 -96l-100 -137q104 -98 162.5 -234.5t58.5 -292.5q0 -151 -55 -284.5t-150 -228.5t-228 -150.5t-284 -55.5q-187 0 -352 89l-92 -127l-129 94l90 125q-110 98 -171.5 237t-61.5 301z M367 696q0 -178 112 -293l490 674q-89 47 -185 47q-177 0 -297 -125t-120 -303zM610 307q80 -39 174 -39q176 0 296 124.5t120 303.5q0 165 -102 279z" />
<glyph unicode="&#xd9;" horiz-adv-x="1339" d="M139 524v869h291v-893q0 -107 65.5 -173.5t174.5 -66.5q111 0 176 66.5t65 173.5v893h291v-869q0 -255 -143 -401t-389 -146t-388.5 146t-142.5 401zM399 1788h230l151 -301h-205z" />
<glyph unicode="&#xda;" horiz-adv-x="1339" d="M139 524v869h291v-893q0 -107 65.5 -173.5t174.5 -66.5q111 0 176 66.5t65 173.5v893h291v-869q0 -255 -143 -401t-389 -146t-388.5 146t-142.5 401zM565 1487l150 301h231l-176 -301h-205z" />
<glyph unicode="&#xdb;" horiz-adv-x="1339" d="M139 524v869h291v-893q0 -107 65.5 -173.5t174.5 -66.5q111 0 176 66.5t65 173.5v893h291v-869q0 -255 -143 -401t-389 -146t-388.5 146t-142.5 401zM346 1487l180 301h287l178 -301h-205l-116 186l-117 -186h-207z" />
<glyph unicode="&#xdc;" horiz-adv-x="1339" d="M139 524v869h291v-893q0 -107 65.5 -173.5t174.5 -66.5q111 0 176 66.5t65 173.5v893h291v-869q0 -255 -143 -401t-389 -146t-388.5 146t-142.5 401zM305 1675q0 64 43 108t107 44t105.5 -44t41.5 -108t-41.5 -106.5t-105.5 -42.5t-107 43t-43 106zM737 1675 q0 63 42.5 107.5t105.5 44.5q65 0 107 -44t42 -108t-42 -106.5t-107 -42.5q-63 0 -105.5 43t-42.5 106z" />
<glyph unicode="&#xdd;" horiz-adv-x="1171" d="M-8 1393h327l267 -504l268 504h326l-449 -795v-598h-291v602zM481 1487l150 301h231l-176 -301h-205z" />
<glyph unicode="&#xde;" horiz-adv-x="1118" d="M154 0v1393h290v-244h185q207 0 332.5 -118.5t125.5 -323.5q0 -203 -126 -322t-332 -119h-185v-266h-290zM444 547h181q73 0 118 41.5t45 118.5q0 79 -44.5 120t-118.5 41h-181v-321z" />
<glyph unicode="&#xdf;" horiz-adv-x="1136" d="M117 0v954q0 220 116 350t345 130q207 0 327.5 -110.5t120.5 -283.5q0 -103 -45.5 -181.5t-118.5 -117.5q92 -37 151.5 -123.5t59.5 -189.5q0 -209 -122.5 -323.5t-340.5 -114.5q-52 0 -98 8l2 264q57 -10 96 -10q85 0 137 52t52 145q0 77 -54 124.5t-137 47.5h-80v237 h74q61 0 103.5 43t42.5 109q0 71 -47 114t-121 43q-87 0 -136 -51.5t-49 -148.5v-967h-278z" />
<glyph unicode="&#xe0;" horiz-adv-x="995" d="M47 309q0 140 94 234t246 94q63 0 123.5 -20.5t99.5 -53.5v55q0 88 -51.5 131.5t-136.5 43.5q-134 0 -262 -76v264q141 59 295 59q434 0 434 -428v-612h-279v76q-86 -99 -227 -99q-161 0 -248.5 96.5t-87.5 235.5zM213 1425h229l152 -301h-205zM322 309q0 -54 41.5 -90.5 t101.5 -36.5t100.5 36.5t40.5 90.5t-40.5 90.5t-100.5 36.5t-101.5 -36.5t-41.5 -90.5z" />
<glyph unicode="&#xe1;" horiz-adv-x="995" d="M47 309q0 140 94 234t246 94q63 0 123.5 -20.5t99.5 -53.5v55q0 88 -51.5 131.5t-136.5 43.5q-134 0 -262 -76v264q141 59 295 59q434 0 434 -428v-612h-279v76q-86 -99 -227 -99q-161 0 -248.5 96.5t-87.5 235.5zM322 309q0 -54 41.5 -90.5t101.5 -36.5t100.5 36.5 t40.5 90.5t-40.5 90.5t-100.5 36.5t-101.5 -36.5t-41.5 -90.5zM414 1124l149 301h232l-177 -301h-204z" />
<glyph unicode="&#xe2;" horiz-adv-x="995" d="M47 309q0 140 94 234t246 94q63 0 123.5 -20.5t99.5 -53.5v55q0 88 -51.5 131.5t-136.5 43.5q-134 0 -262 -76v264q141 59 295 59q434 0 434 -428v-612h-279v76q-86 -99 -227 -99q-161 0 -248.5 96.5t-87.5 235.5zM156 1124l180 301h287l178 -301h-205l-117 187 l-117 -187h-206zM322 309q0 -54 41.5 -90.5t101.5 -36.5t100.5 36.5t40.5 90.5t-40.5 90.5t-100.5 36.5t-101.5 -36.5t-41.5 -90.5z" />
<glyph unicode="&#xe3;" horiz-adv-x="995" d="M47 309q0 140 94 234t246 94q63 0 123.5 -20.5t99.5 -53.5v55q0 88 -51.5 131.5t-136.5 43.5q-134 0 -262 -76v264q141 59 295 59q434 0 434 -428v-612h-279v76q-86 -99 -227 -99q-161 0 -248.5 96.5t-87.5 235.5zM178 1171v189q54 -51 144 -51q42 0 90.5 21t103.5 42 t115 21q81 0 153 -45v-189q-79 51 -153 51q-51 0 -149 -41t-160 -41q-86 0 -144 43zM322 309q0 -54 41.5 -90.5t101.5 -36.5t100.5 36.5t40.5 90.5t-40.5 90.5t-100.5 36.5t-101.5 -36.5t-41.5 -90.5z" />
<glyph unicode="&#xe4;" horiz-adv-x="995" d="M47 309q0 140 94 234t246 94q63 0 123.5 -20.5t99.5 -53.5v55q0 88 -51.5 131.5t-136.5 43.5q-134 0 -262 -76v264q141 59 295 59q434 0 434 -428v-612h-279v76q-86 -99 -227 -99q-161 0 -248.5 96.5t-87.5 235.5zM113 1313q0 64 42.5 107.5t106.5 43.5t106 -43.5 t42 -107.5t-42 -107t-106 -43t-106.5 43.5t-42.5 106.5zM322 309q0 -54 41.5 -90.5t101.5 -36.5t100.5 36.5t40.5 90.5t-40.5 90.5t-100.5 36.5t-101.5 -36.5t-41.5 -90.5zM545 1313q0 63 42 107t105 44q65 0 107.5 -43.5t42.5 -107.5t-42.5 -107t-107.5 -43 q-63 0 -105 43.5t-42 106.5z" />
<glyph unicode="&#xe5;" horiz-adv-x="995" d="M47 309q0 140 94 234t246 94q63 0 123.5 -20.5t99.5 -53.5v55q0 88 -51.5 131.5t-136.5 43.5q-134 0 -262 -76v264q141 59 295 59q434 0 434 -428v-612h-279v76q-86 -99 -227 -99q-161 0 -248.5 96.5t-87.5 235.5zM258 1309q0 84 58 144t159 60q107 0 167 -59.5 t60 -144.5q0 -83 -60 -143t-167 -60q-100 0 -158.5 60.5t-58.5 142.5zM322 309q0 -54 41.5 -90.5t101.5 -36.5t100.5 36.5t40.5 90.5t-40.5 90.5t-100.5 36.5t-101.5 -36.5t-41.5 -90.5zM389 1309q0 -35 23 -59.5t63 -24.5q45 0 69.5 24t24.5 60t-24.5 62t-69.5 26 q-39 0 -62.5 -26t-23.5 -62z" />
<glyph unicode="&#xe6;" horiz-adv-x="1703" d="M47 309q0 140 94 234t246 94q63 0 123.5 -20.5t99.5 -53.5v55q0 88 -51.5 131.5t-136.5 43.5q-134 0 -262 -76v264q141 59 295 59q259 0 356 -159q67 75 162 117t205 42q108 0 198.5 -38.5t151 -105t94 -154.5t33.5 -187q0 -65 -17 -131h-692q19 -91 91.5 -143t179.5 -52 q191 0 346 97v-269q-59 -33 -159 -56.5t-220 -23.5q-131 0 -233 46t-158 124q-56 -76 -151 -123t-216 -47q-98 0 -172.5 27.5t-118.5 74.5t-66 105t-22 125zM322 309q0 -54 41.5 -90.5t101.5 -36.5t100.5 36.5t40.5 90.5t-40.5 90.5t-100.5 36.5t-101.5 -36.5t-41.5 -90.5z M944 633h442q-3 78 -62 127t-148 49q-90 0 -155 -51t-77 -125z" />
<glyph unicode="&#xe7;" horiz-adv-x="905" d="M59 510q0 150 66.5 270.5t190 190t282.5 69.5q54 0 119 -13t106 -34v-295q-100 70 -225 70q-111 0 -183.5 -75t-72.5 -183t72.5 -184t183.5 -76q131 0 225 72v-295q-53 -30 -161 -45l-103 -293h-274l139 313q-168 51 -266.5 188.5t-98.5 319.5z" />
<glyph unicode="&#xe8;" horiz-adv-x="1095" d="M59 510q0 148 65.5 269t182.5 191t262 70q215 0 346.5 -140.5t131.5 -344.5q0 -63 -17 -133h-692q19 -88 91.5 -140.5t178.5 -52.5q94 0 185 26t161 71v-269q-153 -80 -368 -80q-229 0 -378 148.5t-149 384.5zM311 1425h230l151 -301h-205zM338 633h440q-3 78 -62 127 t-149 49t-154 -51t-75 -125z" />
<glyph unicode="&#xe9;" horiz-adv-x="1095" d="M59 510q0 148 65.5 269t182.5 191t262 70q215 0 346.5 -140.5t131.5 -344.5q0 -63 -17 -133h-692q19 -88 91.5 -140.5t178.5 -52.5q94 0 185 26t161 71v-269q-153 -80 -368 -80q-229 0 -378 148.5t-149 384.5zM338 633h440q-3 78 -62 127t-149 49t-154 -51t-75 -125z M477 1124l150 301h231l-176 -301h-205z" />
<glyph unicode="&#xea;" horiz-adv-x="1095" d="M59 510q0 148 65.5 269t182.5 191t262 70q215 0 346.5 -140.5t131.5 -344.5q0 -63 -17 -133h-692q19 -88 91.5 -140.5t178.5 -52.5q94 0 185 26t161 71v-269q-153 -80 -368 -80q-229 0 -378 148.5t-149 384.5zM258 1124l180 301h287l178 -301h-205l-116 187l-117 -187 h-207zM338 633h440q-3 78 -62 127t-149 49t-154 -51t-75 -125z" />
<glyph unicode="&#xeb;" horiz-adv-x="1095" d="M59 510q0 148 65.5 269t182.5 191t262 70q215 0 346.5 -140.5t131.5 -344.5q0 -63 -17 -133h-692q19 -88 91.5 -140.5t178.5 -52.5q94 0 185 26t161 71v-269q-153 -80 -368 -80q-229 0 -378 148.5t-149 384.5zM211 1313q0 64 42.5 107.5t106.5 43.5t106 -43.5t42 -107.5 t-42 -107t-106 -43t-106.5 43.5t-42.5 106.5zM338 633h440q-3 78 -62 127t-149 49t-154 -51t-75 -125zM643 1313q0 63 42.5 107t105.5 44q65 0 107 -43.5t42 -107.5t-42 -107t-107 -43q-63 0 -105.5 43.5t-42.5 106.5z" />
<glyph unicode="&#xec;" horiz-adv-x="512" d="M-16 1425h229l152 -301h-205zM117 0v1020h278v-1020h-278z" />
<glyph unicode="&#xed;" horiz-adv-x="512" d="M117 0v1020h278v-1020h-278zM156 1124l149 301h232l-177 -301h-204z" />
<glyph unicode="&#xee;" horiz-adv-x="512" d="M-68 1124l181 301h286l179 -301h-205l-117 187l-117 -187h-207zM117 0v1020h278v-1020h-278z" />
<glyph unicode="&#xef;" horiz-adv-x="512" d="M-109 1313q0 63 43 107t107 44t105.5 -43.5t41.5 -107.5t-41.5 -107t-105.5 -43t-107 43.5t-43 106.5zM117 0v1020h278v-1020h-278zM324 1313q0 63 42 107t105 44q65 0 107.5 -43.5t42.5 -107.5t-42.5 -107t-107.5 -43q-63 0 -105 43.5t-42 106.5z" />
<glyph unicode="&#xf0;" horiz-adv-x="1114" d="M57 479q0 104 37 194.5t100 153t145.5 101t174.5 45.5l-68 100l-139 -57l-74 121l134 57l-131 199h348l51 -84l143 61l76 -125l-141 -59l254 -408q90 -146 90 -299q0 -141 -65 -256t-180 -180.5t-255 -65.5q-212 0 -356 144t-144 358zM352 479q0 -88 59 -149.5t146 -61.5 t146 61.5t59 149.5q0 87 -59 147t-146 60t-146 -60t-59 -147z" />
<glyph unicode="&#xf1;" horiz-adv-x="1130" d="M117 0v1020h278v-129q93 149 269 149q162 0 261 -108t99 -275v-657h-281v580q0 85 -47.5 136.5t-126.5 51.5q-76 0 -122.5 -47t-51.5 -129v-592h-278zM266 1171v189q54 -51 144 -51q42 0 90.5 21t103.5 42t115 21q81 0 153 -45v-189q-79 51 -153 51q-51 0 -149 -41 t-160 -41q-86 0 -144 43z" />
<glyph unicode="&#xf2;" horiz-adv-x="1175" d="M57 510q0 224 153.5 377t377.5 153t377 -153t153 -377q0 -147 -69.5 -269.5t-191.5 -193t-269 -70.5q-224 0 -377.5 154.5t-153.5 378.5zM332 1425h229l152 -301h-205zM340 510q0 -107 71.5 -183.5t176.5 -76.5q106 0 176 76t70 184q0 107 -70 182.5t-176 75.5 q-105 0 -176.5 -75.5t-71.5 -182.5z" />
<glyph unicode="&#xf3;" horiz-adv-x="1175" d="M57 510q0 224 153.5 377t377.5 153t377 -153t153 -377q0 -147 -69.5 -269.5t-191.5 -193t-269 -70.5q-224 0 -377.5 154.5t-153.5 378.5zM340 510q0 -107 71.5 -183.5t176.5 -76.5q106 0 176 76t70 184q0 107 -70 182.5t-176 75.5q-105 0 -176.5 -75.5t-71.5 -182.5z M500 1124l149 301h232l-176 -301h-205z" />
<glyph unicode="&#xf4;" horiz-adv-x="1175" d="M57 510q0 224 153.5 377t377.5 153t377 -153t153 -377q0 -147 -69.5 -269.5t-191.5 -193t-269 -70.5q-224 0 -377.5 154.5t-153.5 378.5zM264 1124l180 301h287l178 -301h-204l-117 187l-117 -187h-207zM340 510q0 -107 71.5 -183.5t176.5 -76.5q106 0 176 76t70 184 q0 107 -70 182.5t-176 75.5q-105 0 -176.5 -75.5t-71.5 -182.5z" />
<glyph unicode="&#xf5;" horiz-adv-x="1175" d="M57 510q0 224 153.5 377t377.5 153t377 -153t153 -377q0 -147 -69.5 -269.5t-191.5 -193t-269 -70.5q-224 0 -377.5 154.5t-153.5 378.5zM285 1171v189q54 -51 143 -51q42 0 90.5 21t103.5 42t115 21q82 0 154 -45v-189q-79 51 -154 51q-51 0 -149 -41t-160 -41 q-85 0 -143 43zM340 510q0 -107 71.5 -183.5t176.5 -76.5q106 0 176 76t70 184q0 107 -70 182.5t-176 75.5q-105 0 -176.5 -75.5t-71.5 -182.5z" />
<glyph unicode="&#xf6;" horiz-adv-x="1175" d="M57 510q0 224 153.5 377t377.5 153t377 -153t153 -377q0 -147 -69.5 -269.5t-191.5 -193t-269 -70.5q-224 0 -377.5 154.5t-153.5 378.5zM223 1313q0 63 43 107t107 44t105.5 -43.5t41.5 -107.5t-41.5 -107t-105.5 -43t-107 43.5t-43 106.5zM340 510q0 -107 71.5 -183.5 t176.5 -76.5q106 0 176 76t70 184q0 107 -70 182.5t-176 75.5q-105 0 -176.5 -75.5t-71.5 -182.5zM655 1313q0 63 42.5 107t105.5 44q65 0 107 -43.5t42 -107.5t-42 -107t-107 -43q-63 0 -105.5 43.5t-42.5 106.5z" />
<glyph unicode="&#xf7;" d="M68 477v215h927v-215h-927zM381 170q0 66 44 109t112 43q67 0 111 -43t44 -109q0 -63 -44 -105t-111 -42t-111.5 42t-44.5 105zM381 991q0 66 44 108t112 42t111.5 -42t43.5 -108q0 -65 -44 -107t-111 -42q-68 0 -112 42.5t-44 106.5z" />
<glyph unicode="&#xf8;" horiz-adv-x="1175" d="M57 510q0 224 153.5 377t377.5 153q133 0 248 -59l67 90l139 -94l-71 -96q147 -154 147 -371q0 -147 -69.5 -269.5t-191.5 -193t-269 -70.5q-127 0 -240 58l-69 -96l-129 94l67 92q-76 71 -118 171t-42 214zM319 510q0 -93 56 -168l309 428q-51 21 -96 21 q-114 0 -191.5 -82t-77.5 -199zM504 246q42 -17 84 -17q114 0 191 82t77 199q0 84 -49 149z" />
<glyph unicode="&#xf9;" horiz-adv-x="1136" d="M113 360v660h278v-580q0 -87 46.5 -138.5t125.5 -51.5q76 0 122.5 48t51.5 128v594h279v-1020h-279v127q-87 -150 -268 -150q-159 0 -257.5 108.5t-98.5 274.5zM285 1425h229l152 -301h-205z" />
<glyph unicode="&#xfa;" horiz-adv-x="1136" d="M113 360v660h278v-580q0 -87 46.5 -138.5t125.5 -51.5q76 0 122.5 48t51.5 128v594h279v-1020h-279v127q-87 -150 -268 -150q-159 0 -257.5 108.5t-98.5 274.5zM465 1124l149 301h232l-176 -301h-205z" />
<glyph unicode="&#xfb;" horiz-adv-x="1136" d="M113 360v660h278v-580q0 -87 46.5 -138.5t125.5 -51.5q76 0 122.5 48t51.5 128v594h279v-1020h-279v127q-87 -150 -268 -150q-159 0 -257.5 108.5t-98.5 274.5zM242 1124l180 301h287l178 -301h-205l-117 187l-116 -187h-207z" />
<glyph unicode="&#xfc;" horiz-adv-x="1136" d="M113 360v660h278v-580q0 -87 46.5 -138.5t125.5 -51.5q76 0 122.5 48t51.5 128v594h279v-1020h-279v127q-87 -150 -268 -150q-159 0 -257.5 108.5t-98.5 274.5zM201 1313q0 64 42.5 107.5t106.5 43.5t106 -43.5t42 -107.5t-42 -107t-106 -43t-106.5 43.5t-42.5 106.5z M633 1313q0 63 42 107t105 44q65 0 107.5 -43.5t42.5 -107.5t-42.5 -107t-107.5 -43q-63 0 -105 43.5t-42 106.5z" />
<glyph unicode="&#xfd;" horiz-adv-x="1071" d="M8 1020h314l215 -590l227 590h315l-606 -1440h-323l233 498zM451 1124l149 301h231l-176 -301h-204z" />
<glyph unicode="&#xfe;" horiz-adv-x="1257" d="M121 -420v1833h280v-541q101 168 314 168q140 0 251 -70t171.5 -191t60.5 -269q0 -111 -36 -209t-99 -169.5t-153.5 -113t-196.5 -41.5q-99 0 -179.5 40.5t-132.5 113.5v-551h-280zM401 510q0 -106 72.5 -182t181.5 -76q107 0 179.5 76t72.5 182t-72.5 181t-179.5 75 q-109 0 -181.5 -75t-72.5 -181z" />
<glyph unicode="&#xff;" horiz-adv-x="1071" d="M8 1020h314l215 -590l227 590h315l-606 -1440h-323l233 498zM180 1313q0 63 43 107t107 44t105.5 -43.5t41.5 -107.5t-41.5 -107t-105.5 -43t-107 43.5t-43 106.5zM612 1313q0 63 42.5 107t105.5 44q65 0 107 -43.5t42 -107.5t-42 -107t-107 -43q-63 0 -105.5 43.5 t-42.5 106.5z" />
<glyph unicode="&#x152;" horiz-adv-x="2115" d="M68 696q0 151 55 284t149.5 228.5t227.5 151t284 55.5q244 0 424 -162v140h793v-281h-502v-270h461v-281h-461v-280h502v-281h-793v139q-177 -162 -424 -162q-151 0 -284 55.5t-227.5 151t-149.5 228.5t-55 284zM367 696q0 -180 120 -304t297 -124q176 0 296 124.5 t120 303.5q0 178 -120 303t-296 125q-177 0 -297 -125t-120 -303z" />
<glyph unicode="&#x153;" horiz-adv-x="1880" d="M57 510q0 224 153.5 377t377.5 153q118 0 219 -47.5t170 -130.5q66 84 163.5 131t213.5 47q144 0 254 -66.5t166.5 -176t56.5 -242.5q0 -75 -14 -133h-693q17 -88 90.5 -140.5t180.5 -52.5q191 0 346 97v-269q-157 -80 -371 -80q-121 0 -223 47.5t-172 133.5 q-68 -87 -170 -134t-217 -47q-117 0 -217 43.5t-168.5 116.5t-107 170t-38.5 203zM340 510q0 -107 71.5 -183.5t176.5 -76.5q106 0 176 76t70 184q0 107 -70 182.5t-176 75.5q-105 0 -176.5 -75.5t-71.5 -182.5zM1122 633h443q-5 78 -63.5 127t-149.5 49q-89 0 -154 -51.5 t-76 -124.5z" />
<glyph unicode="&#x178;" horiz-adv-x="1171" d="M-8 1393h327l267 -504l268 504h326l-449 -795v-598h-291v602zM223 1675q0 64 43 108t107 44t105.5 -44t41.5 -108t-41.5 -106.5t-105.5 -42.5t-107 43t-43 106zM655 1675q0 63 42.5 107.5t105.5 44.5q65 0 107 -44t42 -108t-42 -106.5t-107 -42.5q-63 0 -105.5 43 t-42.5 106z" />
<glyph unicode="&#x2c6;" horiz-adv-x="1187" d="M270 1124l181 301h286l178 -301h-204l-117 187l-117 -187h-207z" />
<glyph unicode="&#x2dc;" horiz-adv-x="1187" d="M291 1171v189q54 -51 143 -51q42 0 90.5 21t103.5 42t115 21q82 0 154 -45v-189q-79 51 -154 51q-51 0 -149 -41t-160 -41q-85 0 -143 43z" />
<glyph unicode="&#x2000;" horiz-adv-x="938" />
<glyph unicode="&#x2001;" horiz-adv-x="1876" />
<glyph unicode="&#x2002;" horiz-adv-x="938" />
<glyph unicode="&#x2003;" horiz-adv-x="1876" />
<glyph unicode="&#x2004;" horiz-adv-x="625" />
<glyph unicode="&#x2005;" horiz-adv-x="469" />
<glyph unicode="&#x2006;" horiz-adv-x="312" />
<glyph unicode="&#x2007;" horiz-adv-x="312" />
<glyph unicode="&#x2008;" horiz-adv-x="234" />
<glyph unicode="&#x2009;" horiz-adv-x="375" />
<glyph unicode="&#x200a;" horiz-adv-x="104" />
<glyph unicode="&#x2010;" horiz-adv-x="763" d="M106 453v262h551v-262h-551z" />
<glyph unicode="&#x2011;" horiz-adv-x="763" d="M106 453v262h551v-262h-551z" />
<glyph unicode="&#x2012;" horiz-adv-x="763" d="M106 453v262h551v-262h-551z" />
<glyph unicode="&#x2013;" horiz-adv-x="1204" d="M109 473v221h987v-221h-987z" />
<glyph unicode="&#x2014;" horiz-adv-x="1490" d="M109 473v221h1273v-221h-1273z" />
<glyph unicode="&#x2018;" horiz-adv-x="526" d="M76 823l112 570h256l-59 -570h-309z" />
<glyph unicode="&#x2019;" horiz-adv-x="518" d="M92 823l60 570h309l-111 -570h-258z" />
<glyph unicode="&#x201a;" horiz-adv-x="546" d="M80 -236l59 570h310l-111 -570h-258z" />
<glyph unicode="&#x201c;" horiz-adv-x="980" d="M76 823l112 570h256l-59 -570h-309zM530 823l113 570h256l-59 -570h-310z" />
<glyph unicode="&#x201d;" horiz-adv-x="972" d="M92 823l60 570h309l-111 -570h-258zM545 823l59 570h309l-110 -570h-258z" />
<glyph unicode="&#x201e;" horiz-adv-x="999" d="M80 -236l59 570h310l-111 -570h-258zM535 -236l59 570h309l-110 -570h-258z" />
<glyph unicode="&#x2022;" horiz-adv-x="802" d="M127 582q0 114 77 188t197 74t197.5 -74t77.5 -188q0 -113 -78 -188t-197 -75t-196.5 75t-77.5 188z" />
<glyph unicode="&#x2026;" horiz-adv-x="1611" d="M80 168q0 83 53 137.5t135 54.5q83 0 138 -54.5t55 -137.5q0 -82 -55 -135t-138 -53q-82 0 -135 53t-53 135zM616 168q0 83 53.5 137.5t135.5 54.5q83 0 136.5 -54.5t53.5 -137.5q0 -82 -53.5 -135t-136.5 -53q-82 0 -135.5 53t-53.5 135zM1151 168q0 83 53.5 137.5 t136.5 54.5q82 0 136.5 -54.5t54.5 -137.5q0 -81 -54.5 -134.5t-136.5 -53.5q-83 0 -136.5 53t-53.5 135z" />
<glyph unicode="&#x202f;" horiz-adv-x="375" />
<glyph unicode="&#x2039;" horiz-adv-x="626" d="M66 582l335 467l144 -105l-207 -364l209 -363l-146 -102z" />
<glyph unicode="&#x203a;" horiz-adv-x="624" d="M80 944l145 103l336 -467l-336 -467l-143 104l207 365z" />
<glyph unicode="&#x205f;" horiz-adv-x="469" />
<glyph unicode="&#x20ac;" d="M20 436l48 189h92v110h-137l47 191h90q12 221 159.5 355t372.5 134q84 0 179.5 -28.5t146.5 -69.5l-82 -277q-37 38 -107.5 64t-136.5 26q-104 0 -166.5 -53t-72.5 -151h442l-47 -191h-397v-110h364l-47 -189h-313q15 -84 74 -129t155 -45q77 0 145.5 29.5t116.5 75.5 l92 -254q-69 -63 -160.5 -99.5t-193.5 -36.5q-217 0 -359.5 125t-162.5 334h-142z" />
<glyph unicode="&#x2122;" horiz-adv-x="1685" d="M109 1237v156h522v-156h-182v-553h-162v553h-178zM754 684v709h196l205 -502l203 502h196v-709h-161v418l-168 -418h-140l-170 418v-418h-161z" />
<glyph unicode="&#x25fc;" horiz-adv-x="1024" d="M0 0v1024h1024v-1024h-1024z" />
</font>
</defs>
</svg>
